<svg width="255" height="84" viewBox="0 0 255 84" fill="none" xmlns="http://www.w3.org/2000/svg">
<path d="M41.9082 68V36H54.1582C56.4707 36 58.3926 36.3646 59.9238 37.0937C61.4655 37.8125 62.6165 38.7969 63.377 40.0469C64.1478 41.2969 64.5332 42.7135 64.5332 44.2969C64.5332 45.599 64.2832 46.7135 63.7832 47.6406C63.2832 48.5573 62.6113 49.3021 61.7676 49.875C60.9238 50.4479 59.9811 50.8594 58.9395 51.1094V51.4219C60.0749 51.4844 61.1634 51.8333 62.2051 52.4687C63.2572 53.0937 64.1165 53.9792 64.7832 55.125C65.4499 56.2708 65.7832 57.6562 65.7832 59.2812C65.7832 60.9375 65.3822 62.4271 64.5801 63.75C63.778 65.0625 62.5697 66.099 60.9551 66.8594C59.3405 67.6198 57.3092 68 54.8613 68H41.9082ZM47.7051 63.1562H53.9395C56.0436 63.1562 57.5592 62.7552 58.4863 61.9531C59.4238 61.1406 59.8926 60.099 59.8926 58.8281C59.8926 57.8802 59.6582 57.026 59.1895 56.2656C58.7207 55.4948 58.054 54.8906 57.1895 54.4531C56.3249 54.0052 55.2936 53.7813 54.0957 53.7813H47.7051V63.1562ZM47.7051 49.6094H53.4395C54.4395 49.6094 55.3405 49.4271 56.1426 49.0625C56.9447 48.6875 57.5749 48.1615 58.0332 47.4844C58.502 46.7969 58.7363 45.9844 58.7363 45.0469C58.7363 43.8073 58.2988 42.7865 57.4238 41.9844C56.5592 41.1823 55.2728 40.7812 53.5645 40.7812H47.7051V49.6094ZM85.873 57.9062V44H91.5293V68H86.0449V63.7344H85.7949C85.2533 65.0781 84.3626 66.1771 83.123 67.0312C81.8939 67.8854 80.3783 68.3125 78.5762 68.3125C77.0033 68.3125 75.6126 67.9635 74.4043 67.2656C73.2064 66.5573 72.2689 65.5312 71.5918 64.1875C70.9147 62.8333 70.5762 61.1979 70.5762 59.2812V44H76.2324V58.4062C76.2324 59.9271 76.6491 61.1354 77.4824 62.0313C78.3158 62.9271 79.4095 63.375 80.7637 63.375C81.597 63.375 82.4043 63.1719 83.1855 62.7656C83.9668 62.3594 84.6074 61.7552 85.1074 60.9531C85.6178 60.1406 85.873 59.125 85.873 57.9062ZM97.3457 68V44H103.002V68H97.3457ZM100.189 40.5938C99.2936 40.5938 98.5228 40.2969 97.877 39.7031C97.2311 39.099 96.9082 38.375 96.9082 37.5312C96.9082 36.6771 97.2311 35.9531 97.877 35.3594C98.5228 34.7552 99.2936 34.4531 100.189 34.4531C101.096 34.4531 101.867 34.7552 102.502 35.3594C103.148 35.9531 103.471 36.6771 103.471 37.5312C103.471 38.375 103.148 39.099 102.502 39.7031C101.867 40.2969 101.096 40.5938 100.189 40.5938ZM114.475 36V68H108.818V36H114.475ZM132.275 44V48.375H118.479V44H132.275ZM121.885 38.25H127.541V60.7812C127.541 61.5417 127.656 62.125 127.885 62.5312C128.124 62.9271 128.437 63.1979 128.822 63.3437C129.208 63.4896 129.635 63.5625 130.104 63.5625C130.458 63.5625 130.781 63.5365 131.072 63.4844C131.374 63.4323 131.604 63.3854 131.76 63.3437L132.713 67.7656C132.411 67.8698 131.979 67.9844 131.416 68.1094C130.864 68.2344 130.187 68.3073 129.385 68.3281C127.968 68.3698 126.692 68.1562 125.557 67.6875C124.421 67.2083 123.52 66.4687 122.854 65.4687C122.197 64.4687 121.874 63.2187 121.885 61.7187V38.25ZM148.17 68V36H168.67V40.8594H153.967V49.5469H167.264V54.4062H153.967V68H148.17ZM182.408 68.4688C180.064 68.4688 178.033 67.9531 176.314 66.9219C174.596 65.8906 173.262 64.4479 172.314 62.5937C171.377 60.7396 170.908 58.5729 170.908 56.0937C170.908 53.6146 171.377 51.4427 172.314 49.5781C173.262 47.7135 174.596 46.2656 176.314 45.2344C178.033 44.2031 180.064 43.6875 182.408 43.6875C184.752 43.6875 186.783 44.2031 188.502 45.2344C190.221 46.2656 191.549 47.7135 192.486 49.5781C193.434 51.4427 193.908 53.6146 193.908 56.0937C193.908 58.5729 193.434 60.7396 192.486 62.5937C191.549 64.4479 190.221 65.8906 188.502 66.9219C186.783 67.9531 184.752 68.4688 182.408 68.4688ZM182.439 63.9375C183.71 63.9375 184.773 63.5885 185.627 62.8906C186.481 62.1823 187.117 61.2344 187.533 60.0469C187.96 58.8594 188.174 57.5365 188.174 56.0781C188.174 54.6094 187.96 53.2812 187.533 52.0937C187.117 50.8958 186.481 49.9427 185.627 49.2344C184.773 48.526 183.71 48.1719 182.439 48.1719C181.137 48.1719 180.054 48.526 179.189 49.2344C178.335 49.9427 177.695 50.8958 177.268 52.0937C176.851 53.2812 176.643 54.6094 176.643 56.0781C176.643 57.5365 176.851 58.8594 177.268 60.0469C177.695 61.2344 178.335 62.1823 179.189 62.8906C180.054 63.5885 181.137 63.9375 182.439 63.9375ZM198.709 68V44H204.193V48H204.443C204.881 46.6146 205.631 45.5469 206.693 44.7969C207.766 44.0365 208.99 43.6562 210.365 43.6562C210.678 43.6562 211.027 43.6719 211.412 43.7031C211.808 43.724 212.136 43.7604 212.396 43.8125V49.0156C212.157 48.9323 211.777 48.8594 211.256 48.7969C210.745 48.724 210.251 48.6875 209.771 48.6875C208.74 48.6875 207.813 48.9115 206.99 49.3594C206.178 49.7969 205.537 50.4062 205.068 51.1875C204.6 51.9687 204.365 52.8698 204.365 53.8906V68H198.709Z" fill="url(#paint0_linear_40_774)"/>
<g filter="url(#filter0_f_40_774)">
<path d="M29 63.4626V26.7735H43.1549C45.827 26.7735 48.0478 27.1915 49.8171 28.0276C51.5985 28.8516 52.9286 29.9802 53.8072 31.4134C54.6979 32.8466 55.1433 34.4708 55.1433 36.2862C55.1433 37.7791 54.8544 39.057 54.2767 40.1199C53.6989 41.1709 52.9226 42.0248 51.9476 42.6817C50.9726 43.3385 49.8833 43.8103 48.6797 44.0969V44.4552C49.9917 44.5269 51.2495 44.927 52.4531 45.6555C53.6688 46.3721 54.6618 47.3872 55.4322 48.701C56.2025 50.0147 56.5877 51.6031 56.5877 53.4662C56.5877 55.3652 56.1243 57.073 55.1975 58.5898C54.2706 60.0946 52.8744 61.283 51.0088 62.1548C49.1431 63.0266 46.796 63.4626 43.9674 63.4626H29ZM35.6983 57.909H42.9022C45.3335 57.909 47.0849 57.4492 48.1561 56.5296C49.2394 55.5981 49.781 54.4038 49.781 52.9467C49.781 51.8599 49.5102 50.8806 48.9686 50.0087C48.4269 49.1249 47.6566 48.4322 46.6576 47.9306C45.6585 47.4171 44.4669 47.1603 43.0827 47.1603H35.6983V57.909ZM35.6983 42.3771H42.3244C43.4799 42.3771 44.5211 42.1681 45.4479 41.7501C46.3747 41.3202 47.1029 40.717 47.6325 39.9407C48.1742 39.1525 48.445 38.2209 48.445 37.1461C48.445 35.7249 47.9394 34.5544 46.9284 33.6348C45.9293 32.7152 44.4428 32.2554 42.4689 32.2554H35.6983V42.3771Z" fill="url(#paint1_linear_40_774)"/>
<path d="M79.8016 51.8898V35.9458H86.3374V63.4626H80.0002V58.5719H79.7113C79.0854 60.1125 78.0563 61.3725 76.6239 62.3519C75.2036 63.3312 73.4523 63.8209 71.37 63.8209C69.5525 63.8209 67.9456 63.4208 66.5494 62.6206C65.1652 61.8085 64.0819 60.6321 63.2995 59.0914C62.5172 57.5388 62.126 55.6638 62.126 53.4662V35.9458H68.6618V52.463C68.6618 54.2067 69.1433 55.5921 70.1062 56.6192C71.0691 57.6463 72.3329 58.1599 73.8977 58.1599C74.8606 58.1599 75.7934 57.927 76.6962 57.4612C77.5989 56.9954 78.3391 56.3027 78.9169 55.3831C79.5067 54.4515 79.8016 53.2871 79.8016 51.8898Z" fill="url(#paint2_linear_40_774)"/>
<path d="M93.0583 63.4626V35.9458H99.5941V63.4626H93.0583ZM96.3443 32.0404C95.3091 32.0404 94.4184 31.7 93.6721 31.0193C92.9259 30.3266 92.5528 29.4966 92.5528 28.5292C92.5528 27.5498 92.9259 26.7198 93.6721 26.039C94.4184 25.3463 95.3091 25 96.3443 25C97.3914 25 98.2821 25.3463 99.0164 26.039C99.7626 26.7198 100.136 27.5498 100.136 28.5292C100.136 29.4966 99.7626 30.3266 99.0164 31.0193C98.2821 31.7 97.3914 32.0404 96.3443 32.0404Z" fill="url(#paint3_linear_40_774)"/>
<path d="M112.851 26.7735V63.4626H106.315V26.7735H112.851Z" fill="url(#paint4_linear_40_774)"/>
<path d="M133.42 35.9458V40.9619H117.477V35.9458H133.42ZM121.413 29.3532H127.949V55.186C127.949 56.0579 128.082 56.7267 128.346 57.1925C128.623 57.6463 128.984 57.9568 129.43 58.124C129.875 58.2912 130.368 58.3748 130.91 58.3748C131.319 58.3748 131.692 58.345 132.029 58.2853C132.379 58.2255 132.643 58.1718 132.824 58.124L133.925 63.1938C133.576 63.3133 133.077 63.4446 132.427 63.588C131.789 63.7313 131.006 63.8149 130.08 63.8388C128.443 63.8865 126.968 63.6417 125.656 63.1043C124.344 62.5549 123.303 61.7069 122.533 60.5604C121.774 59.4139 121.401 57.9807 121.413 56.2609V29.3532Z" fill="url(#paint5_linear_40_774)"/>
<path d="M151.786 63.4626V26.7735H175.474V32.345H158.484V42.3055H173.849V47.8769H158.484V63.4626H151.786Z" fill="url(#paint6_linear_40_774)"/>
<path d="M191.348 64C188.64 64 186.293 63.4088 184.307 62.2265C182.321 61.0441 180.78 59.39 179.685 57.2641C178.602 55.1383 178.06 52.6541 178.06 49.8117C178.06 46.9692 178.602 44.4791 179.685 42.3413C180.78 40.2035 182.321 38.5434 184.307 37.361C186.293 36.1787 188.64 35.5875 191.348 35.5875C194.057 35.5875 196.404 36.1787 198.39 37.361C200.376 38.5434 201.91 40.2035 202.994 42.3413C204.089 44.4791 204.637 46.9692 204.637 49.8117C204.637 52.6541 204.089 55.1383 202.994 57.2641C201.91 59.39 200.376 61.0441 198.39 62.2265C196.404 63.4088 194.057 64 191.348 64ZM191.385 58.8048C192.853 58.8048 194.081 58.4047 195.068 57.6045C196.055 56.7924 196.789 55.7056 197.27 54.3441C197.764 52.9825 198.011 51.4658 198.011 49.7938C198.011 48.1098 197.764 46.587 197.27 45.2255C196.789 43.8521 196.055 42.7593 195.068 41.9472C194.081 41.135 192.853 40.729 191.385 40.729C189.88 40.729 188.628 41.135 187.629 41.9472C186.642 42.7593 185.902 43.8521 185.408 45.2255C184.927 46.587 184.686 48.1098 184.686 49.7938C184.686 51.4658 184.927 52.9825 185.408 54.3441C185.902 55.7056 186.642 56.7924 187.629 57.6045C188.628 58.4047 189.88 58.8048 191.385 58.8048Z" fill="url(#paint7_linear_40_774)"/>
<path d="M210.184 63.4626V35.9458H216.521V40.5319H216.81C217.316 38.9435 218.182 37.7193 219.41 36.8594C220.65 35.9876 222.064 35.5517 223.653 35.5517C224.014 35.5517 224.417 35.5696 224.863 35.6054C225.32 35.6293 225.699 35.6711 226 35.7308V41.6964C225.723 41.6008 225.284 41.5172 224.682 41.4456C224.092 41.362 223.52 41.3202 222.967 41.3202C221.775 41.3202 220.704 41.5769 219.753 42.0905C218.814 42.5921 218.074 43.2908 217.532 44.1865C216.991 45.0822 216.72 46.1153 216.72 47.2857V63.4626H210.184Z" fill="url(#paint8_linear_40_774)"/>
</g>
<g opacity="0.2" filter="url(#filter1_f_40_774)">
<path d="M19 64.3661V21.0919H34.592C37.5354 21.0919 39.9816 21.5849 41.9306 22.571C43.8928 23.5429 45.3579 24.8741 46.3257 26.5645C47.3069 28.2549 47.7974 30.1707 47.7974 32.3119C47.7974 34.0727 47.4792 35.58 46.8428 36.8337C46.2064 38.0733 45.3512 39.0805 44.2773 39.8553C43.2034 40.6301 42.0035 41.1865 40.6776 41.5246V41.9472C42.1228 42.0317 43.5083 42.5036 44.8342 43.3629C46.1733 44.2081 47.2671 45.4055 48.1156 46.955C48.9642 48.5045 49.3885 50.378 49.3885 52.5756C49.3885 54.8153 48.878 56.8297 47.8571 58.6187C46.8362 60.3937 45.2982 61.7953 43.2431 62.8236C41.1881 63.8519 38.6027 64.3661 35.4869 64.3661H19ZM26.3783 57.8158H34.3136C36.9918 57.8158 38.9209 57.2735 40.1009 56.1888C41.2941 55.09 41.8908 53.6814 41.8908 51.9628C41.8908 50.6809 41.5925 49.5258 40.9958 48.4975C40.3992 47.4551 39.5507 46.638 38.4502 46.0464C37.3497 45.4407 36.0372 45.1378 34.5124 45.1378H26.3783V57.8158ZM26.3783 39.4961H33.6771C34.95 39.4961 36.0968 39.2496 37.1177 38.7565C38.1386 38.2494 38.9408 37.538 39.5241 36.6224C40.1208 35.6927 40.4191 34.5939 40.4191 33.3261C40.4191 31.6498 39.8622 30.2693 38.7485 29.1847C37.6481 28.1 36.0106 27.5576 33.8362 27.5576H26.3783V39.4961Z" fill="url(#paint9_linear_40_774)"/>
<path d="M74.9591 50.7161V31.9104H82.1585V64.3661H75.1779V58.5976H74.8597C74.1702 60.4148 73.0366 61.9009 71.4589 63.056C69.8944 64.2111 67.9653 64.7887 65.6715 64.7887C63.6695 64.7887 61.8995 64.3168 60.3615 63.373C58.8368 62.4151 57.6435 61.0276 56.7817 59.2104C55.9199 57.3791 55.489 55.1675 55.489 52.5756V31.9104H62.6884V51.3923C62.6884 53.4489 63.2187 55.083 64.2794 56.2944C65.3401 57.5059 66.7322 58.1116 68.4558 58.1116C69.5165 58.1116 70.544 57.8369 71.5384 57.2876C72.5328 56.7382 73.3482 55.9211 73.9846 54.8365C74.6343 53.7377 74.9591 52.3643 74.9591 50.7161Z" fill="url(#paint10_linear_40_774)"/>
<path d="M89.5617 64.3661V31.9104H96.761V64.3661H89.5617ZM93.1812 27.3041C92.041 27.3041 91.0599 26.9026 90.2379 26.0997C89.4158 25.2827 89.0048 24.3036 89.0048 23.1626C89.0048 22.0075 89.4158 21.0285 90.2379 20.2255C91.0599 19.4085 92.041 19 93.1812 19C94.3347 19 95.3158 19.4085 96.1246 20.2255C96.9466 21.0285 97.3577 22.0075 97.3577 23.1626C97.3577 24.3036 96.9466 25.2827 96.1246 26.0997C95.3158 26.9026 94.3347 27.3041 93.1812 27.3041Z" fill="url(#paint11_linear_40_774)"/>
<path d="M111.364 21.0919V64.3661H104.164V21.0919H111.364Z" fill="url(#paint12_linear_40_774)"/>
<path d="M134.021 31.9104V37.8268H116.46V31.9104H134.021ZM120.795 24.1346H127.995V54.604C127.995 55.6324 128.141 56.4212 128.432 56.9706C128.737 57.5059 129.135 57.8721 129.626 58.0694C130.116 58.2666 130.66 58.3652 131.256 58.3652C131.707 58.3652 132.118 58.33 132.489 58.2595C132.874 58.1891 133.166 58.1257 133.364 58.0694L134.578 64.0492C134.193 64.19 133.643 64.345 132.927 64.514C132.224 64.6831 131.362 64.7817 130.341 64.8098C128.538 64.8662 126.914 64.5774 125.469 63.9435C124.024 63.2955 122.877 62.2954 122.028 60.943C121.193 59.5907 120.782 57.9003 120.795 55.8718V24.1346Z" fill="url(#paint13_linear_40_774)"/>
<path d="M154.251 64.3661V21.0919H180.344V27.6633H161.63V39.4116H178.554V45.983H161.63V64.3661H154.251Z" fill="url(#paint14_linear_40_774)"/>
<path d="M197.83 65C194.847 65 192.262 64.3027 190.074 62.9081C187.887 61.5135 186.19 59.5625 184.983 57.0551C183.79 54.5477 183.193 51.6177 183.193 48.265C183.193 44.9124 183.79 41.9753 184.983 39.4538C186.19 36.9323 187.887 34.9743 190.074 33.5797C192.262 32.1851 194.847 31.4878 197.83 31.4878C200.814 31.4878 203.399 32.1851 205.587 33.5797C207.774 34.9743 209.465 36.9323 210.658 39.4538C211.865 41.9753 212.468 44.9124 212.468 48.265C212.468 51.6177 211.865 54.5477 210.658 57.0551C209.465 59.5625 207.774 61.5135 205.587 62.9081C203.399 64.3027 200.814 65 197.83 65ZM197.87 58.8723C199.488 58.8723 200.84 58.4004 201.927 57.4566C203.015 56.4987 203.823 55.2168 204.354 53.6109C204.897 52.0051 205.169 50.216 205.169 48.2439C205.169 46.2577 204.897 44.4616 204.354 42.8558C203.823 41.2358 203.015 39.9469 201.927 38.989C200.84 38.0311 199.488 37.5521 197.87 37.5521C196.213 37.5521 194.834 38.0311 193.734 38.989C192.646 39.9469 191.831 41.2358 191.287 42.8558C190.757 44.4616 190.492 46.2577 190.492 48.2439C190.492 50.216 190.757 52.0051 191.287 53.6109C191.831 55.2168 192.646 56.4987 193.734 57.4566C194.834 58.4004 196.213 58.8723 197.87 58.8723Z" fill="url(#paint15_linear_40_774)"/>
<path d="M218.578 64.3661V31.9104H225.559V37.3197H225.877C226.434 35.4462 227.389 34.0023 228.741 32.9881C230.107 31.9597 231.664 31.4456 233.415 31.4456C233.812 31.4456 234.257 31.4667 234.747 31.509C235.251 31.5371 235.669 31.5864 236 31.6569V38.6932C235.695 38.5805 235.211 38.4819 234.548 38.3973C233.899 38.2987 233.269 38.2494 232.659 38.2494C231.346 38.2494 230.166 38.5523 229.119 39.158C228.085 39.7497 227.269 40.5737 226.673 41.6302C226.076 42.6867 225.778 43.9052 225.778 45.2857V64.3661H218.578Z" fill="url(#paint16_linear_40_774)"/>
</g>
<defs>
<filter id="filter0_f_40_774" x="10" y="6" width="235" height="77" filterUnits="userSpaceOnUse" color-interpolation-filters="sRGB">
<feFlood flood-opacity="0" result="BackgroundImageFix"/>
<feBlend mode="normal" in="SourceGraphic" in2="BackgroundImageFix" result="shape"/>
<feGaussianBlur stdDeviation="9.5" result="effect1_foregroundBlur_40_774"/>
</filter>
<filter id="filter1_f_40_774" x="0" y="0" width="255" height="84" filterUnits="userSpaceOnUse" color-interpolation-filters="sRGB">
<feFlood flood-opacity="0" result="BackgroundImageFix"/>
<feBlend mode="normal" in="SourceGraphic" in2="BackgroundImageFix" result="shape"/>
<feGaussianBlur stdDeviation="9.5" result="effect1_foregroundBlur_40_774"/>
</filter>
<linearGradient id="paint0_linear_40_774" x1="213.5" y1="51.5" x2="38.5" y2="51.5" gradientUnits="userSpaceOnUse">
<stop stop-color="#D9D9D9"/>
<stop offset="1" stop-color="#B574F7"/>
</linearGradient>
<linearGradient id="paint1_linear_40_774" x1="126.168" y1="72.5" x2="126.168" y2="11" gradientUnits="userSpaceOnUse">
<stop stop-color="white" stop-opacity="0"/>
<stop offset="1" stop-color="#C790FF"/>
</linearGradient>
<linearGradient id="paint2_linear_40_774" x1="126.168" y1="72.5" x2="126.168" y2="11" gradientUnits="userSpaceOnUse">
<stop stop-color="white" stop-opacity="0"/>
<stop offset="1" stop-color="#C790FF"/>
</linearGradient>
<linearGradient id="paint3_linear_40_774" x1="126.168" y1="72.5" x2="126.168" y2="11" gradientUnits="userSpaceOnUse">
<stop stop-color="white" stop-opacity="0"/>
<stop offset="1" stop-color="#C790FF"/>
</linearGradient>
<linearGradient id="paint4_linear_40_774" x1="126.168" y1="72.5" x2="126.168" y2="11" gradientUnits="userSpaceOnUse">
<stop stop-color="white" stop-opacity="0"/>
<stop offset="1" stop-color="#C790FF"/>
</linearGradient>
<linearGradient id="paint5_linear_40_774" x1="126.168" y1="72.5" x2="126.168" y2="11" gradientUnits="userSpaceOnUse">
<stop stop-color="white" stop-opacity="0"/>
<stop offset="1" stop-color="#C790FF"/>
</linearGradient>
<linearGradient id="paint6_linear_40_774" x1="126.168" y1="72.5" x2="126.168" y2="11" gradientUnits="userSpaceOnUse">
<stop stop-color="white" stop-opacity="0"/>
<stop offset="1" stop-color="#C790FF"/>
</linearGradient>
<linearGradient id="paint7_linear_40_774" x1="126.168" y1="72.5" x2="126.168" y2="11" gradientUnits="userSpaceOnUse">
<stop stop-color="white" stop-opacity="0"/>
<stop offset="1" stop-color="#C790FF"/>
</linearGradient>
<linearGradient id="paint8_linear_40_774" x1="126.168" y1="72.5" x2="126.168" y2="11" gradientUnits="userSpaceOnUse">
<stop stop-color="white" stop-opacity="0"/>
<stop offset="1" stop-color="#C790FF"/>
</linearGradient>
<linearGradient id="paint9_linear_40_774" x1="126.033" y1="75.0256" x2="126.033" y2="2.48718" gradientUnits="userSpaceOnUse">
<stop stop-color="white" stop-opacity="0"/>
<stop offset="1" stop-color="#C790FF"/>
</linearGradient>
<linearGradient id="paint10_linear_40_774" x1="126.033" y1="75.0256" x2="126.033" y2="2.48718" gradientUnits="userSpaceOnUse">
<stop stop-color="white" stop-opacity="0"/>
<stop offset="1" stop-color="#C790FF"/>
</linearGradient>
<linearGradient id="paint11_linear_40_774" x1="126.033" y1="75.0256" x2="126.033" y2="2.48718" gradientUnits="userSpaceOnUse">
<stop stop-color="white" stop-opacity="0"/>
<stop offset="1" stop-color="#C790FF"/>
</linearGradient>
<linearGradient id="paint12_linear_40_774" x1="126.033" y1="75.0256" x2="126.033" y2="2.48718" gradientUnits="userSpaceOnUse">
<stop stop-color="white" stop-opacity="0"/>
<stop offset="1" stop-color="#C790FF"/>
</linearGradient>
<linearGradient id="paint13_linear_40_774" x1="126.033" y1="75.0256" x2="126.033" y2="2.48718" gradientUnits="userSpaceOnUse">
<stop stop-color="white" stop-opacity="0"/>
<stop offset="1" stop-color="#C790FF"/>
</linearGradient>
<linearGradient id="paint14_linear_40_774" x1="126.033" y1="75.0256" x2="126.033" y2="2.48718" gradientUnits="userSpaceOnUse">
<stop stop-color="white" stop-opacity="0"/>
<stop offset="1" stop-color="#C790FF"/>
</linearGradient>
<linearGradient id="paint15_linear_40_774" x1="126.033" y1="75.0256" x2="126.033" y2="2.48718" gradientUnits="userSpaceOnUse">
<stop stop-color="white" stop-opacity="0"/>
<stop offset="1" stop-color="#C790FF"/>
</linearGradient>
<linearGradient id="paint16_linear_40_774" x1="126.033" y1="75.0256" x2="126.033" y2="2.48718" gradientUnits="userSpaceOnUse">
<stop stop-color="white" stop-opacity="0"/>
<stop offset="1" stop-color="#C790FF"/>
</linearGradient>
</defs>
</svg>
