<svg width="1440" height="539" viewBox="0 0 1440 539" fill="none" xmlns="http://www.w3.org/2000/svg">
<g clip-path="url(#clip0_637_2636)">
<g opacity="0.6">
<rect opacity="0.3" x="5.2002" y="5" width="34.7" height="34.7" fill="#B574F7" fill-opacity="0.07"/>
<rect opacity="0.3" x="42.9004" y="5" width="34.7" height="34.7" fill="#B574F7" fill-opacity="0.07"/>
<rect opacity="0.3" x="80.6001" y="5" width="34.7" height="34.7" fill="#B574F7" fill-opacity="0.07"/>
<rect opacity="0.3" x="118.3" y="5" width="34.7" height="34.7" fill="#B574F7" fill-opacity="0.07"/>
<rect opacity="0.3" x="156" y="5" width="34.7" height="34.7" fill="#B574F7" fill-opacity="0.07"/>
<rect opacity="0.3" x="193.7" y="5" width="34.7" height="34.7" fill="#B574F7" fill-opacity="0.07"/>
<rect opacity="0.3" x="231.4" y="5" width="34.7" height="34.7" fill="#B574F7" fill-opacity="0.07"/>
<rect opacity="0.3" x="269.1" y="5" width="34.7" height="34.7" fill="#B574F7" fill-opacity="0.07"/>
<rect opacity="0.3" x="306.8" y="5" width="34.7" height="34.7" fill="#B574F7" fill-opacity="0.07"/>
<rect opacity="0.3" x="344.5" y="5" width="34.7" height="34.7" fill="#B574F7" fill-opacity="0.07"/>
<rect opacity="0.3" x="382.2" y="5" width="34.7" height="34.7" fill="#B574F7" fill-opacity="0.07"/>
<rect opacity="0.3" x="419.9" y="5" width="34.7" height="34.7" fill="#B574F7" fill-opacity="0.07"/>
<rect opacity="0.3" x="457.6" y="5" width="34.7" height="34.7" fill="#B574F7" fill-opacity="0.07"/>
<rect opacity="0.3" x="495.3" y="5" width="34.7" height="34.7" fill="#B574F7" fill-opacity="0.07"/>
<rect opacity="0.3" x="533" y="5" width="34.7" height="34.7" fill="#B574F7" fill-opacity="0.07"/>
<rect opacity="0.3" x="570.7" y="5" width="34.7" height="34.7" fill="#B574F7" fill-opacity="0.07"/>
<rect opacity="0.3" x="608.4" y="5" width="34.7" height="34.7" fill="#B574F7" fill-opacity="0.07"/>
<rect opacity="0.3" x="646.1" y="5" width="34.7" height="34.7" fill="#B574F7" fill-opacity="0.07"/>
<rect opacity="0.3" x="683.8" y="5" width="34.7" height="34.7" fill="#B574F7" fill-opacity="0.07"/>
<rect opacity="0.3" x="721.5" y="5" width="34.7" height="34.7" fill="#B574F7" fill-opacity="0.07"/>
<rect opacity="0.3" x="759.2" y="5" width="34.7" height="34.7" fill="#B574F7" fill-opacity="0.07"/>
<rect opacity="0.3" x="796.9" y="5" width="34.7" height="34.7" fill="#B574F7" fill-opacity="0.07"/>
<rect opacity="0.3" x="834.601" y="5" width="34.7" height="34.7" fill="#B574F7" fill-opacity="0.07"/>
<rect opacity="0.3" x="872.3" y="5" width="34.7" height="34.7" fill="#B574F7" fill-opacity="0.07"/>
<rect opacity="0.3" x="910" y="5" width="34.7" height="34.7" fill="#B574F7" fill-opacity="0.07"/>
<rect opacity="0.3" x="947.7" y="5" width="34.7" height="34.7" fill="#B574F7" fill-opacity="0.07"/>
<rect opacity="0.3" x="985.4" y="5" width="34.7" height="34.7" fill="#B574F7" fill-opacity="0.07"/>
<rect opacity="0.3" x="1023.1" y="5" width="34.7" height="34.7" fill="#B574F7" fill-opacity="0.07"/>
<rect opacity="0.3" x="1060.8" y="5" width="34.7" height="34.7" fill="#B574F7" fill-opacity="0.07"/>
<rect opacity="0.3" x="1098.5" y="5" width="34.7" height="34.7" fill="#B574F7" fill-opacity="0.07"/>
<rect opacity="0.3" x="1136.2" y="5" width="34.7" height="34.7" fill="#B574F7" fill-opacity="0.07"/>
<rect opacity="0.3" x="1173.9" y="5" width="34.7" height="34.7" fill="#B574F7" fill-opacity="0.07"/>
<rect opacity="0.3" x="1211.6" y="5" width="34.7" height="34.7" fill="#B574F7" fill-opacity="0.07"/>
<rect opacity="0.3" x="1249.3" y="5" width="34.7" height="34.7" fill="#B574F7" fill-opacity="0.07"/>
<rect opacity="0.3" x="1287" y="5" width="34.7" height="34.7" fill="#B574F7" fill-opacity="0.07"/>
<rect opacity="0.3" x="1324.7" y="5" width="34.7" height="34.7" fill="#B574F7" fill-opacity="0.07"/>
<rect opacity="0.3" x="1362.4" y="5" width="34.7" height="34.7" fill="#B574F7" fill-opacity="0.07"/>
<rect opacity="0.3" x="1400.1" y="5" width="34.7" height="34.7" fill="#B574F7" fill-opacity="0.07"/>
<rect opacity="0.3" x="5.2002" y="42.7002" width="34.7" height="34.7" fill="#B574F7" fill-opacity="0.07"/>
<rect opacity="0.3" x="42.9004" y="42.7002" width="34.7" height="34.7" fill="#B574F7" fill-opacity="0.07"/>
<rect opacity="0.6" x="80.6001" y="42.7002" width="34.7" height="34.7" fill="#B574F7" fill-opacity="0.07"/>
<rect opacity="0.3" x="118.3" y="42.7002" width="34.7" height="34.7" fill="#B574F7" fill-opacity="0.07"/>
<rect opacity="0.3" x="156" y="42.7002" width="34.7" height="34.7" fill="#B574F7" fill-opacity="0.07"/>
<rect opacity="0.3" x="193.7" y="42.7002" width="34.7" height="34.7" fill="#B574F7" fill-opacity="0.07"/>
<rect opacity="0.3" x="231.4" y="42.7002" width="34.7" height="34.7" fill="#B574F7" fill-opacity="0.07"/>
<rect opacity="0.3" x="269.1" y="42.7002" width="34.7" height="34.7" fill="#B574F7" fill-opacity="0.07"/>
<rect opacity="0.3" x="306.8" y="42.7002" width="34.7" height="34.7" fill="#B574F7" fill-opacity="0.07"/>
<rect opacity="0.3" x="344.5" y="42.7002" width="34.7" height="34.7" fill="#B574F7" fill-opacity="0.07"/>
<rect opacity="0.3" x="382.2" y="42.7002" width="34.7" height="34.7" fill="#B574F7" fill-opacity="0.07"/>
<rect opacity="0.3" x="419.9" y="42.7002" width="34.7" height="34.7" fill="#B574F7" fill-opacity="0.07"/>
<rect opacity="0.3" x="457.6" y="42.7002" width="34.7" height="34.7" fill="#B574F7" fill-opacity="0.07"/>
<rect opacity="0.3" x="495.3" y="42.7002" width="34.7" height="34.7" fill="#B574F7" fill-opacity="0.07"/>
<rect opacity="0.3" x="533" y="42.7002" width="34.7" height="34.7" fill="#B574F7" fill-opacity="0.07"/>
<rect opacity="0.3" x="570.7" y="42.7002" width="34.7" height="34.7" fill="#B574F7" fill-opacity="0.07"/>
<rect opacity="0.3" x="608.4" y="42.7002" width="34.7" height="34.7" fill="#B574F7" fill-opacity="0.07"/>
<rect opacity="0.3" x="646.1" y="42.7002" width="34.7" height="34.7" fill="#B574F7" fill-opacity="0.07"/>
<rect opacity="0.3" x="683.8" y="42.7002" width="34.7" height="34.7" fill="#B574F7" fill-opacity="0.07"/>
<rect opacity="0.3" x="721.5" y="42.7002" width="34.7" height="34.7" fill="#B574F7" fill-opacity="0.07"/>
<rect opacity="0.3" x="759.2" y="42.7002" width="34.7" height="34.7" fill="#B574F7" fill-opacity="0.07"/>
<rect opacity="0.3" x="796.9" y="42.7002" width="34.7" height="34.7" fill="#B574F7" fill-opacity="0.07"/>
<rect opacity="0.3" x="834.601" y="42.7002" width="34.7" height="34.7" fill="#B574F7" fill-opacity="0.07"/>
<rect opacity="0.3" x="872.3" y="42.7002" width="34.7" height="34.7" fill="#B574F7" fill-opacity="0.07"/>
<rect opacity="0.3" x="910" y="42.7002" width="34.7" height="34.7" fill="#B574F7" fill-opacity="0.07"/>
<rect opacity="0.3" x="947.7" y="42.7002" width="34.7" height="34.7" fill="#B574F7" fill-opacity="0.07"/>
<rect opacity="0.3" x="985.4" y="42.7002" width="34.7" height="34.7" fill="#B574F7" fill-opacity="0.07"/>
<rect opacity="0.3" x="1023.1" y="42.7002" width="34.7" height="34.7" fill="#B574F7" fill-opacity="0.07"/>
<rect opacity="0.3" x="1060.8" y="42.7002" width="34.7" height="34.7" fill="#B574F7" fill-opacity="0.07"/>
<rect opacity="0.3" x="1098.5" y="42.7002" width="34.7" height="34.7" fill="#B574F7" fill-opacity="0.07"/>
<rect opacity="0.3" x="1136.2" y="42.7002" width="34.7" height="34.7" fill="#B574F7" fill-opacity="0.07"/>
<rect opacity="0.3" x="1173.9" y="42.7002" width="34.7" height="34.7" fill="#B574F7" fill-opacity="0.07"/>
<rect opacity="0.3" x="1211.6" y="42.7002" width="34.7" height="34.7" fill="#B574F7" fill-opacity="0.07"/>
<rect opacity="0.3" x="1249.3" y="42.7002" width="34.7" height="34.7" fill="#B574F7" fill-opacity="0.07"/>
<rect opacity="0.3" x="1287" y="42.7002" width="34.7" height="34.7" fill="#B574F7" fill-opacity="0.07"/>
<rect opacity="0.3" x="1324.7" y="42.7002" width="34.7" height="34.7" fill="#B574F7" fill-opacity="0.07"/>
<rect opacity="0.3" x="1362.4" y="42.7002" width="34.7" height="34.7" fill="#B574F7" fill-opacity="0.07"/>
<rect opacity="0.3" x="1400.1" y="42.7002" width="34.7" height="34.7" fill="#B574F7" fill-opacity="0.07"/>
<rect opacity="0.3" x="5.2002" y="80.3999" width="34.7" height="34.7" fill="#B574F7" fill-opacity="0.07"/>
<rect opacity="0.3" x="42.9004" y="80.3999" width="34.7" height="34.7" fill="#B574F7" fill-opacity="0.07"/>
<rect opacity="0.3" x="80.6001" y="80.3999" width="34.7" height="34.7" fill="#B574F7" fill-opacity="0.07"/>
<rect opacity="0.3" x="118.3" y="80.3999" width="34.7" height="34.7" fill="#B574F7" fill-opacity="0.07"/>
<rect opacity="0.3" x="156" y="80.3999" width="34.7" height="34.7" fill="#B574F7" fill-opacity="0.07"/>
<rect opacity="0.3" x="193.7" y="80.3999" width="34.7" height="34.7" fill="#B574F7" fill-opacity="0.07"/>
<rect opacity="0.3" x="231.4" y="80.3999" width="34.7" height="34.7" fill="#B574F7" fill-opacity="0.07"/>
<rect opacity="0.3" x="269.1" y="80.3999" width="34.7" height="34.7" fill="#B574F7" fill-opacity="0.07"/>
<rect opacity="0.3" x="306.8" y="80.3999" width="34.7" height="34.7" fill="#B574F7" fill-opacity="0.07"/>
<rect opacity="0.3" x="344.5" y="80.3999" width="34.7" height="34.7" fill="#B574F7" fill-opacity="0.07"/>
<rect opacity="0.3" x="382.2" y="80.3999" width="34.7" height="34.7" fill="#B574F7" fill-opacity="0.07"/>
<rect opacity="0.3" x="419.9" y="80.3999" width="34.7" height="34.7" fill="#B574F7" fill-opacity="0.07"/>
<rect opacity="0.3" x="457.6" y="80.3999" width="34.7" height="34.7" fill="#B574F7" fill-opacity="0.07"/>
<rect opacity="0.3" x="495.3" y="80.3999" width="34.7" height="34.7" fill="#B574F7" fill-opacity="0.07"/>
<rect opacity="0.3" x="533" y="80.3999" width="34.7" height="34.7" fill="#B574F7" fill-opacity="0.07"/>
<rect opacity="0.8" x="570.7" y="80.3999" width="34.7" height="34.7" fill="#B574F7" fill-opacity="0.07"/>
<rect opacity="0.3" x="608.4" y="80.3999" width="34.7" height="34.7" fill="#B574F7" fill-opacity="0.07"/>
<rect opacity="0.3" x="646.1" y="80.3999" width="34.7" height="34.7" fill="#B574F7" fill-opacity="0.07"/>
<rect opacity="0.3" x="683.8" y="80.3999" width="34.7" height="34.7" fill="#B574F7" fill-opacity="0.07"/>
<rect opacity="0.3" x="721.5" y="80.3999" width="34.7" height="34.7" fill="#B574F7" fill-opacity="0.07"/>
<rect opacity="0.3" x="759.2" y="80.3999" width="34.7" height="34.7" fill="#B574F7" fill-opacity="0.07"/>
<rect opacity="0.3" x="796.9" y="80.3999" width="34.7" height="34.7" fill="#B574F7" fill-opacity="0.07"/>
<rect opacity="0.3" x="834.601" y="80.3999" width="34.7" height="34.7" fill="#B574F7" fill-opacity="0.07"/>
<rect opacity="0.3" x="872.3" y="80.3999" width="34.7" height="34.7" fill="#B574F7" fill-opacity="0.07"/>
<rect opacity="0.9" x="910" y="80.3999" width="34.7" height="34.7" fill="#B574F7" fill-opacity="0.07"/>
<rect opacity="0.3" x="947.7" y="80.3999" width="34.7" height="34.7" fill="#B574F7" fill-opacity="0.07"/>
<rect opacity="0.8" x="985.4" y="80.3999" width="34.7" height="34.7" fill="#B574F7" fill-opacity="0.07"/>
<rect opacity="0.3" x="1023.1" y="80.3999" width="34.7" height="34.7" fill="#B574F7" fill-opacity="0.07"/>
<rect opacity="0.3" x="1060.8" y="80.3999" width="34.7" height="34.7" fill="#B574F7" fill-opacity="0.07"/>
<rect opacity="0.3" x="1098.5" y="80.3999" width="34.7" height="34.7" fill="#B574F7" fill-opacity="0.07"/>
<rect opacity="0.9" x="1136.2" y="80.3999" width="34.7" height="34.7" fill="#B574F7" fill-opacity="0.07"/>
<rect opacity="0.3" x="1173.9" y="80.3999" width="34.7" height="34.7" fill="#B574F7" fill-opacity="0.07"/>
<rect opacity="0.3" x="1211.6" y="80.3999" width="34.7" height="34.7" fill="#B574F7" fill-opacity="0.07"/>
<rect opacity="0.9" x="1249.3" y="80.3999" width="34.7" height="34.7" fill="#B574F7" fill-opacity="0.07"/>
<rect opacity="0.3" x="1287" y="80.3999" width="34.7" height="34.7" fill="#B574F7" fill-opacity="0.07"/>
<rect opacity="0.3" x="1324.7" y="80.3999" width="34.7" height="34.7" fill="#B574F7" fill-opacity="0.07"/>
<rect opacity="0.3" x="1362.4" y="80.3999" width="34.7" height="34.7" fill="#B574F7" fill-opacity="0.07"/>
<rect opacity="0.3" x="1400.1" y="80.3999" width="34.7" height="34.7" fill="#B574F7" fill-opacity="0.07"/>
<rect opacity="0.9" x="5.2002" y="118.1" width="34.7" height="34.7" fill="#B574F7" fill-opacity="0.07"/>
<rect opacity="0.3" x="42.9004" y="118.1" width="34.7" height="34.7" fill="#B574F7" fill-opacity="0.07"/>
<rect opacity="0.3" x="80.6001" y="118.1" width="34.7" height="34.7" fill="#B574F7" fill-opacity="0.07"/>
<rect opacity="0.3" x="118.3" y="118.1" width="34.7" height="34.7" fill="#B574F7" fill-opacity="0.07"/>
<rect opacity="0.6" x="156" y="118.1" width="34.7" height="34.7" fill="#B574F7" fill-opacity="0.07"/>
<rect opacity="0.6" x="193.7" y="118.1" width="34.7" height="34.7" fill="#B574F7" fill-opacity="0.07"/>
<rect opacity="0.3" x="231.4" y="118.1" width="34.7" height="34.7" fill="#B574F7" fill-opacity="0.07"/>
<rect opacity="0.3" x="269.1" y="118.1" width="34.7" height="34.7" fill="#B574F7" fill-opacity="0.07"/>
<rect opacity="0.9" x="306.8" y="118.1" width="34.7" height="34.7" fill="#B574F7" fill-opacity="0.07"/>
<rect opacity="0.3" x="344.5" y="118.1" width="34.7" height="34.7" fill="#B574F7" fill-opacity="0.07"/>
<rect opacity="0.3" x="382.2" y="118.1" width="34.7" height="34.7" fill="#B574F7" fill-opacity="0.07"/>
<rect opacity="0.3" x="419.9" y="118.1" width="34.7" height="34.7" fill="#B574F7" fill-opacity="0.07"/>
<rect opacity="0.6" x="457.6" y="118.1" width="34.7" height="34.7" fill="#B574F7" fill-opacity="0.07"/>
<rect opacity="0.3" x="495.3" y="118.1" width="34.7" height="34.7" fill="#B574F7" fill-opacity="0.07"/>
<rect opacity="0.3" x="533" y="118.1" width="34.7" height="34.7" fill="#B574F7" fill-opacity="0.07"/>
<rect opacity="0.3" x="570.7" y="118.1" width="34.7" height="34.7" fill="#B574F7" fill-opacity="0.07"/>
<rect opacity="0.3" x="608.4" y="118.1" width="34.7" height="34.7" fill="#B574F7" fill-opacity="0.07"/>
<rect opacity="0.9" x="646.1" y="118.1" width="34.7" height="34.7" fill="#B574F7" fill-opacity="0.07"/>
<rect opacity="0.3" x="683.8" y="118.1" width="34.7" height="34.7" fill="#B574F7" fill-opacity="0.07"/>
<rect opacity="0.3" x="721.5" y="118.1" width="34.7" height="34.7" fill="#B574F7" fill-opacity="0.07"/>
<rect opacity="0.9" x="759.2" y="118.1" width="34.7" height="34.7" fill="#B574F7" fill-opacity="0.07"/>
<rect opacity="0.3" x="796.9" y="118.1" width="34.7" height="34.7" fill="#B574F7" fill-opacity="0.07"/>
<rect opacity="0.3" x="834.601" y="118.1" width="34.7" height="34.7" fill="#B574F7" fill-opacity="0.07"/>
<rect opacity="0.9" x="872.3" y="118.1" width="34.7" height="34.7" fill="#B574F7" fill-opacity="0.07"/>
<rect opacity="0.3" x="910" y="118.1" width="34.7" height="34.7" fill="#B574F7" fill-opacity="0.07"/>
<rect opacity="0.9" x="947.7" y="118.1" width="34.7" height="34.7" fill="#B574F7" fill-opacity="0.07"/>
<rect opacity="0.9" x="985.4" y="118.1" width="34.7" height="34.7" fill="#B574F7" fill-opacity="0.07"/>
<rect opacity="0.3" x="1023.1" y="118.1" width="34.7" height="34.7" fill="#B574F7" fill-opacity="0.07"/>
<rect opacity="0.3" x="1060.8" y="118.1" width="34.7" height="34.7" fill="#B574F7" fill-opacity="0.07"/>
<rect opacity="0.3" x="1098.5" y="118.1" width="34.7" height="34.7" fill="#B574F7" fill-opacity="0.07"/>
<rect opacity="0.3" x="1136.2" y="118.1" width="34.7" height="34.7" fill="#B574F7" fill-opacity="0.07"/>
<rect opacity="0.3" x="1173.9" y="118.1" width="34.7" height="34.7" fill="#B574F7" fill-opacity="0.07"/>
<rect opacity="0.3" x="1211.6" y="118.1" width="34.7" height="34.7" fill="#B574F7" fill-opacity="0.07"/>
<rect opacity="0.3" x="1249.3" y="118.1" width="34.7" height="34.7" fill="#B574F7" fill-opacity="0.07"/>
<rect opacity="0.3" x="1287" y="118.1" width="34.7" height="34.7" fill="#B574F7" fill-opacity="0.07"/>
<rect opacity="0.3" x="1324.7" y="118.1" width="34.7" height="34.7" fill="#B574F7" fill-opacity="0.07"/>
<rect opacity="0.3" x="1362.4" y="118.1" width="34.7" height="34.7" fill="#B574F7" fill-opacity="0.07"/>
<rect opacity="0.6" x="1400.1" y="118.1" width="34.7" height="34.7" fill="#B574F7" fill-opacity="0.07"/>
<rect opacity="0.3" x="5.2002" y="155.8" width="34.7" height="34.7" fill="#B574F7" fill-opacity="0.07"/>
<rect opacity="0.3" x="42.9004" y="155.8" width="34.7" height="34.7" fill="#B574F7" fill-opacity="0.07"/>
<rect opacity="0.3" x="80.6001" y="155.8" width="34.7" height="34.7" fill="#B574F7" fill-opacity="0.07"/>
<rect opacity="0.3" x="118.3" y="155.8" width="34.7" height="34.7" fill="#B574F7" fill-opacity="0.07"/>
<rect opacity="0.3" x="156" y="155.8" width="34.7" height="34.7" fill="#B574F7" fill-opacity="0.07"/>
<rect opacity="0.3" x="193.7" y="155.8" width="34.7" height="34.7" fill="#B574F7" fill-opacity="0.07"/>
<rect opacity="0.3" x="231.4" y="155.8" width="34.7" height="34.7" fill="#B574F7" fill-opacity="0.07"/>
<rect opacity="0.3" x="269.1" y="155.8" width="34.7" height="34.7" fill="#B574F7" fill-opacity="0.07"/>
<rect opacity="0.3" x="306.8" y="155.8" width="34.7" height="34.7" fill="#B574F7" fill-opacity="0.07"/>
<rect opacity="0.3" x="344.5" y="155.8" width="34.7" height="34.7" fill="#B574F7" fill-opacity="0.07"/>
<rect opacity="0.3" x="382.2" y="155.8" width="34.7" height="34.7" fill="#B574F7" fill-opacity="0.07"/>
<rect opacity="0.3" x="419.9" y="155.8" width="34.7" height="34.7" fill="#B574F7" fill-opacity="0.07"/>
<rect opacity="0.3" x="457.6" y="155.8" width="34.7" height="34.7" fill="#B574F7" fill-opacity="0.07"/>
<rect opacity="0.3" x="495.3" y="155.8" width="34.7" height="34.7" fill="#B574F7" fill-opacity="0.07"/>
<rect opacity="0.3" x="533" y="155.8" width="34.7" height="34.7" fill="#B574F7" fill-opacity="0.07"/>
<rect opacity="0.3" x="570.7" y="155.8" width="34.7" height="34.7" fill="#B574F7" fill-opacity="0.07"/>
<rect opacity="0.3" x="608.4" y="155.8" width="34.7" height="34.7" fill="#B574F7" fill-opacity="0.07"/>
<rect opacity="0.3" x="646.1" y="155.8" width="34.7" height="34.7" fill="#B574F7" fill-opacity="0.07"/>
<rect opacity="0.3" x="683.8" y="155.8" width="34.7" height="34.7" fill="#B574F7" fill-opacity="0.07"/>
<rect opacity="0.3" x="721.5" y="155.8" width="34.7" height="34.7" fill="#B574F7" fill-opacity="0.07"/>
<rect opacity="0.3" x="759.2" y="155.8" width="34.7" height="34.7" fill="#B574F7" fill-opacity="0.07"/>
<rect opacity="0.3" x="796.9" y="155.8" width="34.7" height="34.7" fill="#B574F7" fill-opacity="0.07"/>
<rect opacity="0.3" x="834.601" y="155.8" width="34.7" height="34.7" fill="#B574F7" fill-opacity="0.07"/>
<rect opacity="0.3" x="872.3" y="155.8" width="34.7" height="34.7" fill="#B574F7" fill-opacity="0.07"/>
<rect opacity="0.3" x="910" y="155.8" width="34.7" height="34.7" fill="#B574F7" fill-opacity="0.07"/>
<rect opacity="0.9" x="947.7" y="155.8" width="34.7" height="34.7" fill="#B574F7" fill-opacity="0.07"/>
<rect opacity="0.3" x="985.4" y="155.8" width="34.7" height="34.7" fill="#B574F7" fill-opacity="0.07"/>
<rect opacity="0.3" x="1023.1" y="155.8" width="34.7" height="34.7" fill="#B574F7" fill-opacity="0.07"/>
<rect opacity="0.3" x="1060.8" y="155.8" width="34.7" height="34.7" fill="#B574F7" fill-opacity="0.07"/>
<rect opacity="0.3" x="1098.5" y="155.8" width="34.7" height="34.7" fill="#B574F7" fill-opacity="0.07"/>
<rect opacity="0.3" x="1136.2" y="155.8" width="34.7" height="34.7" fill="#B574F7" fill-opacity="0.07"/>
<rect opacity="0.3" x="1173.9" y="155.8" width="34.7" height="34.7" fill="#B574F7" fill-opacity="0.07"/>
<rect opacity="0.3" x="1211.6" y="155.8" width="34.7" height="34.7" fill="#B574F7" fill-opacity="0.07"/>
<rect opacity="0.3" x="1249.3" y="155.8" width="34.7" height="34.7" fill="#B574F7" fill-opacity="0.07"/>
<rect opacity="0.8" x="1287" y="155.8" width="34.7" height="34.7" fill="#B574F7" fill-opacity="0.07"/>
<rect opacity="0.3" x="1324.7" y="155.8" width="34.7" height="34.7" fill="#B574F7" fill-opacity="0.07"/>
<rect opacity="0.3" x="1362.4" y="155.8" width="34.7" height="34.7" fill="#B574F7" fill-opacity="0.07"/>
<rect opacity="0.3" x="1400.1" y="155.8" width="34.7" height="34.7" fill="#B574F7" fill-opacity="0.07"/>
<rect opacity="0.6" x="5.2002" y="193.5" width="34.7" height="34.7" fill="#B574F7" fill-opacity="0.07"/>
<rect opacity="0.3" x="42.9004" y="193.5" width="34.7" height="34.7" fill="#B574F7" fill-opacity="0.07"/>
<rect opacity="0.3" x="80.6001" y="193.5" width="34.7" height="34.7" fill="#B574F7" fill-opacity="0.07"/>
<rect opacity="0.3" x="118.3" y="193.5" width="34.7" height="34.7" fill="#B574F7" fill-opacity="0.07"/>
<rect opacity="0.3" x="156" y="193.5" width="34.7" height="34.7" fill="#B574F7" fill-opacity="0.07"/>
<rect opacity="0.3" x="193.7" y="193.5" width="34.7" height="34.7" fill="#B574F7" fill-opacity="0.07"/>
<rect opacity="0.3" x="231.4" y="193.5" width="34.7" height="34.7" fill="#B574F7" fill-opacity="0.07"/>
<rect opacity="0.3" x="269.1" y="193.5" width="34.7" height="34.7" fill="#B574F7" fill-opacity="0.07"/>
<rect opacity="0.3" x="306.8" y="193.5" width="34.7" height="34.7" fill="#B574F7" fill-opacity="0.07"/>
<rect opacity="0.3" x="344.5" y="193.5" width="34.7" height="34.7" fill="#B574F7" fill-opacity="0.07"/>
<rect opacity="0.3" x="382.2" y="193.5" width="34.7" height="34.7" fill="#B574F7" fill-opacity="0.07"/>
<rect opacity="0.3" x="419.9" y="193.5" width="34.7" height="34.7" fill="#B574F7" fill-opacity="0.07"/>
<rect opacity="0.3" x="457.6" y="193.5" width="34.7" height="34.7" fill="#B574F7" fill-opacity="0.07"/>
<rect opacity="0.3" x="495.3" y="193.5" width="34.7" height="34.7" fill="#B574F7" fill-opacity="0.07"/>
<rect opacity="0.3" x="533" y="193.5" width="34.7" height="34.7" fill="#B574F7" fill-opacity="0.07"/>
<rect opacity="0.3" x="570.7" y="193.5" width="34.7" height="34.7" fill="#B574F7" fill-opacity="0.07"/>
<rect opacity="0.3" x="608.4" y="193.5" width="34.7" height="34.7" fill="#B574F7" fill-opacity="0.07"/>
<rect opacity="0.3" x="646.1" y="193.5" width="34.7" height="34.7" fill="#B574F7" fill-opacity="0.07"/>
<rect opacity="0.3" x="683.8" y="193.5" width="34.7" height="34.7" fill="#B574F7" fill-opacity="0.07"/>
<rect opacity="0.3" x="721.5" y="193.5" width="34.7" height="34.7" fill="#B574F7" fill-opacity="0.07"/>
<rect opacity="0.3" x="759.2" y="193.5" width="34.7" height="34.7" fill="#B574F7" fill-opacity="0.07"/>
<rect opacity="0.3" x="796.9" y="193.5" width="34.7" height="34.7" fill="#B574F7" fill-opacity="0.07"/>
<rect opacity="0.3" x="834.601" y="193.5" width="34.7" height="34.7" fill="#B574F7" fill-opacity="0.07"/>
<rect opacity="0.3" x="872.3" y="193.5" width="34.7" height="34.7" fill="#B574F7" fill-opacity="0.07"/>
<rect opacity="0.3" x="910" y="193.5" width="34.7" height="34.7" fill="#B574F7" fill-opacity="0.07"/>
<rect opacity="0.3" x="947.7" y="193.5" width="34.7" height="34.7" fill="#B574F7" fill-opacity="0.07"/>
<rect opacity="0.3" x="985.4" y="193.5" width="34.7" height="34.7" fill="#B574F7" fill-opacity="0.07"/>
<rect opacity="0.3" x="1023.1" y="193.5" width="34.7" height="34.7" fill="#B574F7" fill-opacity="0.07"/>
<rect opacity="0.3" x="1060.8" y="193.5" width="34.7" height="34.7" fill="#B574F7" fill-opacity="0.07"/>
<rect opacity="0.3" x="1098.5" y="193.5" width="34.7" height="34.7" fill="#B574F7" fill-opacity="0.07"/>
<rect opacity="0.3" x="1136.2" y="193.5" width="34.7" height="34.7" fill="#B574F7" fill-opacity="0.07"/>
<rect opacity="0.3" x="1173.9" y="193.5" width="34.7" height="34.7" fill="#B574F7" fill-opacity="0.07"/>
<rect opacity="0.3" x="1211.6" y="193.5" width="34.7" height="34.7" fill="#B574F7" fill-opacity="0.07"/>
<rect opacity="0.3" x="1249.3" y="193.5" width="34.7" height="34.7" fill="#B574F7" fill-opacity="0.07"/>
<rect opacity="0.3" x="1287" y="193.5" width="34.7" height="34.7" fill="#B574F7" fill-opacity="0.07"/>
<rect opacity="0.3" x="1324.7" y="193.5" width="34.7" height="34.7" fill="#B574F7" fill-opacity="0.07"/>
<rect opacity="0.3" x="1362.4" y="193.5" width="34.7" height="34.7" fill="#B574F7" fill-opacity="0.07"/>
<rect opacity="0.6" x="1400.1" y="193.5" width="34.7" height="34.7" fill="#B574F7" fill-opacity="0.07"/>
<rect opacity="0.3" x="5.2002" y="231.2" width="34.7" height="34.7" fill="#B574F7" fill-opacity="0.07"/>
<rect opacity="0.3" x="42.9004" y="231.2" width="34.7" height="34.7" fill="#B574F7" fill-opacity="0.07"/>
<rect opacity="0.3" x="80.6001" y="231.2" width="34.7" height="34.7" fill="#B574F7" fill-opacity="0.07"/>
<rect opacity="0.3" x="118.3" y="231.2" width="34.7" height="34.7" fill="#B574F7" fill-opacity="0.07"/>
<rect opacity="0.3" x="156" y="231.2" width="34.7" height="34.7" fill="#B574F7" fill-opacity="0.07"/>
<rect opacity="0.3" x="193.7" y="231.2" width="34.7" height="34.7" fill="#B574F7" fill-opacity="0.07"/>
<rect opacity="0.3" x="231.4" y="231.2" width="34.7" height="34.7" fill="#B574F7" fill-opacity="0.07"/>
<rect opacity="0.3" x="269.1" y="231.2" width="34.7" height="34.7" fill="#B574F7" fill-opacity="0.07"/>
<rect opacity="0.3" x="306.8" y="231.2" width="34.7" height="34.7" fill="#B574F7" fill-opacity="0.07"/>
<rect opacity="0.3" x="344.5" y="231.2" width="34.7" height="34.7" fill="#B574F7" fill-opacity="0.07"/>
<rect opacity="0.3" x="382.2" y="231.2" width="34.7" height="34.7" fill="#B574F7" fill-opacity="0.07"/>
<rect opacity="0.3" x="419.9" y="231.2" width="34.7" height="34.7" fill="#B574F7" fill-opacity="0.07"/>
<rect opacity="0.3" x="457.6" y="231.2" width="34.7" height="34.7" fill="#B574F7" fill-opacity="0.07"/>
<rect opacity="0.3" x="495.3" y="231.2" width="34.7" height="34.7" fill="#B574F7" fill-opacity="0.07"/>
<rect opacity="0.3" x="533" y="231.2" width="34.7" height="34.7" fill="#B574F7" fill-opacity="0.07"/>
<rect opacity="0.6" x="570.7" y="231.2" width="34.7" height="34.7" fill="#B574F7" fill-opacity="0.07"/>
<rect opacity="0.3" x="608.4" y="231.2" width="34.7" height="34.7" fill="#B574F7" fill-opacity="0.07"/>
<rect opacity="0.3" x="646.1" y="231.2" width="34.7" height="34.7" fill="#B574F7" fill-opacity="0.07"/>
<rect opacity="0.3" x="683.8" y="231.2" width="34.7" height="34.7" fill="#B574F7" fill-opacity="0.07"/>
<rect opacity="0.3" x="721.5" y="231.2" width="34.7" height="34.7" fill="#B574F7" fill-opacity="0.07"/>
<rect opacity="0.3" x="759.2" y="231.2" width="34.7" height="34.7" fill="#B574F7" fill-opacity="0.07"/>
<rect opacity="0.3" x="796.9" y="231.2" width="34.7" height="34.7" fill="#B574F7" fill-opacity="0.07"/>
<rect opacity="0.3" x="834.601" y="231.2" width="34.7" height="34.7" fill="#B574F7" fill-opacity="0.07"/>
<rect opacity="0.3" x="872.3" y="231.2" width="34.7" height="34.7" fill="#B574F7" fill-opacity="0.07"/>
<rect opacity="0.6" x="910" y="231.2" width="34.7" height="34.7" fill="#B574F7" fill-opacity="0.07"/>
<rect opacity="0.3" x="947.7" y="231.2" width="34.7" height="34.7" fill="#B574F7" fill-opacity="0.07"/>
<rect opacity="0.3" x="985.4" y="231.2" width="34.7" height="34.7" fill="#B574F7" fill-opacity="0.07"/>
<rect opacity="0.3" x="1023.1" y="231.2" width="34.7" height="34.7" fill="#B574F7" fill-opacity="0.07"/>
<rect opacity="0.3" x="1060.8" y="231.2" width="34.7" height="34.7" fill="#B574F7" fill-opacity="0.07"/>
<rect opacity="0.3" x="1098.5" y="231.2" width="34.7" height="34.7" fill="#B574F7" fill-opacity="0.07"/>
<rect opacity="0.3" x="1136.2" y="231.2" width="34.7" height="34.7" fill="#B574F7" fill-opacity="0.07"/>
<rect opacity="0.3" x="1173.9" y="231.2" width="34.7" height="34.7" fill="#B574F7" fill-opacity="0.07"/>
<rect opacity="0.3" x="1211.6" y="231.2" width="34.7" height="34.7" fill="#B574F7" fill-opacity="0.07"/>
<rect opacity="0.3" x="1249.3" y="231.2" width="34.7" height="34.7" fill="#B574F7" fill-opacity="0.07"/>
<rect opacity="0.3" x="1287" y="231.2" width="34.7" height="34.7" fill="#B574F7" fill-opacity="0.07"/>
<rect opacity="0.3" x="1324.7" y="231.2" width="34.7" height="34.7" fill="#B574F7" fill-opacity="0.07"/>
<rect opacity="0.3" x="1362.4" y="231.2" width="34.7" height="34.7" fill="#B574F7" fill-opacity="0.07"/>
<rect opacity="0.3" x="1400.1" y="231.2" width="34.7" height="34.7" fill="#B574F7" fill-opacity="0.07"/>
<rect opacity="0.3" x="5.2002" y="268.9" width="34.7" height="34.7" fill="#B574F7" fill-opacity="0.07"/>
<rect opacity="0.6" x="42.9004" y="268.9" width="34.7" height="34.7" fill="#B574F7" fill-opacity="0.07"/>
<rect opacity="0.3" x="80.6001" y="268.9" width="34.7" height="34.7" fill="#B574F7" fill-opacity="0.07"/>
<rect opacity="0.3" x="118.3" y="268.9" width="34.7" height="34.7" fill="#B574F7" fill-opacity="0.07"/>
<rect opacity="0.3" x="156" y="268.9" width="34.7" height="34.7" fill="#B574F7" fill-opacity="0.07"/>
<rect opacity="0.3" x="193.7" y="268.9" width="34.7" height="34.7" fill="#B574F7" fill-opacity="0.07"/>
<rect opacity="0.3" x="231.4" y="268.9" width="34.7" height="34.7" fill="#B574F7" fill-opacity="0.07"/>
<rect opacity="0.3" x="269.1" y="268.9" width="34.7" height="34.7" fill="#B574F7" fill-opacity="0.07"/>
<rect opacity="0.3" x="306.8" y="268.9" width="34.7" height="34.7" fill="#B574F7" fill-opacity="0.07"/>
<rect opacity="0.3" x="344.5" y="268.9" width="34.7" height="34.7" fill="#B574F7" fill-opacity="0.07"/>
<rect opacity="0.3" x="382.2" y="268.9" width="34.7" height="34.7" fill="#B574F7" fill-opacity="0.07"/>
<rect opacity="0.3" x="419.9" y="268.9" width="34.7" height="34.7" fill="#B574F7" fill-opacity="0.07"/>
<rect opacity="0.3" x="457.6" y="268.9" width="34.7" height="34.7" fill="#B574F7" fill-opacity="0.07"/>
<rect opacity="0.3" x="495.3" y="268.9" width="34.7" height="34.7" fill="#B574F7" fill-opacity="0.07"/>
<rect opacity="0.3" x="533" y="268.9" width="34.7" height="34.7" fill="#B574F7" fill-opacity="0.07"/>
<rect opacity="0.3" x="570.7" y="268.9" width="34.7" height="34.7" fill="#B574F7" fill-opacity="0.07"/>
<rect opacity="0.3" x="608.4" y="268.9" width="34.7" height="34.7" fill="#B574F7" fill-opacity="0.07"/>
<rect opacity="0.3" x="646.1" y="268.9" width="34.7" height="34.7" fill="#B574F7" fill-opacity="0.07"/>
<rect opacity="0.3" x="683.8" y="268.9" width="34.7" height="34.7" fill="#B574F7" fill-opacity="0.07"/>
<rect opacity="0.3" x="721.5" y="268.9" width="34.7" height="34.7" fill="#B574F7" fill-opacity="0.07"/>
<rect opacity="0.3" x="759.2" y="268.9" width="34.7" height="34.7" fill="#B574F7" fill-opacity="0.07"/>
<rect opacity="0.3" x="796.9" y="268.9" width="34.7" height="34.7" fill="#B574F7" fill-opacity="0.07"/>
<rect opacity="0.3" x="834.601" y="268.9" width="34.7" height="34.7" fill="#B574F7" fill-opacity="0.07"/>
<rect opacity="0.3" x="872.3" y="268.9" width="34.7" height="34.7" fill="#B574F7" fill-opacity="0.07"/>
<rect opacity="0.3" x="910" y="268.9" width="34.7" height="34.7" fill="#B574F7" fill-opacity="0.07"/>
<rect opacity="0.3" x="947.7" y="268.9" width="34.7" height="34.7" fill="#B574F7" fill-opacity="0.07"/>
<rect opacity="0.3" x="985.4" y="268.9" width="34.7" height="34.7" fill="#B574F7" fill-opacity="0.07"/>
<rect opacity="0.3" x="1023.1" y="268.9" width="34.7" height="34.7" fill="#B574F7" fill-opacity="0.07"/>
<rect opacity="0.3" x="1060.8" y="268.9" width="34.7" height="34.7" fill="#B574F7" fill-opacity="0.07"/>
<rect opacity="0.3" x="1098.5" y="268.9" width="34.7" height="34.7" fill="#B574F7" fill-opacity="0.07"/>
<rect opacity="0.3" x="1136.2" y="268.9" width="34.7" height="34.7" fill="#B574F7" fill-opacity="0.07"/>
<rect opacity="0.3" x="1173.9" y="268.9" width="34.7" height="34.7" fill="#B574F7" fill-opacity="0.07"/>
<rect opacity="0.3" x="1211.6" y="268.9" width="34.7" height="34.7" fill="#B574F7" fill-opacity="0.07"/>
<rect opacity="0.3" x="1249.3" y="268.9" width="34.7" height="34.7" fill="#B574F7" fill-opacity="0.07"/>
<rect opacity="0.3" x="1287" y="268.9" width="34.7" height="34.7" fill="#B574F7" fill-opacity="0.07"/>
<rect opacity="0.3" x="1324.7" y="268.9" width="34.7" height="34.7" fill="#B574F7" fill-opacity="0.07"/>
<rect opacity="0.3" x="1362.4" y="268.9" width="34.7" height="34.7" fill="#B574F7" fill-opacity="0.07"/>
<rect opacity="0.3" x="1400.1" y="268.9" width="34.7" height="34.7" fill="#B574F7" fill-opacity="0.07"/>
<rect opacity="0.3" x="5.2002" y="306.6" width="34.7" height="34.7" fill="#B574F7" fill-opacity="0.07"/>
<rect opacity="0.3" x="42.9004" y="306.6" width="34.7" height="34.7" fill="#B574F7" fill-opacity="0.07"/>
<rect opacity="0.3" x="80.6001" y="306.6" width="34.7" height="34.7" fill="#B574F7" fill-opacity="0.07"/>
<rect opacity="0.3" x="118.3" y="306.6" width="34.7" height="34.7" fill="#B574F7" fill-opacity="0.07"/>
<rect opacity="0.3" x="156" y="306.6" width="34.7" height="34.7" fill="#B574F7" fill-opacity="0.07"/>
<rect opacity="0.6" x="193.7" y="306.6" width="34.7" height="34.7" fill="#B574F7" fill-opacity="0.07"/>
<rect opacity="0.3" x="231.4" y="306.6" width="34.7" height="34.7" fill="#B574F7" fill-opacity="0.07"/>
<rect opacity="0.3" x="269.1" y="306.6" width="34.7" height="34.7" fill="#B574F7" fill-opacity="0.07"/>
<rect opacity="0.3" x="306.8" y="306.6" width="34.7" height="34.7" fill="#B574F7" fill-opacity="0.07"/>
<rect opacity="0.3" x="344.5" y="306.6" width="34.7" height="34.7" fill="#B574F7" fill-opacity="0.07"/>
<rect opacity="0.3" x="382.2" y="306.6" width="34.7" height="34.7" fill="#B574F7" fill-opacity="0.07"/>
<rect opacity="0.3" x="419.9" y="306.6" width="34.7" height="34.7" fill="#B574F7" fill-opacity="0.07"/>
<rect opacity="0.3" x="457.6" y="306.6" width="34.7" height="34.7" fill="#B574F7" fill-opacity="0.07"/>
<rect opacity="0.3" x="495.3" y="306.6" width="34.7" height="34.7" fill="#B574F7" fill-opacity="0.07"/>
<rect opacity="0.3" x="533" y="306.6" width="34.7" height="34.7" fill="#B574F7" fill-opacity="0.07"/>
<rect opacity="0.3" x="570.7" y="306.6" width="34.7" height="34.7" fill="#B574F7" fill-opacity="0.07"/>
<rect opacity="0.3" x="608.4" y="306.6" width="34.7" height="34.7" fill="#B574F7" fill-opacity="0.07"/>
<rect opacity="0.3" x="646.1" y="306.6" width="34.7" height="34.7" fill="#B574F7" fill-opacity="0.07"/>
<rect opacity="0.3" x="683.8" y="306.6" width="34.7" height="34.7" fill="#B574F7" fill-opacity="0.07"/>
<rect opacity="0.3" x="721.5" y="306.6" width="34.7" height="34.7" fill="#B574F7" fill-opacity="0.07"/>
<rect opacity="0.3" x="759.2" y="306.6" width="34.7" height="34.7" fill="#B574F7" fill-opacity="0.07"/>
<rect opacity="0.3" x="796.9" y="306.6" width="34.7" height="34.7" fill="#B574F7" fill-opacity="0.07"/>
<rect opacity="0.3" x="834.601" y="306.6" width="34.7" height="34.7" fill="#B574F7" fill-opacity="0.07"/>
<rect opacity="0.3" x="872.3" y="306.6" width="34.7" height="34.7" fill="#B574F7" fill-opacity="0.07"/>
<rect opacity="0.3" x="910" y="306.6" width="34.7" height="34.7" fill="#B574F7" fill-opacity="0.07"/>
<rect opacity="0.3" x="947.7" y="306.6" width="34.7" height="34.7" fill="#B574F7" fill-opacity="0.07"/>
<rect opacity="0.3" x="985.4" y="306.6" width="34.7" height="34.7" fill="#B574F7" fill-opacity="0.07"/>
<rect opacity="0.3" x="1023.1" y="306.6" width="34.7" height="34.7" fill="#B574F7" fill-opacity="0.07"/>
<rect opacity="0.3" x="1060.8" y="306.6" width="34.7" height="34.7" fill="#B574F7" fill-opacity="0.07"/>
<rect opacity="0.3" x="1098.5" y="306.6" width="34.7" height="34.7" fill="#B574F7" fill-opacity="0.07"/>
<rect opacity="0.3" x="1136.2" y="306.6" width="34.7" height="34.7" fill="#B574F7" fill-opacity="0.07"/>
<rect opacity="0.3" x="1173.9" y="306.6" width="34.7" height="34.7" fill="#B574F7" fill-opacity="0.07"/>
<rect opacity="0.3" x="1211.6" y="306.6" width="34.7" height="34.7" fill="#B574F7" fill-opacity="0.07"/>
<rect opacity="0.3" x="1249.3" y="306.6" width="34.7" height="34.7" fill="#B574F7" fill-opacity="0.07"/>
<rect opacity="0.3" x="1287" y="306.6" width="34.7" height="34.7" fill="#B574F7" fill-opacity="0.07"/>
<rect opacity="0.6" x="1324.7" y="306.6" width="34.7" height="34.7" fill="#B574F7" fill-opacity="0.07"/>
<rect opacity="0.3" x="1362.4" y="306.6" width="34.7" height="34.7" fill="#B574F7" fill-opacity="0.07"/>
<rect opacity="0.3" x="1400.1" y="306.6" width="34.7" height="34.7" fill="#B574F7" fill-opacity="0.07"/>
<rect opacity="0.3" x="5.2002" y="344.3" width="34.7" height="34.7" fill="#B574F7" fill-opacity="0.07"/>
<rect opacity="0.3" x="42.9004" y="344.3" width="34.7" height="34.7" fill="#B574F7" fill-opacity="0.07"/>
<rect opacity="0.3" x="80.6001" y="344.3" width="34.7" height="34.7" fill="#B574F7" fill-opacity="0.07"/>
<rect opacity="0.3" x="118.3" y="344.3" width="34.7" height="34.7" fill="#B574F7" fill-opacity="0.07"/>
<rect opacity="0.3" x="156" y="344.3" width="34.7" height="34.7" fill="#B574F7" fill-opacity="0.07"/>
<rect opacity="0.3" x="193.7" y="344.3" width="34.7" height="34.7" fill="#B574F7" fill-opacity="0.07"/>
<rect opacity="0.3" x="231.4" y="344.3" width="34.7" height="34.7" fill="#B574F7" fill-opacity="0.07"/>
<rect opacity="0.3" x="269.1" y="344.3" width="34.7" height="34.7" fill="#B574F7" fill-opacity="0.07"/>
<rect opacity="0.3" x="306.8" y="344.3" width="34.7" height="34.7" fill="#B574F7" fill-opacity="0.07"/>
<rect opacity="0.3" x="344.5" y="344.3" width="34.7" height="34.7" fill="#B574F7" fill-opacity="0.07"/>
<rect opacity="0.3" x="382.2" y="344.3" width="34.7" height="34.7" fill="#B574F7" fill-opacity="0.07"/>
<rect opacity="0.6" x="419.9" y="344.3" width="34.7" height="34.7" fill="#B574F7" fill-opacity="0.07"/>
<rect opacity="0.3" x="457.6" y="344.3" width="34.7" height="34.7" fill="#B574F7" fill-opacity="0.07"/>
<rect opacity="0.3" x="495.3" y="344.3" width="34.7" height="34.7" fill="#B574F7" fill-opacity="0.07"/>
<rect opacity="0.3" x="533" y="344.3" width="34.7" height="34.7" fill="#B574F7" fill-opacity="0.07"/>
<rect opacity="0.3" x="570.7" y="344.3" width="34.7" height="34.7" fill="#B574F7" fill-opacity="0.07"/>
<rect opacity="0.3" x="608.4" y="344.3" width="34.7" height="34.7" fill="#B574F7" fill-opacity="0.07"/>
<rect opacity="0.3" x="646.1" y="344.3" width="34.7" height="34.7" fill="#B574F7" fill-opacity="0.07"/>
<rect opacity="0.3" x="683.8" y="344.3" width="34.7" height="34.7" fill="#B574F7" fill-opacity="0.07"/>
<rect opacity="0.3" x="721.5" y="344.3" width="34.7" height="34.7" fill="#B574F7" fill-opacity="0.07"/>
<rect opacity="0.3" x="759.2" y="344.3" width="34.7" height="34.7" fill="#B574F7" fill-opacity="0.07"/>
<rect opacity="0.3" x="796.9" y="344.3" width="34.7" height="34.7" fill="#B574F7" fill-opacity="0.07"/>
<rect opacity="0.3" x="834.601" y="344.3" width="34.7" height="34.7" fill="#B574F7" fill-opacity="0.07"/>
<rect opacity="0.3" x="872.3" y="344.3" width="34.7" height="34.7" fill="#B574F7" fill-opacity="0.07"/>
<rect opacity="0.3" x="910" y="344.3" width="34.7" height="34.7" fill="#B574F7" fill-opacity="0.07"/>
<rect opacity="0.3" x="947.7" y="344.3" width="34.7" height="34.7" fill="#B574F7" fill-opacity="0.07"/>
<rect opacity="0.3" x="985.4" y="344.3" width="34.7" height="34.7" fill="#B574F7" fill-opacity="0.07"/>
<rect opacity="0.3" x="1023.1" y="344.3" width="34.7" height="34.7" fill="#B574F7" fill-opacity="0.07"/>
<rect opacity="0.3" x="1060.8" y="344.3" width="34.7" height="34.7" fill="#B574F7" fill-opacity="0.07"/>
<rect opacity="0.3" x="1098.5" y="344.3" width="34.7" height="34.7" fill="#B574F7" fill-opacity="0.07"/>
<rect opacity="0.3" x="1136.2" y="344.3" width="34.7" height="34.7" fill="#B574F7" fill-opacity="0.07"/>
<rect opacity="0.3" x="1173.9" y="344.3" width="34.7" height="34.7" fill="#B574F7" fill-opacity="0.07"/>
<rect opacity="0.3" x="1211.6" y="344.3" width="34.7" height="34.7" fill="#B574F7" fill-opacity="0.07"/>
<rect opacity="0.3" x="1249.3" y="344.3" width="34.7" height="34.7" fill="#B574F7" fill-opacity="0.07"/>
<rect opacity="0.9" x="1287" y="344.3" width="34.7" height="34.7" fill="#B574F7" fill-opacity="0.07"/>
<rect opacity="0.6" x="1324.7" y="344.3" width="34.7" height="34.7" fill="#B574F7" fill-opacity="0.07"/>
<rect opacity="0.3" x="1362.4" y="344.3" width="34.7" height="34.7" fill="#B574F7" fill-opacity="0.07"/>
<rect opacity="0.3" x="1400.1" y="344.3" width="34.7" height="34.7" fill="#B574F7" fill-opacity="0.07"/>
<rect opacity="0.3" x="5.2002" y="382" width="34.7" height="34.7" fill="#B574F7" fill-opacity="0.07"/>
<rect opacity="0.3" x="42.9004" y="382" width="34.7" height="34.7" fill="#B574F7" fill-opacity="0.07"/>
<rect opacity="0.6" x="80.6001" y="382" width="34.7" height="34.7" fill="#B574F7" fill-opacity="0.07"/>
<rect opacity="0.3" x="118.3" y="382" width="34.7" height="34.7" fill="#B574F7" fill-opacity="0.07"/>
<rect opacity="0.3" x="156" y="382" width="34.7" height="34.7" fill="#B574F7" fill-opacity="0.07"/>
<rect opacity="0.3" x="193.7" y="382" width="34.7" height="34.7" fill="#B574F7" fill-opacity="0.07"/>
<rect opacity="0.6" x="231.4" y="382" width="34.7" height="34.7" fill="#B574F7" fill-opacity="0.07"/>
<rect opacity="0.3" x="269.1" y="382" width="34.7" height="34.7" fill="#B574F7" fill-opacity="0.07"/>
<rect opacity="0.3" x="306.8" y="382" width="34.7" height="34.7" fill="#B574F7" fill-opacity="0.07"/>
<rect opacity="0.3" x="344.5" y="382" width="34.7" height="34.7" fill="#B574F7" fill-opacity="0.07"/>
<rect opacity="0.3" x="382.2" y="382" width="34.7" height="34.7" fill="#B574F7" fill-opacity="0.07"/>
<rect opacity="0.3" x="419.9" y="382" width="34.7" height="34.7" fill="#B574F7" fill-opacity="0.07"/>
<rect opacity="0.3" x="457.6" y="382" width="34.7" height="34.7" fill="#B574F7" fill-opacity="0.07"/>
<rect opacity="0.3" x="495.3" y="382" width="34.7" height="34.7" fill="#B574F7" fill-opacity="0.07"/>
<rect opacity="0.3" x="533" y="382" width="34.7" height="34.7" fill="#B574F7" fill-opacity="0.07"/>
<rect opacity="0.3" x="570.7" y="382" width="34.7" height="34.7" fill="#B574F7" fill-opacity="0.07"/>
<rect opacity="0.3" x="608.4" y="382" width="34.7" height="34.7" fill="#B574F7" fill-opacity="0.07"/>
<rect opacity="0.3" x="646.1" y="382" width="34.7" height="34.7" fill="#B574F7" fill-opacity="0.07"/>
<rect opacity="0.3" x="683.8" y="382" width="34.7" height="34.7" fill="#B574F7" fill-opacity="0.07"/>
<rect opacity="0.3" x="721.5" y="382" width="34.7" height="34.7" fill="#B574F7" fill-opacity="0.07"/>
<rect opacity="0.3" x="759.2" y="382" width="34.7" height="34.7" fill="#B574F7" fill-opacity="0.07"/>
<rect opacity="0.3" x="796.9" y="382" width="34.7" height="34.7" fill="#B574F7" fill-opacity="0.07"/>
<rect opacity="0.3" x="834.601" y="382" width="34.7" height="34.7" fill="#B574F7" fill-opacity="0.07"/>
<rect opacity="0.3" x="872.3" y="382" width="34.7" height="34.7" fill="#B574F7" fill-opacity="0.07"/>
<rect opacity="0.3" x="910" y="382" width="34.7" height="34.7" fill="#B574F7" fill-opacity="0.07"/>
<rect opacity="0.3" x="947.7" y="382" width="34.7" height="34.7" fill="#B574F7" fill-opacity="0.07"/>
<rect opacity="0.3" x="985.4" y="382" width="34.7" height="34.7" fill="#B574F7" fill-opacity="0.07"/>
<rect opacity="0.3" x="1023.1" y="382" width="34.7" height="34.7" fill="#B574F7" fill-opacity="0.07"/>
<rect opacity="0.3" x="1060.8" y="382" width="34.7" height="34.7" fill="#B574F7" fill-opacity="0.07"/>
<rect opacity="0.3" x="1098.5" y="382" width="34.7" height="34.7" fill="#B574F7" fill-opacity="0.07"/>
<rect opacity="0.3" x="1136.2" y="382" width="34.7" height="34.7" fill="#B574F7" fill-opacity="0.07"/>
<rect opacity="0.9" x="1173.9" y="382" width="34.7" height="34.7" fill="#B574F7" fill-opacity="0.07"/>
<rect opacity="0.3" x="1211.6" y="382" width="34.7" height="34.7" fill="#B574F7" fill-opacity="0.07"/>
<rect opacity="0.3" x="1249.3" y="382" width="34.7" height="34.7" fill="#B574F7" fill-opacity="0.07"/>
<rect opacity="0.3" x="1287" y="382" width="34.7" height="34.7" fill="#B574F7" fill-opacity="0.07"/>
<rect opacity="0.3" x="1324.7" y="382" width="34.7" height="34.7" fill="#B574F7" fill-opacity="0.07"/>
<rect opacity="0.3" x="1362.4" y="382" width="34.7" height="34.7" fill="#B574F7" fill-opacity="0.07"/>
<rect opacity="0.3" x="1400.1" y="382" width="34.7" height="34.7" fill="#B574F7" fill-opacity="0.07"/>
<rect opacity="0.3" x="5.2002" y="419.7" width="34.7" height="34.7" fill="#B574F7" fill-opacity="0.07"/>
<rect opacity="0.3" x="42.9004" y="419.7" width="34.7" height="34.7" fill="#B574F7" fill-opacity="0.07"/>
<rect opacity="0.3" x="80.6001" y="419.7" width="34.7" height="34.7" fill="#B574F7" fill-opacity="0.07"/>
<rect opacity="0.3" x="118.3" y="419.7" width="34.7" height="34.7" fill="#B574F7" fill-opacity="0.07"/>
<rect opacity="0.3" x="156" y="419.7" width="34.7" height="34.7" fill="#B574F7" fill-opacity="0.07"/>
<rect opacity="0.3" x="193.7" y="419.7" width="34.7" height="34.7" fill="#B574F7" fill-opacity="0.07"/>
<rect opacity="0.3" x="231.4" y="419.7" width="34.7" height="34.7" fill="#B574F7" fill-opacity="0.07"/>
<rect opacity="0.3" x="269.1" y="419.7" width="34.7" height="34.7" fill="#B574F7" fill-opacity="0.07"/>
<rect opacity="0.6" x="306.8" y="419.7" width="34.7" height="34.7" fill="#B574F7" fill-opacity="0.07"/>
<rect opacity="0.3" x="344.5" y="419.7" width="34.7" height="34.7" fill="#B574F7" fill-opacity="0.07"/>
<rect opacity="0.3" x="382.2" y="419.7" width="34.7" height="34.7" fill="#B574F7" fill-opacity="0.07"/>
<rect opacity="0.3" x="419.9" y="419.7" width="34.7" height="34.7" fill="#B574F7" fill-opacity="0.07"/>
<rect opacity="0.3" x="457.6" y="419.7" width="34.7" height="34.7" fill="#B574F7" fill-opacity="0.07"/>
<rect opacity="0.3" x="495.3" y="419.7" width="34.7" height="34.7" fill="#B574F7" fill-opacity="0.07"/>
<rect opacity="0.3" x="533" y="419.7" width="34.7" height="34.7" fill="#B574F7" fill-opacity="0.07"/>
<rect opacity="0.3" x="570.7" y="419.7" width="34.7" height="34.7" fill="#B574F7" fill-opacity="0.07"/>
<rect opacity="0.3" x="608.4" y="419.7" width="34.7" height="34.7" fill="#B574F7" fill-opacity="0.07"/>
<rect opacity="0.3" x="646.1" y="419.7" width="34.7" height="34.7" fill="#B574F7" fill-opacity="0.07"/>
<rect opacity="0.3" x="683.8" y="419.7" width="34.7" height="34.7" fill="#B574F7" fill-opacity="0.07"/>
<rect opacity="0.3" x="721.5" y="419.7" width="34.7" height="34.7" fill="#B574F7" fill-opacity="0.07"/>
<rect opacity="0.3" x="759.2" y="419.7" width="34.7" height="34.7" fill="#B574F7" fill-opacity="0.07"/>
<rect opacity="0.3" x="796.9" y="419.7" width="34.7" height="34.7" fill="#B574F7" fill-opacity="0.07"/>
<rect opacity="0.6" x="834.601" y="419.7" width="34.7" height="34.7" fill="#B574F7" fill-opacity="0.07"/>
<rect opacity="0.3" x="872.3" y="419.7" width="34.7" height="34.7" fill="#B574F7" fill-opacity="0.07"/>
<rect opacity="0.3" x="910" y="419.7" width="34.7" height="34.7" fill="#B574F7" fill-opacity="0.07"/>
<rect opacity="0.3" x="947.7" y="419.7" width="34.7" height="34.7" fill="#B574F7" fill-opacity="0.07"/>
<rect opacity="0.3" x="985.4" y="419.7" width="34.7" height="34.7" fill="#B574F7" fill-opacity="0.07"/>
<rect opacity="0.3" x="1023.1" y="419.7" width="34.7" height="34.7" fill="#B574F7" fill-opacity="0.07"/>
<rect opacity="0.3" x="1060.8" y="419.7" width="34.7" height="34.7" fill="#B574F7" fill-opacity="0.07"/>
<rect opacity="0.3" x="1098.5" y="419.7" width="34.7" height="34.7" fill="#B574F7" fill-opacity="0.07"/>
<rect opacity="0.3" x="1136.2" y="419.7" width="34.7" height="34.7" fill="#B574F7" fill-opacity="0.07"/>
<rect opacity="0.3" x="1173.9" y="419.7" width="34.7" height="34.7" fill="#B574F7" fill-opacity="0.07"/>
<rect opacity="0.3" x="1211.6" y="419.7" width="34.7" height="34.7" fill="#B574F7" fill-opacity="0.07"/>
<rect opacity="0.3" x="1249.3" y="419.7" width="34.7" height="34.7" fill="#B574F7" fill-opacity="0.07"/>
<rect opacity="0.3" x="1287" y="419.7" width="34.7" height="34.7" fill="#B574F7" fill-opacity="0.07"/>
<rect opacity="0.3" x="1324.7" y="419.7" width="34.7" height="34.7" fill="#B574F7" fill-opacity="0.07"/>
<rect opacity="0.3" x="1362.4" y="419.7" width="34.7" height="34.7" fill="#B574F7" fill-opacity="0.07"/>
<rect opacity="0.6" x="1400.1" y="419.7" width="34.7" height="34.7" fill="#B574F7" fill-opacity="0.07"/>
<rect opacity="0.3" x="5.2002" y="457.4" width="34.7" height="34.7" fill="#B574F7" fill-opacity="0.07"/>
<rect opacity="0.3" x="42.9004" y="457.4" width="34.7" height="34.7" fill="#B574F7" fill-opacity="0.07"/>
<rect opacity="0.3" x="80.6001" y="457.4" width="34.7" height="34.7" fill="#B574F7" fill-opacity="0.07"/>
<rect opacity="0.3" x="118.3" y="457.4" width="34.7" height="34.7" fill="#B574F7" fill-opacity="0.07"/>
<rect opacity="0.6" x="156" y="457.4" width="34.7" height="34.7" fill="#B574F7" fill-opacity="0.07"/>
<rect opacity="0.3" x="193.7" y="457.4" width="34.7" height="34.7" fill="#B574F7" fill-opacity="0.07"/>
<rect opacity="0.3" x="231.4" y="457.4" width="34.7" height="34.7" fill="#B574F7" fill-opacity="0.07"/>
<rect opacity="0.3" x="269.1" y="457.4" width="34.7" height="34.7" fill="#B574F7" fill-opacity="0.07"/>
<rect opacity="0.3" x="306.8" y="457.4" width="34.7" height="34.7" fill="#B574F7" fill-opacity="0.07"/>
<rect opacity="0.3" x="344.5" y="457.4" width="34.7" height="34.7" fill="#B574F7" fill-opacity="0.07"/>
<rect opacity="0.3" x="382.2" y="457.4" width="34.7" height="34.7" fill="#B574F7" fill-opacity="0.07"/>
<rect opacity="0.3" x="419.9" y="457.4" width="34.7" height="34.7" fill="#B574F7" fill-opacity="0.07"/>
<rect opacity="0.3" x="457.6" y="457.4" width="34.7" height="34.7" fill="#B574F7" fill-opacity="0.07"/>
<rect opacity="0.6" x="495.3" y="457.4" width="34.7" height="34.7" fill="#B574F7" fill-opacity="0.07"/>
<rect opacity="0.3" x="533" y="457.4" width="34.7" height="34.7" fill="#B574F7" fill-opacity="0.07"/>
<rect opacity="0.3" x="570.7" y="457.4" width="34.7" height="34.7" fill="#B574F7" fill-opacity="0.07"/>
<rect opacity="0.3" x="608.4" y="457.4" width="34.7" height="34.7" fill="#B574F7" fill-opacity="0.07"/>
<rect opacity="0.3" x="646.1" y="457.4" width="34.7" height="34.7" fill="#B574F7" fill-opacity="0.07"/>
<rect opacity="0.3" x="683.8" y="457.4" width="34.7" height="34.7" fill="#B574F7" fill-opacity="0.07"/>
<rect opacity="0.3" x="721.5" y="457.4" width="34.7" height="34.7" fill="#B574F7" fill-opacity="0.07"/>
<rect opacity="0.3" x="759.2" y="457.4" width="34.7" height="34.7" fill="#B574F7" fill-opacity="0.07"/>
<rect opacity="0.3" x="796.9" y="457.4" width="34.7" height="34.7" fill="#B574F7" fill-opacity="0.07"/>
<rect opacity="0.3" x="834.601" y="457.4" width="34.7" height="34.7" fill="#B574F7" fill-opacity="0.07"/>
<rect opacity="0.3" x="872.3" y="457.4" width="34.7" height="34.7" fill="#B574F7" fill-opacity="0.07"/>
<rect opacity="0.3" x="910" y="457.4" width="34.7" height="34.7" fill="#B574F7" fill-opacity="0.07"/>
<rect opacity="0.3" x="947.7" y="457.4" width="34.7" height="34.7" fill="#B574F7" fill-opacity="0.07"/>
<rect opacity="0.3" x="985.4" y="457.4" width="34.7" height="34.7" fill="#B574F7" fill-opacity="0.07"/>
<rect opacity="0.3" x="1023.1" y="457.4" width="34.7" height="34.7" fill="#B574F7" fill-opacity="0.07"/>
<rect opacity="0.3" x="1060.8" y="457.4" width="34.7" height="34.7" fill="#B574F7" fill-opacity="0.07"/>
<rect opacity="0.3" x="1098.5" y="457.4" width="34.7" height="34.7" fill="#B574F7" fill-opacity="0.07"/>
<rect opacity="0.3" x="1136.2" y="457.4" width="34.7" height="34.7" fill="#B574F7" fill-opacity="0.07"/>
<rect opacity="0.3" x="1173.9" y="457.4" width="34.7" height="34.7" fill="#B574F7" fill-opacity="0.07"/>
<rect opacity="0.3" x="1211.6" y="457.4" width="34.7" height="34.7" fill="#B574F7" fill-opacity="0.07"/>
<rect opacity="0.3" x="1249.3" y="457.4" width="34.7" height="34.7" fill="#B574F7" fill-opacity="0.07"/>
<rect opacity="0.3" x="1287" y="457.4" width="34.7" height="34.7" fill="#B574F7" fill-opacity="0.07"/>
<rect opacity="0.3" x="1324.7" y="457.4" width="34.7" height="34.7" fill="#B574F7" fill-opacity="0.07"/>
<rect opacity="0.3" x="1362.4" y="457.4" width="34.7" height="34.7" fill="#B574F7" fill-opacity="0.07"/>
<rect opacity="0.3" x="1400.1" y="457.4" width="34.7" height="34.7" fill="#B574F7" fill-opacity="0.07"/>
<rect opacity="0.3" x="5.2002" y="495.1" width="34.7" height="34.7" fill="#B574F7" fill-opacity="0.07"/>
<rect opacity="0.3" x="42.9004" y="495.1" width="34.7" height="34.7" fill="#B574F7" fill-opacity="0.07"/>
<rect opacity="0.3" x="80.6001" y="495.1" width="34.7" height="34.7" fill="#B574F7" fill-opacity="0.07"/>
<rect opacity="0.3" x="118.3" y="495.1" width="34.7" height="34.7" fill="#B574F7" fill-opacity="0.07"/>
<rect opacity="0.3" x="156" y="495.1" width="34.7" height="34.7" fill="#B574F7" fill-opacity="0.07"/>
<rect opacity="0.3" x="193.7" y="495.1" width="34.7" height="34.7" fill="#B574F7" fill-opacity="0.07"/>
<rect opacity="0.3" x="231.4" y="495.1" width="34.7" height="34.7" fill="#B574F7" fill-opacity="0.07"/>
<rect opacity="0.3" x="269.1" y="495.1" width="34.7" height="34.7" fill="#B574F7" fill-opacity="0.07"/>
<rect opacity="0.3" x="306.8" y="495.1" width="34.7" height="34.7" fill="#B574F7" fill-opacity="0.07"/>
<rect opacity="0.3" x="344.5" y="495.1" width="34.7" height="34.7" fill="#B574F7" fill-opacity="0.07"/>
<rect opacity="0.3" x="382.2" y="495.1" width="34.7" height="34.7" fill="#B574F7" fill-opacity="0.07"/>
<rect opacity="0.9" x="419.9" y="495.1" width="34.7" height="34.7" fill="#B574F7" fill-opacity="0.07"/>
<rect opacity="0.3" x="457.6" y="495.1" width="34.7" height="34.7" fill="#B574F7" fill-opacity="0.07"/>
<rect opacity="0.3" x="495.3" y="495.1" width="34.7" height="34.7" fill="#B574F7" fill-opacity="0.07"/>
<rect opacity="0.3" x="533" y="495.1" width="34.7" height="34.7" fill="#B574F7" fill-opacity="0.07"/>
<rect opacity="0.3" x="570.7" y="495.1" width="34.7" height="34.7" fill="#B574F7" fill-opacity="0.07"/>
<rect opacity="0.3" x="608.4" y="495.1" width="34.7" height="34.7" fill="#B574F7" fill-opacity="0.07"/>
<rect opacity="0.3" x="646.1" y="495.1" width="34.7" height="34.7" fill="#B574F7" fill-opacity="0.07"/>
<rect opacity="0.3" x="683.8" y="495.1" width="34.7" height="34.7" fill="#B574F7" fill-opacity="0.07"/>
<rect opacity="0.3" x="721.5" y="495.1" width="34.7" height="34.7" fill="#B574F7" fill-opacity="0.07"/>
<rect opacity="0.3" x="759.2" y="495.1" width="34.7" height="34.7" fill="#B574F7" fill-opacity="0.07"/>
<rect opacity="0.3" x="796.9" y="495.1" width="34.7" height="34.7" fill="#B574F7" fill-opacity="0.07"/>
<rect opacity="0.3" x="834.601" y="495.1" width="34.7" height="34.7" fill="#B574F7" fill-opacity="0.07"/>
<rect opacity="0.3" x="872.3" y="495.1" width="34.7" height="34.7" fill="#B574F7" fill-opacity="0.07"/>
<rect opacity="0.9" x="910" y="495.1" width="34.7" height="34.7" fill="#B574F7" fill-opacity="0.07"/>
<rect opacity="0.3" x="947.7" y="495.1" width="34.7" height="34.7" fill="#B574F7" fill-opacity="0.07"/>
<rect opacity="0.3" x="985.4" y="495.1" width="34.7" height="34.7" fill="#B574F7" fill-opacity="0.07"/>
<rect opacity="0.3" x="1023.1" y="495.1" width="34.7" height="34.7" fill="#B574F7" fill-opacity="0.07"/>
<rect opacity="0.3" x="1060.8" y="495.1" width="34.7" height="34.7" fill="#B574F7" fill-opacity="0.07"/>
<rect opacity="0.3" x="1098.5" y="495.1" width="34.7" height="34.7" fill="#B574F7" fill-opacity="0.07"/>
<rect opacity="0.3" x="1136.2" y="495.1" width="34.7" height="34.7" fill="#B574F7" fill-opacity="0.07"/>
<rect opacity="0.3" x="1173.9" y="495.1" width="34.7" height="34.7" fill="#B574F7" fill-opacity="0.07"/>
<rect opacity="0.3" x="1211.6" y="495.1" width="34.7" height="34.7" fill="#B574F7" fill-opacity="0.07"/>
<rect opacity="0.3" x="1249.3" y="495.1" width="34.7" height="34.7" fill="#B574F7" fill-opacity="0.07"/>
<rect opacity="0.6" x="1287" y="495.1" width="34.7" height="34.7" fill="#B574F7" fill-opacity="0.07"/>
<rect opacity="0.3" x="1324.7" y="495.1" width="34.7" height="34.7" fill="#B574F7" fill-opacity="0.07"/>
<rect opacity="0.3" x="1362.4" y="495.1" width="34.7" height="34.7" fill="#B574F7" fill-opacity="0.07"/>
<rect opacity="0.3" x="1400.1" y="495.1" width="34.7" height="34.7" fill="#B574F7" fill-opacity="0.07"/>
<rect opacity="0.3" x="5.2002" y="532.8" width="34.7" height="34.7" fill="#B574F7" fill-opacity="0.07"/>
<rect opacity="0.3" x="42.9004" y="532.8" width="34.7" height="34.7" fill="#B574F7" fill-opacity="0.07"/>
<rect opacity="0.6" x="80.6001" y="532.8" width="34.7" height="34.7" fill="#B574F7" fill-opacity="0.07"/>
<rect opacity="0.3" x="118.3" y="532.8" width="34.7" height="34.7" fill="#B574F7" fill-opacity="0.07"/>
<rect opacity="0.3" x="156" y="532.8" width="34.7" height="34.7" fill="#B574F7" fill-opacity="0.07"/>
<rect opacity="0.3" x="193.7" y="532.8" width="34.7" height="34.7" fill="#B574F7" fill-opacity="0.07"/>
<rect opacity="0.3" x="231.4" y="532.8" width="34.7" height="34.7" fill="#B574F7" fill-opacity="0.07"/>
<rect opacity="0.3" x="269.1" y="532.8" width="34.7" height="34.7" fill="#B574F7" fill-opacity="0.07"/>
<rect opacity="0.3" x="306.8" y="532.8" width="34.7" height="34.7" fill="#B574F7" fill-opacity="0.07"/>
<rect opacity="0.3" x="344.5" y="532.8" width="34.7" height="34.7" fill="#B574F7" fill-opacity="0.07"/>
<rect opacity="0.3" x="382.2" y="532.8" width="34.7" height="34.7" fill="#B574F7" fill-opacity="0.07"/>
<rect opacity="0.3" x="419.9" y="532.8" width="34.7" height="34.7" fill="#B574F7" fill-opacity="0.07"/>
<rect opacity="0.3" x="457.6" y="532.8" width="34.7" height="34.7" fill="#B574F7" fill-opacity="0.07"/>
<rect opacity="0.3" x="495.3" y="532.8" width="34.7" height="34.7" fill="#B574F7" fill-opacity="0.07"/>
<rect opacity="0.3" x="533" y="532.8" width="34.7" height="34.7" fill="#B574F7" fill-opacity="0.07"/>
<rect opacity="0.3" x="570.7" y="532.8" width="34.7" height="34.7" fill="#B574F7" fill-opacity="0.07"/>
<rect opacity="0.3" x="608.4" y="532.8" width="34.7" height="34.7" fill="#B574F7" fill-opacity="0.07"/>
<rect opacity="0.3" x="646.1" y="532.8" width="34.7" height="34.7" fill="#B574F7" fill-opacity="0.07"/>
<rect opacity="0.3" x="683.8" y="532.8" width="34.7" height="34.7" fill="#B574F7" fill-opacity="0.07"/>
<rect opacity="0.3" x="721.5" y="532.8" width="34.7" height="34.7" fill="#B574F7" fill-opacity="0.07"/>
<rect opacity="0.3" x="759.2" y="532.8" width="34.7" height="34.7" fill="#B574F7" fill-opacity="0.07"/>
<rect opacity="0.3" x="796.9" y="532.8" width="34.7" height="34.7" fill="#B574F7" fill-opacity="0.07"/>
<rect opacity="0.3" x="834.601" y="532.8" width="34.7" height="34.7" fill="#B574F7" fill-opacity="0.07"/>
<rect opacity="0.3" x="872.3" y="532.8" width="34.7" height="34.7" fill="#B574F7" fill-opacity="0.07"/>
<rect opacity="0.3" x="910" y="532.8" width="34.7" height="34.7" fill="#B574F7" fill-opacity="0.07"/>
<rect opacity="0.3" x="947.7" y="532.8" width="34.7" height="34.7" fill="#B574F7" fill-opacity="0.07"/>
<rect opacity="0.3" x="985.4" y="532.8" width="34.7" height="34.7" fill="#B574F7" fill-opacity="0.07"/>
<rect opacity="0.3" x="1023.1" y="532.8" width="34.7" height="34.7" fill="#B574F7" fill-opacity="0.07"/>
<rect opacity="0.3" x="1060.8" y="532.8" width="34.7" height="34.7" fill="#B574F7" fill-opacity="0.07"/>
<rect opacity="0.3" x="1098.5" y="532.8" width="34.7" height="34.7" fill="#B574F7" fill-opacity="0.07"/>
<rect opacity="0.3" x="1136.2" y="532.8" width="34.7" height="34.7" fill="#B574F7" fill-opacity="0.07"/>
<rect opacity="0.3" x="1173.9" y="532.8" width="34.7" height="34.7" fill="#B574F7" fill-opacity="0.07"/>
<rect opacity="0.3" x="1211.6" y="532.8" width="34.7" height="34.7" fill="#B574F7" fill-opacity="0.07"/>
<rect opacity="0.3" x="1249.3" y="532.8" width="34.7" height="34.7" fill="#B574F7" fill-opacity="0.07"/>
<rect opacity="0.3" x="1287" y="532.8" width="34.7" height="34.7" fill="#B574F7" fill-opacity="0.07"/>
<rect opacity="0.3" x="1324.7" y="532.8" width="34.7" height="34.7" fill="#B574F7" fill-opacity="0.07"/>
<rect opacity="0.3" x="1362.4" y="532.8" width="34.7" height="34.7" fill="#B574F7" fill-opacity="0.07"/>
<rect opacity="0.3" x="1400.1" y="532.8" width="34.7" height="34.7" fill="#B574F7" fill-opacity="0.07"/>
</g>
</g>
<path d="M-84.5 195C-54.5 205 23.1413 215.771 46.0115 215.478C66.266 214.275 73.0315 221.138 82.0115 238.478C92.0072 257.779 102.441 298.583 127.512 303.478C152.582 308.373 177.512 287.978 210.512 238.478C252.308 173.343 279.061 171.356 330.512 206.324C354.662 222.332 369.31 229.151 400.512 231.478C419.27 233.231 426.13 239.758 437.012 253.478C444.732 265.66 453.512 269.2 463.012 269.478C476.342 269.868 483.856 270.746 497.512 276.478C524.653 283.373 537.512 283.478 553.492 261.478C576.012 230.476 597.012 201.478 610.511 245.478C618.032 273.734 622.159 304.161 629.511 359.478C633.817 384.191 640.512 405.478 655.203 403.978C668.312 402.094 673.908 392.207 680.896 359.478C691.512 304.978 692.012 231.978 703.012 190.978C713.431 156.501 737.512 150.979 750.512 190.978C762.012 225.479 768.012 269.479 781.512 326.478C792.378 366.536 806.012 371.979 837.012 326.478C848.512 309.599 863.012 305.979 881.012 326.478C896.379 343.979 910.012 361.979 938.512 341.885C959.887 326.341 976.512 320.479 996.512 341.885C1016.51 364.479 1039.51 366.479 1060.51 331.978C1069.01 318.014 1080.51 315.479 1098.51 328.978C1113.37 339.73 1123.24 341.358 1142.01 340.978" stroke="url(#paint0_linear_637_2636)" stroke-width="4"/>
<rect x="727" y="280" width="32" height="32" rx="16" fill="#140F22"/>
<rect x="727.5" y="280.5" width="31" height="31" rx="15.5" stroke="#B574F7" stroke-opacity="0.07"/>
<path d="M747.667 302V300.667C747.667 299.959 747.386 299.281 746.886 298.781C746.386 298.281 745.707 298 745 298H741C740.293 298 739.615 298.281 739.115 298.781C738.614 299.281 738.333 299.959 738.333 300.667V302" stroke="white" stroke-width="1.4" stroke-linecap="round" stroke-linejoin="round"/>
<path d="M743 295.333C744.473 295.333 745.667 294.139 745.667 292.667C745.667 291.194 744.473 290 743 290C741.527 290 740.333 291.194 740.333 292.667C740.333 294.139 741.527 295.333 743 295.333Z" stroke="white" stroke-width="1.4" stroke-linecap="round" stroke-linejoin="round"/>
<rect x="902" y="304" width="32" height="32" rx="16" fill="#140F22"/>
<rect x="902.5" y="304.5" width="31" height="31" rx="15.5" stroke="#B574F7" stroke-opacity="0.07"/>
<path d="M922.667 326V324.667C922.667 323.959 922.386 323.281 921.886 322.781C921.386 322.281 920.707 322 920 322H916C915.293 322 914.615 322.281 914.115 322.781C913.614 323.281 913.333 323.959 913.333 324.667V326" stroke="white" stroke-width="1.4" stroke-linecap="round" stroke-linejoin="round"/>
<path d="M918 319.333C919.473 319.333 920.667 318.139 920.667 316.667C920.667 315.194 919.473 314 918 314C916.527 314 915.333 315.194 915.333 316.667C915.333 318.139 916.527 319.333 918 319.333Z" stroke="white" stroke-width="1.4" stroke-linecap="round" stroke-linejoin="round"/>
<circle cx="13.7875" cy="13.7875" r="13.7875" transform="matrix(-1 0 0 1 815.5 344.861)" fill="#B14DA5"/>
<circle cx="7" cy="7" r="6.5" transform="matrix(-1 0 0 1 808.535 351.876)" fill="black" stroke="#FBB3B5"/>
<circle cx="13.7875" cy="13.7875" r="13.7875" transform="matrix(-1 0 0 1 392.575 216)" fill="#8C6CF3"/>
<circle cx="7" cy="7" r="6.5" transform="matrix(-1 0 0 1 385.61 223.016)" fill="black" stroke="#CAB9FF"/>
<rect x="583" y="320" width="32" height="32" rx="16" fill="#140F22"/>
<rect x="583.5" y="320.5" width="31" height="31" rx="15.5" stroke="#B574F7" stroke-opacity="0.07"/>
<path d="M603.667 342V340.667C603.667 339.959 603.386 339.281 602.886 338.781C602.386 338.281 601.707 338 601 338H597C596.293 338 595.615 338.281 595.115 338.781C594.614 339.281 594.333 339.959 594.333 340.667V342" stroke="white" stroke-width="1.4" stroke-linecap="round" stroke-linejoin="round"/>
<path d="M599 335.333C600.473 335.333 601.667 334.139 601.667 332.667C601.667 331.194 600.473 330 599 330C597.527 330 596.333 331.194 596.333 332.667C596.333 334.139 597.527 335.333 599 335.333Z" stroke="white" stroke-width="1.4" stroke-linecap="round" stroke-linejoin="round"/>
<rect x="513" y="234" width="32" height="32" rx="16" fill="#140F22"/>
<rect x="513.5" y="234.5" width="31" height="31" rx="15.5" stroke="#B574F7" stroke-opacity="0.07"/>
<path d="M533.667 256V254.667C533.667 253.959 533.386 253.281 532.886 252.781C532.386 252.281 531.707 252 531 252H527C526.293 252 525.615 252.281 525.115 252.781C524.614 253.281 524.333 253.959 524.333 254.667V256" stroke="white" stroke-width="1.4" stroke-linecap="round" stroke-linejoin="round"/>
<path d="M529 249.333C530.473 249.333 531.667 248.139 531.667 246.667C531.667 245.194 530.473 244 529 244C527.527 244 526.333 245.194 526.333 246.667C526.333 248.139 527.527 249.333 529 249.333Z" stroke="white" stroke-width="1.4" stroke-linecap="round" stroke-linejoin="round"/>
<rect x="292" y="212" width="32" height="32" rx="16" fill="#140F22"/>
<rect x="292.5" y="212.5" width="31" height="31" rx="15.5" stroke="#B574F7" stroke-opacity="0.07"/>
<path d="M312.667 234V232.667C312.667 231.959 312.386 231.281 311.886 230.781C311.386 230.281 310.707 230 310 230H306C305.293 230 304.615 230.281 304.115 230.781C303.614 231.281 303.333 231.959 303.333 232.667V234" stroke="white" stroke-width="1.4" stroke-linecap="round" stroke-linejoin="round"/>
<path d="M308 227.333C309.473 227.333 310.667 226.139 310.667 224.667C310.667 223.194 309.473 222 308 222C306.527 222 305.333 223.194 305.333 224.667C305.333 226.139 306.527 227.333 308 227.333Z" stroke="white" stroke-width="1.4" stroke-linecap="round" stroke-linejoin="round"/>
<rect x="175" y="197" width="32" height="32" rx="16" fill="#140F22"/>
<rect x="175.5" y="197.5" width="31" height="31" rx="15.5" stroke="#B574F7" stroke-opacity="0.07"/>
<path d="M195.667 219V217.667C195.667 216.959 195.386 216.281 194.886 215.781C194.386 215.281 193.707 215 193 215H189C188.293 215 187.615 215.281 187.115 215.781C186.614 216.281 186.333 216.959 186.333 217.667V219" stroke="white" stroke-width="1.4" stroke-linecap="round" stroke-linejoin="round"/>
<path d="M191 212.333C192.473 212.333 193.667 211.139 193.667 209.667C193.667 208.194 192.473 207 191 207C189.527 207 188.333 208.194 188.333 209.667C188.333 211.139 189.527 212.333 191 212.333Z" stroke="white" stroke-width="1.4" stroke-linecap="round" stroke-linejoin="round"/>
<rect x="1244" width="196" height="539" fill="url(#paint1_linear_637_2636)"/>
<rect width="196" height="539" transform="matrix(-1 0 0 1 196 0)" fill="url(#paint2_linear_637_2636)"/>
<path d="M402.685 162.636V183H399.602V165.719H399.483L394.611 168.901V165.957L399.692 162.636H402.685ZM417.602 183H414.341L421.669 162.636H425.218L432.547 183H429.285L423.528 166.335H423.369L417.602 183ZM418.149 175.026H428.728V177.611H418.149V175.026ZM444.923 176.666V167.727H447.906V183H444.983V180.355H444.824C444.473 181.17 443.909 181.85 443.134 182.393C442.365 182.93 441.407 183.199 440.26 183.199C439.279 183.199 438.411 182.983 437.655 182.553C436.906 182.115 436.316 181.469 435.885 180.614C435.461 179.759 435.249 178.701 435.249 177.442V167.727H438.222V177.084C438.222 178.125 438.51 178.953 439.087 179.57C439.663 180.186 440.412 180.494 441.334 180.494C441.891 180.494 442.444 180.355 442.994 180.077C443.551 179.798 444.012 179.377 444.376 178.814C444.748 178.25 444.93 177.535 444.923 176.666ZM458.304 189.045C457.091 189.045 456.047 188.886 455.172 188.568C454.304 188.25 453.595 187.829 453.044 187.305C452.494 186.782 452.083 186.208 451.811 185.585L454.367 184.531C454.546 184.823 454.784 185.131 455.083 185.456C455.388 185.787 455.799 186.069 456.316 186.301C456.839 186.533 457.512 186.649 458.334 186.649C459.461 186.649 460.392 186.374 461.128 185.824C461.864 185.28 462.232 184.412 462.232 183.219V180.216H462.043C461.864 180.541 461.605 180.902 461.267 181.3C460.936 181.697 460.479 182.042 459.895 182.334C459.312 182.625 458.553 182.771 457.618 182.771C456.412 182.771 455.325 182.49 454.357 181.926C453.396 181.356 452.633 180.518 452.07 179.411C451.513 178.297 451.235 176.928 451.235 175.304C451.235 173.68 451.51 172.288 452.06 171.128C452.617 169.968 453.379 169.08 454.347 168.463C455.315 167.84 456.412 167.528 457.638 167.528C458.586 167.528 459.352 167.688 459.935 168.006C460.518 168.317 460.972 168.682 461.297 169.099C461.629 169.517 461.884 169.885 462.063 170.203H462.282V167.727H465.195V183.338C465.195 184.651 464.89 185.728 464.28 186.57C463.67 187.411 462.845 188.035 461.804 188.439C460.77 188.843 459.604 189.045 458.304 189.045ZM458.275 180.305C459.13 180.305 459.852 180.107 460.442 179.709C461.039 179.304 461.489 178.728 461.794 177.979C462.106 177.223 462.262 176.318 462.262 175.264C462.262 174.237 462.109 173.332 461.804 172.55C461.499 171.768 461.052 171.158 460.462 170.72C459.872 170.276 459.143 170.054 458.275 170.054C457.38 170.054 456.634 170.286 456.037 170.75C455.441 171.207 454.99 171.83 454.685 172.619C454.387 173.408 454.238 174.29 454.238 175.264C454.238 176.265 454.39 177.143 454.695 177.899C455 178.655 455.451 179.245 456.047 179.669C456.65 180.093 457.393 180.305 458.275 180.305ZM478.857 176.666V167.727H481.84V183H478.917V180.355H478.757C478.406 181.17 477.843 181.85 477.067 182.393C476.298 182.93 475.34 183.199 474.194 183.199C473.212 183.199 472.344 182.983 471.588 182.553C470.839 182.115 470.249 181.469 469.819 180.614C469.394 179.759 469.182 178.701 469.182 177.442V167.727H472.155V177.084C472.155 178.125 472.444 178.953 473.02 179.57C473.597 180.186 474.346 180.494 475.267 180.494C475.824 180.494 476.378 180.355 476.928 180.077C477.485 179.798 477.945 179.377 478.31 178.814C478.681 178.25 478.864 177.535 478.857 176.666ZM497.279 171.456L494.585 171.933C494.472 171.589 494.293 171.26 494.048 170.949C493.809 170.637 493.484 170.382 493.073 170.183C492.662 169.984 492.148 169.885 491.532 169.885C490.69 169.885 489.987 170.074 489.424 170.452C488.861 170.823 488.579 171.304 488.579 171.893C488.579 172.404 488.768 172.815 489.146 173.126C489.523 173.438 490.133 173.693 490.975 173.892L493.401 174.449C494.807 174.774 495.854 175.274 496.543 175.95C497.233 176.626 497.577 177.505 497.577 178.585C497.577 179.5 497.312 180.315 496.782 181.031C496.258 181.741 495.526 182.297 494.585 182.702C493.65 183.106 492.566 183.308 491.333 183.308C489.623 183.308 488.228 182.944 487.147 182.214C486.067 181.479 485.404 180.435 485.158 179.082L488.032 178.645C488.211 179.394 488.579 179.961 489.136 180.345C489.692 180.723 490.418 180.912 491.313 180.912C492.288 180.912 493.067 180.71 493.65 180.305C494.233 179.894 494.525 179.394 494.525 178.804C494.525 178.327 494.346 177.926 493.988 177.601C493.637 177.276 493.096 177.031 492.367 176.865L489.782 176.298C488.357 175.973 487.303 175.456 486.62 174.747C485.944 174.038 485.606 173.14 485.606 172.053C485.606 171.151 485.858 170.362 486.362 169.686C486.865 169.01 487.561 168.483 488.45 168.105C489.338 167.721 490.355 167.528 491.502 167.528C493.153 167.528 494.452 167.886 495.4 168.602C496.348 169.312 496.974 170.263 497.279 171.456ZM507.975 167.727V170.114H499.633V167.727H507.975ZM501.87 164.068H504.843V178.516C504.843 179.092 504.93 179.527 505.102 179.818C505.274 180.103 505.496 180.299 505.768 180.405C506.047 180.504 506.348 180.554 506.673 180.554C506.912 180.554 507.12 180.537 507.299 180.504C507.478 180.471 507.618 180.445 507.717 180.425L508.254 182.881C508.082 182.947 507.836 183.013 507.518 183.08C507.2 183.152 506.802 183.192 506.325 183.199C505.543 183.212 504.814 183.073 504.137 182.781C503.461 182.49 502.914 182.039 502.497 181.429C502.079 180.819 501.87 180.054 501.87 179.132V164.068Z" fill="#8C6CF3"/>
<path d="M397.751 210.149C397.304 210.142 396.857 210.057 396.409 209.893C395.962 209.73 395.553 209.455 395.184 209.068C394.815 208.677 394.518 208.15 394.294 207.486C394.071 206.818 393.959 205.98 393.959 204.972C393.959 204.006 394.049 203.15 394.23 202.404C394.412 201.655 394.674 201.025 395.019 200.513C395.363 199.998 395.779 199.608 396.265 199.341C396.755 199.075 397.308 198.942 397.922 198.942C398.533 198.942 399.076 199.064 399.552 199.309C400.031 199.551 400.422 199.888 400.724 200.321C401.026 200.755 401.221 201.254 401.31 201.818H400.01C399.889 201.328 399.655 200.922 399.307 200.598C398.959 200.275 398.497 200.114 397.922 200.114C397.077 200.114 396.411 200.481 395.924 201.216C395.441 201.951 395.198 202.983 395.195 204.311H395.28C395.479 204.009 395.715 203.752 395.988 203.539C396.265 203.322 396.571 203.155 396.904 203.038C397.238 202.921 397.592 202.862 397.964 202.862C398.589 202.862 399.161 203.018 399.68 203.331C400.198 203.64 400.614 204.068 400.926 204.615C401.239 205.158 401.395 205.781 401.395 206.484C401.395 207.159 401.244 207.777 400.942 208.338C400.64 208.896 400.216 209.339 399.669 209.67C399.126 209.996 398.487 210.156 397.751 210.149ZM397.751 208.977C398.199 208.977 398.6 208.865 398.955 208.642C399.314 208.418 399.596 208.118 399.802 207.741C400.012 207.365 400.116 206.946 400.116 206.484C400.116 206.033 400.015 205.623 399.813 205.254C399.614 204.881 399.339 204.585 398.987 204.364C398.639 204.144 398.241 204.034 397.794 204.034C397.457 204.034 397.142 204.102 396.851 204.237C396.56 204.368 396.304 204.549 396.084 204.78C395.868 205.011 395.697 205.275 395.573 205.574C395.449 205.868 395.386 206.179 395.386 206.506C395.386 206.939 395.488 207.344 395.69 207.72C395.896 208.097 396.176 208.4 396.532 208.631C396.89 208.862 397.297 208.977 397.751 208.977ZM407.048 210.149C406.245 210.149 405.562 209.931 404.997 209.494C404.432 209.054 404.001 208.416 403.703 207.582C403.404 206.744 403.255 205.732 403.255 204.545C403.255 203.366 403.404 202.36 403.703 201.525C404.005 200.687 404.438 200.048 405.002 199.608C405.571 199.164 406.252 198.942 407.048 198.942C407.843 198.942 408.523 199.164 409.088 199.608C409.656 200.048 410.089 200.687 410.388 201.525C410.69 202.36 410.84 203.366 410.84 204.545C410.84 205.732 410.691 206.744 410.393 207.582C410.095 208.416 409.663 209.054 409.099 209.494C408.534 209.931 407.85 210.149 407.048 210.149ZM407.048 208.977C407.843 208.977 408.461 208.594 408.902 207.827C409.342 207.06 409.562 205.966 409.562 204.545C409.562 203.601 409.461 202.797 409.258 202.132C409.06 201.468 408.772 200.962 408.396 200.614C408.023 200.266 407.573 200.092 407.048 200.092C406.259 200.092 405.643 200.481 405.199 201.259C404.756 202.033 404.534 203.129 404.534 204.545C404.534 205.49 404.633 206.293 404.832 206.953C405.031 207.614 405.317 208.116 405.69 208.461C406.066 208.805 406.519 208.977 407.048 208.977ZM416.423 210.149C415.62 210.149 414.937 209.931 414.372 209.494C413.807 209.054 413.376 208.416 413.078 207.582C412.779 206.744 412.63 205.732 412.63 204.545C412.63 203.366 412.779 202.36 413.078 201.525C413.38 200.687 413.813 200.048 414.377 199.608C414.946 199.164 415.627 198.942 416.423 198.942C417.218 198.942 417.898 199.164 418.463 199.608C419.031 200.048 419.464 200.687 419.763 201.525C420.065 202.36 420.215 203.366 420.215 204.545C420.215 205.732 420.066 206.744 419.768 207.582C419.47 208.416 419.038 209.054 418.474 209.494C417.909 209.931 417.225 210.149 416.423 210.149ZM416.423 208.977C417.218 208.977 417.836 208.594 418.277 207.827C418.717 207.06 418.937 205.966 418.937 204.545C418.937 203.601 418.836 202.797 418.633 202.132C418.435 201.468 418.147 200.962 417.771 200.614C417.398 200.266 416.948 200.092 416.423 200.092C415.634 200.092 415.018 200.481 414.574 201.259C414.131 202.033 413.909 203.129 413.909 204.545C413.909 205.49 414.008 206.293 414.207 206.953C414.406 207.614 414.692 208.116 415.065 208.461C415.441 208.805 415.894 208.977 416.423 208.977ZM431.636 206.655V201.818H432.893V210H431.636V208.615H431.551C431.359 209.031 431.061 209.384 430.656 209.675C430.251 209.963 429.74 210.107 429.122 210.107C428.61 210.107 428.156 209.995 427.758 209.771C427.36 209.544 427.048 209.203 426.821 208.748C426.593 208.29 426.48 207.713 426.48 207.017V201.818H427.737V206.932C427.737 207.528 427.904 208.004 428.237 208.359C428.575 208.714 429.005 208.892 429.527 208.892C429.839 208.892 430.157 208.812 430.48 208.652C430.807 208.493 431.08 208.248 431.3 207.917C431.524 207.587 431.636 207.166 431.636 206.655ZM440.991 203.651L439.862 203.97C439.791 203.782 439.686 203.599 439.547 203.422C439.412 203.24 439.228 203.091 438.993 202.974C438.759 202.857 438.459 202.798 438.093 202.798C437.593 202.798 437.175 202.914 436.841 203.145C436.511 203.372 436.346 203.661 436.346 204.013C436.346 204.325 436.46 204.572 436.687 204.753C436.914 204.934 437.269 205.085 437.752 205.206L438.967 205.504C439.698 205.682 440.243 205.953 440.602 206.319C440.961 206.681 441.14 207.148 441.14 207.72C441.14 208.189 441.005 208.608 440.735 208.977C440.469 209.347 440.096 209.638 439.617 209.851C439.137 210.064 438.58 210.17 437.944 210.17C437.11 210.17 436.419 209.989 435.872 209.627C435.325 209.265 434.979 208.736 434.833 208.04L436.026 207.741C436.14 208.182 436.355 208.512 436.671 208.732C436.991 208.952 437.408 209.062 437.923 209.062C438.509 209.062 438.974 208.938 439.318 208.69C439.666 208.437 439.84 208.136 439.84 207.784C439.84 207.5 439.741 207.262 439.542 207.07C439.343 206.875 439.038 206.729 438.626 206.634L437.262 206.314C436.513 206.136 435.963 205.861 435.611 205.488C435.263 205.112 435.089 204.641 435.089 204.077C435.089 203.615 435.219 203.207 435.478 202.852C435.741 202.496 436.097 202.218 436.548 202.015C437.003 201.813 437.518 201.712 438.093 201.712C438.903 201.712 439.539 201.889 440 202.244C440.465 202.599 440.796 203.068 440.991 203.651ZM446.463 210.17C445.674 210.17 444.994 209.996 444.423 209.648C443.854 209.297 443.416 208.807 443.107 208.178C442.802 207.546 442.649 206.811 442.649 205.973C442.649 205.135 442.802 204.396 443.107 203.757C443.416 203.114 443.846 202.614 444.396 202.255C444.95 201.893 445.596 201.712 446.335 201.712C446.761 201.712 447.182 201.783 447.597 201.925C448.013 202.067 448.391 202.298 448.732 202.617C449.073 202.933 449.345 203.352 449.547 203.874C449.749 204.396 449.851 205.039 449.851 205.803V206.335H443.544V205.249H448.572C448.572 204.787 448.48 204.375 448.295 204.013C448.114 203.651 447.855 203.365 447.517 203.155C447.184 202.946 446.79 202.841 446.335 202.841C445.834 202.841 445.401 202.965 445.035 203.214C444.673 203.459 444.394 203.778 444.199 204.173C444.004 204.567 443.906 204.989 443.906 205.44V206.165C443.906 206.783 444.013 207.306 444.226 207.736C444.442 208.162 444.742 208.487 445.126 208.711C445.509 208.931 445.955 209.041 446.463 209.041C446.793 209.041 447.091 208.995 447.358 208.903C447.628 208.807 447.86 208.665 448.055 208.477C448.251 208.285 448.402 208.047 448.508 207.763L449.723 208.104C449.595 208.516 449.38 208.878 449.078 209.19C448.776 209.499 448.403 209.741 447.96 209.915C447.516 210.085 447.017 210.17 446.463 210.17ZM451.763 210V201.818H452.977V203.054H453.063C453.212 202.649 453.482 202.321 453.872 202.069C454.263 201.816 454.703 201.69 455.193 201.69C455.286 201.69 455.401 201.692 455.54 201.696C455.678 201.699 455.783 201.705 455.854 201.712V202.99C455.811 202.979 455.714 202.963 455.561 202.942C455.412 202.917 455.254 202.905 455.087 202.905C454.689 202.905 454.334 202.988 454.021 203.155C453.712 203.319 453.467 203.546 453.286 203.837C453.109 204.125 453.02 204.453 453.02 204.822V210H451.763ZM463.139 203.651L462.01 203.97C461.939 203.782 461.834 203.599 461.696 203.422C461.561 203.24 461.376 203.091 461.142 202.974C460.907 202.857 460.607 202.798 460.242 202.798C459.741 202.798 459.324 202.914 458.99 203.145C458.66 203.372 458.494 203.661 458.494 204.013C458.494 204.325 458.608 204.572 458.835 204.753C459.063 204.934 459.418 205.085 459.901 205.206L461.115 205.504C461.847 205.682 462.392 205.953 462.751 206.319C463.109 206.681 463.289 207.148 463.289 207.72C463.289 208.189 463.154 208.608 462.884 208.977C462.617 209.347 462.244 209.638 461.765 209.851C461.286 210.064 460.728 210.17 460.093 210.17C459.258 210.17 458.567 209.989 458.02 209.627C457.474 209.265 457.127 208.736 456.982 208.04L458.175 207.741C458.289 208.182 458.503 208.512 458.819 208.732C459.139 208.952 459.556 209.062 460.071 209.062C460.657 209.062 461.122 208.938 461.467 208.69C461.815 208.437 461.989 208.136 461.989 207.784C461.989 207.5 461.889 207.262 461.691 207.07C461.492 206.875 461.186 206.729 460.774 206.634L459.411 206.314C458.661 206.136 458.111 205.861 457.759 205.488C457.411 205.112 457.237 204.641 457.237 204.077C457.237 203.615 457.367 203.207 457.626 202.852C457.889 202.496 458.246 202.218 458.697 202.015C459.151 201.813 459.666 201.712 460.242 201.712C461.051 201.712 461.687 201.889 462.149 202.244C462.614 202.599 462.944 203.068 463.139 203.651Z" fill="white"/>
<path d="M847.685 365.636V386H844.602V368.719H844.483L839.611 371.901V368.957L844.692 365.636H847.685ZM853.193 386V383.773L860.084 376.634C860.82 375.858 861.426 375.179 861.903 374.595C862.387 374.005 862.749 373.445 862.987 372.915C863.226 372.384 863.345 371.821 863.345 371.224C863.345 370.548 863.186 369.965 862.868 369.474C862.55 368.977 862.116 368.596 861.565 368.331C861.015 368.059 860.395 367.923 859.706 367.923C858.977 367.923 858.34 368.072 857.797 368.371C857.253 368.669 856.836 369.09 856.544 369.634C856.252 370.177 856.107 370.813 856.107 371.543H853.173C853.173 370.303 853.458 369.219 854.028 368.291C854.598 367.363 855.381 366.644 856.375 366.134C857.369 365.616 858.5 365.358 859.766 365.358C861.045 365.358 862.172 365.613 863.146 366.124C864.127 366.627 864.893 367.317 865.443 368.192C865.993 369.06 866.268 370.041 866.268 371.135C866.268 371.891 866.126 372.63 865.841 373.352C865.563 374.075 865.075 374.88 864.379 375.768C863.683 376.65 862.715 377.721 861.476 378.98L857.429 383.216V383.365H866.597V386H853.193ZM879.774 386H876.512L883.841 365.636H887.39L894.718 386H891.457L885.7 369.335H885.541L879.774 386ZM880.321 378.026H890.9V380.611H880.321V378.026ZM907.095 379.666V370.727H910.078V386H907.155V383.355H906.996C906.644 384.17 906.081 384.85 905.305 385.393C904.536 385.93 903.579 386.199 902.432 386.199C901.451 386.199 900.582 385.983 899.827 385.553C899.078 385.115 898.488 384.469 898.057 383.614C897.633 382.759 897.42 381.701 897.42 380.442V370.727H900.393V380.084C900.393 381.125 900.682 381.953 901.259 382.57C901.835 383.186 902.584 383.494 903.506 383.494C904.063 383.494 904.616 383.355 905.166 383.077C905.723 382.798 906.184 382.377 906.548 381.814C906.92 381.25 907.102 380.535 907.095 379.666ZM920.476 392.045C919.263 392.045 918.219 391.886 917.344 391.568C916.476 391.25 915.766 390.829 915.216 390.305C914.666 389.782 914.255 389.208 913.983 388.585L916.539 387.531C916.718 387.823 916.956 388.131 917.255 388.456C917.56 388.787 917.971 389.069 918.488 389.301C919.011 389.533 919.684 389.649 920.506 389.649C921.633 389.649 922.564 389.374 923.3 388.824C924.036 388.28 924.404 387.412 924.404 386.219V383.216H924.215C924.036 383.541 923.777 383.902 923.439 384.3C923.108 384.697 922.65 385.042 922.067 385.334C921.484 385.625 920.725 385.771 919.79 385.771C918.584 385.771 917.497 385.49 916.529 384.926C915.568 384.356 914.805 383.518 914.242 382.411C913.685 381.297 913.407 379.928 913.407 378.304C913.407 376.68 913.682 375.288 914.232 374.128C914.789 372.968 915.551 372.08 916.519 371.463C917.487 370.84 918.584 370.528 919.81 370.528C920.758 370.528 921.524 370.688 922.107 371.006C922.69 371.317 923.144 371.682 923.469 372.099C923.801 372.517 924.056 372.885 924.235 373.203H924.453V370.727H927.367V386.338C927.367 387.651 927.062 388.728 926.452 389.57C925.842 390.411 925.017 391.035 923.976 391.439C922.942 391.843 921.775 392.045 920.476 392.045ZM920.446 383.305C921.301 383.305 922.024 383.107 922.614 382.709C923.211 382.304 923.661 381.728 923.966 380.979C924.278 380.223 924.434 379.318 924.434 378.264C924.434 377.237 924.281 376.332 923.976 375.55C923.671 374.768 923.224 374.158 922.634 373.72C922.044 373.276 921.315 373.054 920.446 373.054C919.551 373.054 918.806 373.286 918.209 373.75C917.613 374.207 917.162 374.83 916.857 375.619C916.559 376.408 916.409 377.29 916.409 378.264C916.409 379.265 916.562 380.143 916.867 380.899C917.172 381.655 917.623 382.245 918.219 382.669C918.822 383.093 919.565 383.305 920.446 383.305ZM941.029 379.666V370.727H944.012V386H941.088V383.355H940.929C940.578 384.17 940.015 384.85 939.239 385.393C938.47 385.93 937.512 386.199 936.365 386.199C935.384 386.199 934.516 385.983 933.76 385.553C933.011 385.115 932.421 384.469 931.99 383.614C931.566 382.759 931.354 381.701 931.354 380.442V370.727H934.327V380.084C934.327 381.125 934.615 381.953 935.192 382.57C935.769 383.186 936.518 383.494 937.439 383.494C937.996 383.494 938.55 383.355 939.1 383.077C939.657 382.798 940.117 382.377 940.482 381.814C940.853 381.25 941.035 380.535 941.029 379.666ZM959.451 374.456L956.756 374.933C956.644 374.589 956.465 374.26 956.219 373.949C955.981 373.637 955.656 373.382 955.245 373.183C954.834 372.984 954.32 372.885 953.704 372.885C952.862 372.885 952.159 373.074 951.596 373.452C951.032 373.823 950.751 374.304 950.751 374.893C950.751 375.404 950.94 375.815 951.317 376.126C951.695 376.438 952.305 376.693 953.147 376.892L955.573 377.449C956.978 377.774 958.026 378.274 958.715 378.95C959.405 379.626 959.749 380.505 959.749 381.585C959.749 382.5 959.484 383.315 958.954 384.031C958.43 384.741 957.698 385.297 956.756 385.702C955.822 386.106 954.738 386.308 953.505 386.308C951.795 386.308 950.399 385.944 949.319 385.214C948.238 384.479 947.576 383.435 947.33 382.082L950.204 381.645C950.383 382.394 950.751 382.961 951.308 383.345C951.864 383.723 952.59 383.912 953.485 383.912C954.46 383.912 955.238 383.71 955.822 383.305C956.405 382.894 956.697 382.394 956.697 381.804C956.697 381.327 956.518 380.926 956.16 380.601C955.808 380.276 955.268 380.031 954.539 379.865L951.954 379.298C950.529 378.973 949.475 378.456 948.792 377.747C948.116 377.038 947.778 376.14 947.778 375.053C947.778 374.151 948.03 373.362 948.533 372.686C949.037 372.01 949.733 371.483 950.621 371.105C951.51 370.721 952.527 370.528 953.674 370.528C955.325 370.528 956.624 370.886 957.572 371.602C958.52 372.312 959.146 373.263 959.451 374.456ZM970.147 370.727V373.114H961.805V370.727H970.147ZM964.042 367.068H967.015V381.516C967.015 382.092 967.101 382.527 967.274 382.818C967.446 383.103 967.668 383.299 967.94 383.405C968.218 383.504 968.52 383.554 968.845 383.554C969.083 383.554 969.292 383.537 969.471 383.504C969.65 383.471 969.789 383.445 969.889 383.425L970.426 385.881C970.253 385.947 970.008 386.013 969.69 386.08C969.372 386.152 968.974 386.192 968.497 386.199C967.715 386.212 966.985 386.073 966.309 385.781C965.633 385.49 965.086 385.039 964.669 384.429C964.251 383.819 964.042 383.054 964.042 382.132V367.068Z" fill="#B14DA5"/>
<path d="M838.874 410.763V409.676L843.668 402.091H844.456V403.774H843.923L840.301 409.506V409.591H846.757V410.763H838.874ZM844.009 413V410.433V409.926V402.091H845.266V413H844.009ZM852.312 413.149C851.509 413.149 850.825 412.931 850.261 412.494C849.696 412.054 849.265 411.416 848.966 410.582C848.668 409.744 848.519 408.732 848.519 407.545C848.519 406.366 848.668 405.36 848.966 404.525C849.268 403.687 849.701 403.048 850.266 402.608C850.834 402.164 851.516 401.942 852.312 401.942C853.107 401.942 853.787 402.164 854.352 402.608C854.92 403.048 855.353 403.687 855.651 404.525C855.953 405.36 856.104 406.366 856.104 407.545C856.104 408.732 855.955 409.744 855.657 410.582C855.358 411.416 854.927 412.054 854.362 412.494C853.798 412.931 853.114 413.149 852.312 413.149ZM852.312 411.977C853.107 411.977 853.725 411.594 854.165 410.827C854.606 410.06 854.826 408.966 854.826 407.545C854.826 406.601 854.725 405.797 854.522 405.132C854.323 404.468 854.036 403.962 853.659 403.614C853.286 403.266 852.837 403.092 852.312 403.092C851.523 403.092 850.907 403.481 850.463 404.259C850.019 405.033 849.797 406.129 849.797 407.545C849.797 408.49 849.897 409.293 850.096 409.953C850.294 410.614 850.58 411.116 850.953 411.461C851.33 411.805 851.782 411.977 852.312 411.977ZM861.687 413.149C860.884 413.149 860.2 412.931 859.636 412.494C859.071 412.054 858.64 411.416 858.341 410.582C858.043 409.744 857.894 408.732 857.894 407.545C857.894 406.366 858.043 405.36 858.341 404.525C858.643 403.687 859.076 403.048 859.641 402.608C860.209 402.164 860.891 401.942 861.687 401.942C862.482 401.942 863.162 402.164 863.727 402.608C864.295 403.048 864.728 403.687 865.026 404.525C865.328 405.36 865.479 406.366 865.479 407.545C865.479 408.732 865.33 409.744 865.032 410.582C864.733 411.416 864.302 412.054 863.737 412.494C863.173 412.931 862.489 413.149 861.687 413.149ZM861.687 411.977C862.482 411.977 863.1 411.594 863.54 410.827C863.981 410.06 864.201 408.966 864.201 407.545C864.201 406.601 864.1 405.797 863.897 405.132C863.698 404.468 863.411 403.962 863.034 403.614C862.661 403.266 862.212 403.092 861.687 403.092C860.898 403.092 860.282 403.481 859.838 404.259C859.394 405.033 859.172 406.129 859.172 407.545C859.172 408.49 859.272 409.293 859.471 409.953C859.669 410.614 859.955 411.116 860.328 411.461C860.705 411.805 861.157 411.977 861.687 411.977ZM876.9 409.655V404.818H878.157V413H876.9V411.615H876.814C876.623 412.031 876.324 412.384 875.919 412.675C875.515 412.963 875.003 413.107 874.385 413.107C873.874 413.107 873.419 412.995 873.022 412.771C872.624 412.544 872.312 412.203 872.084 411.748C871.857 411.29 871.743 410.713 871.743 410.017V404.818H873V409.932C873 410.528 873.167 411.004 873.501 411.359C873.839 411.714 874.268 411.892 874.79 411.892C875.103 411.892 875.421 411.812 875.744 411.652C876.07 411.493 876.344 411.248 876.564 410.917C876.788 410.587 876.9 410.166 876.9 409.655ZM886.255 406.651L885.125 406.97C885.054 406.782 884.95 406.599 884.811 406.422C884.676 406.24 884.491 406.091 884.257 405.974C884.023 405.857 883.723 405.798 883.357 405.798C882.856 405.798 882.439 405.914 882.105 406.145C881.775 406.372 881.61 406.661 881.61 407.013C881.61 407.325 881.723 407.572 881.951 407.753C882.178 407.934 882.533 408.085 883.016 408.206L884.23 408.504C884.962 408.682 885.507 408.953 885.866 409.319C886.224 409.681 886.404 410.148 886.404 410.72C886.404 411.189 886.269 411.608 885.999 411.977C885.733 412.347 885.36 412.638 884.88 412.851C884.401 413.064 883.843 413.17 883.208 413.17C882.373 413.17 881.683 412.989 881.136 412.627C880.589 412.265 880.243 411.736 880.097 411.04L881.29 410.741C881.404 411.182 881.619 411.512 881.935 411.732C882.254 411.952 882.672 412.062 883.186 412.062C883.772 412.062 884.238 411.938 884.582 411.69C884.93 411.437 885.104 411.136 885.104 410.784C885.104 410.5 885.005 410.262 884.806 410.07C884.607 409.875 884.301 409.729 883.89 409.634L882.526 409.314C881.777 409.136 881.226 408.861 880.875 408.488C880.527 408.112 880.353 407.641 880.353 407.077C880.353 406.615 880.482 406.207 880.741 405.852C881.004 405.496 881.361 405.218 881.812 405.015C882.267 404.813 882.782 404.712 883.357 404.712C884.167 404.712 884.802 404.889 885.264 405.244C885.729 405.599 886.059 406.068 886.255 406.651ZM891.726 413.17C890.938 413.17 890.258 412.996 889.686 412.648C889.118 412.297 888.68 411.807 888.371 411.178C888.065 410.546 887.913 409.811 887.913 408.973C887.913 408.135 888.065 407.396 888.371 406.757C888.68 406.114 889.109 405.614 889.66 405.255C890.214 404.893 890.86 404.712 891.599 404.712C892.025 404.712 892.446 404.783 892.861 404.925C893.277 405.067 893.655 405.298 893.996 405.617C894.337 405.933 894.608 406.352 894.811 406.874C895.013 407.396 895.114 408.039 895.114 408.803V409.335H888.807V408.249H893.836C893.836 407.787 893.744 407.375 893.559 407.013C893.378 406.651 893.119 406.365 892.781 406.155C892.447 405.946 892.053 405.841 891.599 405.841C891.098 405.841 890.665 405.965 890.299 406.214C889.937 406.459 889.658 406.778 889.463 407.173C889.267 407.567 889.17 407.989 889.17 408.44V409.165C889.17 409.783 889.276 410.306 889.489 410.736C889.706 411.162 890.006 411.487 890.389 411.711C890.773 411.931 891.219 412.041 891.726 412.041C892.057 412.041 892.355 411.995 892.621 411.903C892.891 411.807 893.124 411.665 893.319 411.477C893.514 411.285 893.665 411.047 893.772 410.763L894.986 411.104C894.859 411.516 894.644 411.878 894.342 412.19C894.04 412.499 893.667 412.741 893.223 412.915C892.779 413.085 892.28 413.17 891.726 413.17ZM897.027 413V404.818H898.241V406.054H898.326C898.475 405.649 898.745 405.321 899.136 405.069C899.527 404.816 899.967 404.69 900.457 404.69C900.549 404.69 900.665 404.692 900.803 404.696C900.942 404.699 901.046 404.705 901.117 404.712V405.99C901.075 405.979 900.977 405.963 900.824 405.942C900.675 405.917 900.517 405.905 900.35 405.905C899.953 405.905 899.598 405.988 899.285 406.155C898.976 406.319 898.731 406.546 898.55 406.837C898.372 407.125 898.284 407.453 898.284 407.822V413H897.027ZM908.403 406.651L907.274 406.97C907.203 406.782 907.098 406.599 906.96 406.422C906.825 406.24 906.64 406.091 906.406 405.974C906.171 405.857 905.871 405.798 905.505 405.798C905.005 405.798 904.587 405.914 904.254 406.145C903.923 406.372 903.758 406.661 903.758 407.013C903.758 407.325 903.872 407.572 904.099 407.753C904.326 407.934 904.681 408.085 905.164 408.206L906.379 408.504C907.11 408.682 907.656 408.953 908.014 409.319C908.373 409.681 908.552 410.148 908.552 410.72C908.552 411.189 908.417 411.608 908.147 411.977C907.881 412.347 907.508 412.638 907.029 412.851C906.549 413.064 905.992 413.17 905.356 413.17C904.522 413.17 903.831 412.989 903.284 412.627C902.737 412.265 902.391 411.736 902.245 411.04L903.439 410.741C903.552 411.182 903.767 411.512 904.083 411.732C904.403 411.952 904.82 412.062 905.335 412.062C905.921 412.062 906.386 411.938 906.73 411.69C907.078 411.437 907.252 411.136 907.252 410.784C907.252 410.5 907.153 410.262 906.954 410.07C906.755 409.875 906.45 409.729 906.038 409.634L904.674 409.314C903.925 409.136 903.375 408.861 903.023 408.488C902.675 408.112 902.501 407.641 902.501 407.077C902.501 406.615 902.631 406.207 902.89 405.852C903.153 405.496 903.51 405.218 903.961 405.015C904.415 404.813 904.93 404.712 905.505 404.712C906.315 404.712 906.951 404.889 907.412 405.244C907.877 405.599 908.208 406.068 908.403 406.651Z" fill="white"/>
<defs>
<linearGradient id="paint0_linear_637_2636" x1="-2445.74" y1="182.979" x2="-2445.74" y2="494.702" gradientUnits="userSpaceOnUse">
<stop offset="0.333491" stop-color="#8C6CF3"/>
<stop offset="1" stop-color="#EE4045"/>
</linearGradient>
<linearGradient id="paint1_linear_637_2636" x1="1440" y1="269.5" x2="1244" y2="269.5" gradientUnits="userSpaceOnUse">
<stop/>
<stop offset="1" stop-opacity="0"/>
</linearGradient>
<linearGradient id="paint2_linear_637_2636" x1="196" y1="269.5" x2="0" y2="269.5" gradientUnits="userSpaceOnUse">
<stop/>
<stop offset="1" stop-opacity="0"/>
</linearGradient>
<clipPath id="clip0_637_2636">
<rect width="1440" height="566" fill="white" transform="translate(0 5)"/>
</clipPath>
</defs>
</svg>
