<svg width="1440" height="539" viewBox="0 0 1440 539" fill="none" xmlns="http://www.w3.org/2000/svg">
<path d="M-39.5 386.506C-7.19271 384.003 66.3684 515.738 125.516 404.305C139.046 378.813 189.633 365.121 261.206 404.305C303.951 423.196 334.768 400.532 376.021 423.196C396.897 434.664 409.323 427.445 439.145 423.196C488.848 409.976 490.837 431.695 539.049 409.976C560.81 399.688 577.321 400.532 592.232 409.976C648.397 449.636 695.615 443.971 772.163 364.177C811.424 312.712 800.49 239.056 834.785 194.201C865.104 154.547 914.311 156.429 925.742 194.201C935.186 234.334 965.505 260.775 988.866 226.78C1002.17 207.421 997.316 169.649 1003.78 142.264C1011.02 111.574 1041.05 96.4655 1053.98 125.739C1062.43 144.887 1068.39 183.342 1089.76 191.368C1100.3 196.181 1114.88 187.067 1130.02 163.983C1149.76 130.213 1177.24 133.293 1192.65 171.538C1203.48 197.251 1216.51 233.862 1252.29 194.201C1264.71 179.443 1277.12 174.568 1315.92 176.259C1349.19 178.044 1365.57 183.295 1393.95 194.201" stroke="url(#paint0_linear_637_1689)" stroke-width="4"/>
<rect x="1014" y="150" width="32" height="32" rx="16" fill="#140F22"/>
<rect x="1014.5" y="150.5" width="31" height="31" rx="15.5" stroke="#B574F7" stroke-opacity="0.07"/>
<path d="M1034.67 172V170.667C1034.67 169.959 1034.39 169.281 1033.89 168.781C1033.39 168.281 1032.71 168 1032 168H1028C1027.29 168 1026.61 168.281 1026.11 168.781C1025.61 169.281 1025.33 169.959 1025.33 170.667V172" stroke="white" stroke-width="1.4" stroke-linecap="round" stroke-linejoin="round"/>
<path d="M1030 165.333C1031.47 165.333 1032.67 164.139 1032.67 162.667C1032.67 161.194 1031.47 160 1030 160C1028.53 160 1027.33 161.194 1027.33 162.667C1027.33 164.139 1028.53 165.333 1030 165.333Z" stroke="white" stroke-width="1.4" stroke-linecap="round" stroke-linejoin="round"/>
<rect x="890" y="206" width="32" height="32" rx="16" fill="#140F22"/>
<rect x="890.5" y="206.5" width="31" height="31" rx="15.5" stroke="#B574F7" stroke-opacity="0.07"/>
<path d="M910.667 228V226.667C910.667 225.959 910.386 225.281 909.886 224.781C909.386 224.281 908.707 224 908 224H904C903.293 224 902.615 224.281 902.115 224.781C901.614 225.281 901.333 225.959 901.333 226.667V228" stroke="white" stroke-width="1.4" stroke-linecap="round" stroke-linejoin="round"/>
<path d="M906 221.333C907.473 221.333 908.667 220.139 908.667 218.667C908.667 217.194 907.473 216 906 216C904.527 216 903.333 217.194 903.333 218.667C903.333 220.139 904.527 221.333 906 221.333Z" stroke="white" stroke-width="1.4" stroke-linecap="round" stroke-linejoin="round"/>
<circle cx="13.7875" cy="13.7875" r="13.7875" transform="matrix(-1 0 0 1 522.575 403.861)" fill="#EE4045"/>
<circle cx="7" cy="7" r="6.5" transform="matrix(-1 0 0 1 515.61 410.876)" fill="black" stroke="#FBB3B5"/>
<circle cx="13.7875" cy="13.7875" r="13.7875" transform="matrix(-1 0 0 1 871.575 159)" fill="#8C6CF3"/>
<circle cx="7" cy="7" r="6.5" transform="matrix(-1 0 0 1 864.61 166.016)" fill="black" stroke="#CAB9FF"/>
<rect x="627" y="391" width="32" height="32" rx="16" fill="#140F22"/>
<rect x="627.5" y="391.5" width="31" height="31" rx="15.5" stroke="#B574F7" stroke-opacity="0.07"/>
<path d="M647.667 413V411.667C647.667 410.959 647.386 410.281 646.886 409.781C646.386 409.281 645.707 409 645 409H641C640.293 409 639.615 409.281 639.115 409.781C638.614 410.281 638.333 410.959 638.333 411.667V413" stroke="white" stroke-width="1.4" stroke-linecap="round" stroke-linejoin="round"/>
<path d="M643 406.333C644.473 406.333 645.667 405.139 645.667 403.667C645.667 402.194 644.473 401 643 401C641.527 401 640.333 402.194 640.333 403.667C640.333 405.139 641.527 406.333 643 406.333Z" stroke="white" stroke-width="1.4" stroke-linecap="round" stroke-linejoin="round"/>
<rect x="382" y="381" width="32" height="32" rx="16" fill="#140F22"/>
<rect x="382.5" y="381.5" width="31" height="31" rx="15.5" stroke="#B574F7" stroke-opacity="0.07"/>
<path d="M402.667 403V401.667C402.667 400.959 402.386 400.281 401.886 399.781C401.386 399.281 400.707 399 400 399H396C395.293 399 394.615 399.281 394.115 399.781C393.614 400.281 393.333 400.959 393.333 401.667V403" stroke="white" stroke-width="1.4" stroke-linecap="round" stroke-linejoin="round"/>
<path d="M398 396.333C399.473 396.333 400.667 395.139 400.667 393.667C400.667 392.194 399.473 391 398 391C396.527 391 395.333 392.194 395.333 393.667C395.333 395.139 396.527 396.333 398 396.333Z" stroke="white" stroke-width="1.4" stroke-linecap="round" stroke-linejoin="round"/>
<rect x="423" y="437" width="32" height="32" rx="16" fill="#140F22"/>
<rect x="423.5" y="437.5" width="31" height="31" rx="15.5" stroke="#B574F7" stroke-opacity="0.07"/>
<path d="M443.667 459V457.667C443.667 456.959 443.386 456.281 442.886 455.781C442.386 455.281 441.707 455 441 455H437C436.293 455 435.615 455.281 435.115 455.781C434.614 456.281 434.333 456.959 434.333 457.667V459" stroke="white" stroke-width="1.4" stroke-linecap="round" stroke-linejoin="round"/>
<path d="M439 452.333C440.473 452.333 441.667 451.139 441.667 449.667C441.667 448.194 440.473 447 439 447C437.527 447 436.333 448.194 436.333 449.667C436.333 451.139 437.527 452.333 439 452.333Z" stroke="white" stroke-width="1.4" stroke-linecap="round" stroke-linejoin="round"/>
<rect x="266" y="368" width="32" height="32" rx="16" fill="#140F22"/>
<rect x="266.5" y="368.5" width="31" height="31" rx="15.5" stroke="#B574F7" stroke-opacity="0.07"/>
<path d="M286.667 390V388.667C286.667 387.959 286.386 387.281 285.886 386.781C285.386 386.281 284.707 386 284 386H280C279.293 386 278.615 386.281 278.115 386.781C277.614 387.281 277.333 387.959 277.333 388.667V390" stroke="white" stroke-width="1.4" stroke-linecap="round" stroke-linejoin="round"/>
<path d="M282 383.333C283.473 383.333 284.667 382.139 284.667 380.667C284.667 379.194 283.473 378 282 378C280.527 378 279.333 379.194 279.333 380.667C279.333 382.139 280.527 383.333 282 383.333Z" stroke="white" stroke-width="1.4" stroke-linecap="round" stroke-linejoin="round"/>
<path d="M878.685 101.636V122H875.602V104.719H875.483L870.611 107.901V104.957L875.692 101.636H878.685ZM891.074 122.278C889.649 122.278 888.389 122.033 887.295 121.543C886.208 121.052 885.357 120.376 884.74 119.514C884.124 118.652 883.819 117.671 883.825 116.571C883.819 115.709 883.994 114.917 884.352 114.195C884.717 113.465 885.211 112.859 885.834 112.375C886.457 111.884 887.153 111.573 887.922 111.44V111.321C886.908 111.076 886.096 110.532 885.486 109.69C884.876 108.848 884.574 107.881 884.581 106.787C884.574 105.746 884.849 104.818 885.406 104.003C885.97 103.181 886.742 102.535 887.723 102.064C888.704 101.593 889.821 101.358 891.074 101.358C892.313 101.358 893.42 101.597 894.395 102.074C895.376 102.545 896.148 103.191 896.712 104.013C897.275 104.828 897.56 105.753 897.567 106.787C897.56 107.881 897.249 108.848 896.632 109.69C896.016 110.532 895.214 111.076 894.226 111.321V111.44C894.988 111.573 895.674 111.884 896.284 112.375C896.901 112.859 897.391 113.465 897.756 114.195C898.127 114.917 898.316 115.709 898.322 116.571C898.316 117.671 898.004 118.652 897.388 119.514C896.771 120.376 895.916 121.052 894.822 121.543C893.735 122.033 892.486 122.278 891.074 122.278ZM891.074 119.763C891.916 119.763 892.645 119.624 893.261 119.345C893.878 119.06 894.355 118.666 894.693 118.162C895.031 117.652 895.204 117.055 895.21 116.372C895.204 115.663 895.018 115.036 894.653 114.493C894.295 113.949 893.808 113.522 893.192 113.21C892.575 112.899 891.869 112.743 891.074 112.743C890.272 112.743 889.559 112.899 888.936 113.21C888.313 113.522 887.822 113.949 887.464 114.493C887.107 115.036 886.931 115.663 886.938 116.372C886.931 117.055 887.093 117.652 887.425 118.162C887.763 118.666 888.243 119.06 888.866 119.345C889.49 119.624 890.225 119.763 891.074 119.763ZM891.074 110.287C891.75 110.287 892.35 110.151 892.874 109.879C893.397 109.607 893.808 109.23 894.107 108.746C894.411 108.262 894.567 107.695 894.574 107.045C894.567 106.409 894.415 105.852 894.116 105.375C893.825 104.898 893.417 104.53 892.893 104.271C892.37 104.006 891.763 103.874 891.074 103.874C890.371 103.874 889.755 104.006 889.224 104.271C888.701 104.53 888.293 104.898 888.001 105.375C887.71 105.852 887.567 106.409 887.574 107.045C887.567 107.695 887.713 108.262 888.011 108.746C888.31 109.23 888.721 109.607 889.244 109.879C889.775 110.151 890.384 110.287 891.074 110.287ZM917.488 101.636H920.55V116.074C920.55 117.38 920.292 118.497 919.775 119.425C919.264 120.353 918.545 121.062 917.617 121.553C916.689 122.036 915.602 122.278 914.356 122.278C913.209 122.278 912.178 122.07 911.263 121.652C910.355 121.234 909.636 120.628 909.106 119.832C908.582 119.03 908.32 118.056 908.32 116.909H911.373C911.373 117.473 911.502 117.96 911.761 118.371C912.026 118.782 912.387 119.103 912.844 119.335C913.308 119.561 913.839 119.673 914.435 119.673C915.085 119.673 915.635 119.537 916.086 119.266C916.543 118.987 916.891 118.58 917.13 118.043C917.369 117.506 917.488 116.849 917.488 116.074V101.636ZM934.458 115.666V106.727H937.441V122H934.518V119.355H934.359C934.008 120.17 933.444 120.85 932.669 121.393C931.9 121.93 930.942 122.199 929.795 122.199C928.814 122.199 927.946 121.983 927.19 121.553C926.441 121.115 925.851 120.469 925.42 119.614C924.996 118.759 924.784 117.701 924.784 116.442V106.727H927.757V116.084C927.757 117.125 928.045 117.953 928.622 118.57C929.199 119.186 929.948 119.494 930.869 119.494C931.426 119.494 931.979 119.355 932.529 119.077C933.086 118.798 933.547 118.377 933.912 117.814C934.283 117.25 934.465 116.535 934.458 115.666ZM944.409 101.636V122H941.436V101.636H944.409ZM950.288 127.727C949.844 127.727 949.44 127.691 949.075 127.618C948.71 127.552 948.439 127.479 948.26 127.399L948.975 124.963C949.519 125.109 950.003 125.172 950.427 125.152C950.851 125.132 951.226 124.973 951.551 124.675C951.882 124.376 952.174 123.889 952.426 123.213L952.794 122.199L947.206 106.727H950.387L954.255 118.58H954.414L958.282 106.727H961.474L955.18 124.038C954.888 124.834 954.517 125.507 954.066 126.057C953.616 126.614 953.079 127.031 952.456 127.31C951.833 127.588 951.11 127.727 950.288 127.727Z" fill="#8C6CF3"/>
<path d="M873.624 149.149C872.892 149.149 872.246 149.02 871.685 148.76C871.127 148.498 870.692 148.137 870.38 147.679C870.067 147.217 869.913 146.692 869.916 146.102C869.913 145.641 870.003 145.214 870.188 144.824C870.373 144.43 870.625 144.101 870.944 143.838C871.267 143.572 871.628 143.403 872.026 143.332V143.268C871.504 143.134 871.088 142.841 870.779 142.39C870.47 141.935 870.317 141.418 870.321 140.839C870.317 140.286 870.458 139.79 870.742 139.353C871.026 138.917 871.417 138.572 871.914 138.32C872.414 138.068 872.984 137.942 873.624 137.942C874.256 137.942 874.82 138.068 875.317 138.32C875.815 138.572 876.205 138.917 876.489 139.353C876.777 139.79 876.923 140.286 876.926 140.839C876.923 141.418 876.765 141.935 876.452 142.39C876.143 142.841 875.733 143.134 875.222 143.268V143.332C875.616 143.403 875.971 143.572 876.287 143.838C876.603 144.101 876.855 144.43 877.043 144.824C877.232 145.214 877.327 145.641 877.331 146.102C877.327 146.692 877.168 147.217 876.852 147.679C876.539 148.137 876.104 148.498 875.547 148.76C874.993 149.02 874.352 149.149 873.624 149.149ZM873.624 147.977C874.117 147.977 874.543 147.897 874.902 147.738C875.261 147.578 875.538 147.352 875.733 147.061C875.928 146.77 876.028 146.429 876.031 146.038C876.028 145.626 875.921 145.262 875.712 144.946C875.502 144.63 875.216 144.382 874.854 144.201C874.495 144.02 874.085 143.929 873.624 143.929C873.158 143.929 872.743 144.02 872.377 144.201C872.015 144.382 871.729 144.63 871.52 144.946C871.314 145.262 871.212 145.626 871.216 146.038C871.212 146.429 871.306 146.77 871.498 147.061C871.694 147.352 871.972 147.578 872.335 147.738C872.697 147.897 873.126 147.977 873.624 147.977ZM873.624 142.8C874.014 142.8 874.36 142.722 874.662 142.565C874.968 142.409 875.207 142.191 875.381 141.91C875.555 141.63 875.644 141.301 875.648 140.925C875.644 140.555 875.557 140.234 875.387 139.961C875.216 139.684 874.98 139.471 874.678 139.321C874.376 139.169 874.025 139.092 873.624 139.092C873.215 139.092 872.858 139.169 872.553 139.321C872.248 139.471 872.011 139.684 871.844 139.961C871.678 140.234 871.596 140.555 871.599 140.925C871.596 141.301 871.679 141.63 871.85 141.91C872.024 142.191 872.263 142.409 872.569 142.565C872.874 142.722 873.226 142.8 873.624 142.8ZM882.782 149.149C882.157 149.149 881.594 149.025 881.093 148.776C880.592 148.528 880.191 148.187 879.889 147.754C879.587 147.32 879.422 146.827 879.394 146.273H880.672C880.722 146.766 880.946 147.175 881.343 147.498C881.745 147.817 882.224 147.977 882.782 147.977C883.229 147.977 883.627 147.873 883.975 147.663C884.326 147.453 884.601 147.166 884.8 146.8C885.003 146.431 885.104 146.013 885.104 145.548C885.104 145.072 884.999 144.648 884.79 144.275C884.584 143.899 884.3 143.602 883.937 143.386C883.575 143.169 883.161 143.059 882.696 143.055C882.362 143.052 882.02 143.103 881.668 143.21C881.317 143.313 881.027 143.446 880.8 143.609L879.564 143.46L880.225 138.091H885.892V139.263H881.333L880.949 142.48H881.013C881.237 142.303 881.517 142.155 881.855 142.038C882.192 141.921 882.544 141.862 882.909 141.862C883.577 141.862 884.172 142.022 884.694 142.342C885.219 142.658 885.631 143.091 885.93 143.641C886.231 144.192 886.382 144.82 886.382 145.527C886.382 146.223 886.226 146.844 885.914 147.391C885.605 147.935 885.179 148.364 884.635 148.68C884.092 148.993 883.474 149.149 882.782 149.149ZM892.057 149.149C891.254 149.149 890.57 148.931 890.006 148.494C889.441 148.054 889.01 147.416 888.711 146.582C888.413 145.744 888.264 144.732 888.264 143.545C888.264 142.366 888.413 141.36 888.711 140.525C889.013 139.687 889.447 139.048 890.011 138.608C890.579 138.164 891.261 137.942 892.057 137.942C892.852 137.942 893.532 138.164 894.097 138.608C894.665 139.048 895.098 139.687 895.396 140.525C895.698 141.36 895.849 142.366 895.849 143.545C895.849 144.732 895.7 145.744 895.402 146.582C895.104 147.416 894.672 148.054 894.107 148.494C893.543 148.931 892.859 149.149 892.057 149.149ZM892.057 147.977C892.852 147.977 893.47 147.594 893.91 146.827C894.351 146.06 894.571 144.966 894.571 143.545C894.571 142.601 894.47 141.797 894.267 141.132C894.068 140.468 893.781 139.962 893.404 139.614C893.031 139.266 892.582 139.092 892.057 139.092C891.268 139.092 890.652 139.481 890.208 140.259C889.764 141.033 889.542 142.129 889.542 143.545C889.542 144.49 889.642 145.293 889.841 145.953C890.04 146.614 890.325 147.116 890.698 147.461C891.075 147.805 891.528 147.977 892.057 147.977ZM907.27 145.655V140.818H908.527V149H907.27V147.615H907.184C906.993 148.031 906.694 148.384 906.29 148.675C905.885 148.963 905.373 149.107 904.756 149.107C904.244 149.107 903.79 148.995 903.392 148.771C902.994 148.544 902.682 148.203 902.454 147.748C902.227 147.29 902.113 146.713 902.113 146.017V140.818H903.371V145.932C903.371 146.528 903.537 147.004 903.871 147.359C904.209 147.714 904.638 147.892 905.16 147.892C905.473 147.892 905.791 147.812 906.114 147.652C906.441 147.493 906.714 147.248 906.934 146.917C907.158 146.587 907.27 146.166 907.27 145.655ZM916.625 142.651L915.495 142.97C915.424 142.782 915.32 142.599 915.181 142.422C915.046 142.24 914.862 142.091 914.627 141.974C914.393 141.857 914.093 141.798 913.727 141.798C913.226 141.798 912.809 141.914 912.475 142.145C912.145 142.372 911.98 142.661 911.98 143.013C911.98 143.325 912.093 143.572 912.321 143.753C912.548 143.934 912.903 144.085 913.386 144.206L914.601 144.504C915.332 144.682 915.877 144.953 916.236 145.319C916.595 145.681 916.774 146.148 916.774 146.72C916.774 147.189 916.639 147.608 916.369 147.977C916.103 148.347 915.73 148.638 915.25 148.851C914.771 149.064 914.214 149.17 913.578 149.17C912.743 149.17 912.053 148.989 911.506 148.627C910.959 148.265 910.613 147.736 910.467 147.04L911.66 146.741C911.774 147.182 911.989 147.512 912.305 147.732C912.624 147.952 913.042 148.062 913.557 148.062C914.142 148.062 914.608 147.938 914.952 147.69C915.3 147.437 915.474 147.136 915.474 146.784C915.474 146.5 915.375 146.262 915.176 146.07C914.977 145.875 914.672 145.729 914.26 145.634L912.896 145.314C912.147 145.136 911.596 144.861 911.245 144.488C910.897 144.112 910.723 143.641 910.723 143.077C910.723 142.615 910.852 142.207 911.112 141.852C911.374 141.496 911.731 141.218 912.182 141.015C912.637 140.813 913.152 140.712 913.727 140.712C914.537 140.712 915.172 140.889 915.634 141.244C916.099 141.599 916.429 142.068 916.625 142.651ZM922.097 149.17C921.308 149.17 920.628 148.996 920.056 148.648C919.488 148.297 919.05 147.807 918.741 147.178C918.435 146.546 918.283 145.811 918.283 144.973C918.283 144.135 918.435 143.396 918.741 142.757C919.05 142.114 919.479 141.614 920.03 141.255C920.584 140.893 921.23 140.712 921.969 140.712C922.395 140.712 922.816 140.783 923.231 140.925C923.647 141.067 924.025 141.298 924.366 141.617C924.707 141.933 924.978 142.352 925.181 142.874C925.383 143.396 925.484 144.039 925.484 144.803V145.335H919.178V144.249H924.206C924.206 143.787 924.114 143.375 923.929 143.013C923.748 142.651 923.489 142.365 923.151 142.155C922.817 141.946 922.423 141.841 921.969 141.841C921.468 141.841 921.035 141.965 920.669 142.214C920.307 142.459 920.028 142.778 919.833 143.173C919.637 143.567 919.54 143.989 919.54 144.44V145.165C919.54 145.783 919.646 146.306 919.859 146.736C920.076 147.162 920.376 147.487 920.76 147.711C921.143 147.931 921.589 148.041 922.097 148.041C922.427 148.041 922.725 147.995 922.991 147.903C923.261 147.807 923.494 147.665 923.689 147.477C923.885 147.285 924.036 147.047 924.142 146.763L925.357 147.104C925.229 147.516 925.014 147.878 924.712 148.19C924.41 148.499 924.037 148.741 923.593 148.915C923.15 149.085 922.651 149.17 922.097 149.17ZM927.397 149V140.818H928.611V142.054H928.696C928.846 141.649 929.115 141.321 929.506 141.069C929.897 140.816 930.337 140.69 930.827 140.69C930.919 140.69 931.035 140.692 931.173 140.696C931.312 140.699 931.417 140.705 931.488 140.712V141.99C931.445 141.979 931.347 141.963 931.195 141.942C931.045 141.917 930.887 141.905 930.721 141.905C930.323 141.905 929.968 141.988 929.655 142.155C929.346 142.319 929.101 142.546 928.92 142.837C928.743 143.125 928.654 143.453 928.654 143.822V149H927.397ZM938.773 142.651L937.644 142.97C937.573 142.782 937.468 142.599 937.33 142.422C937.195 142.24 937.01 142.091 936.776 141.974C936.541 141.857 936.241 141.798 935.875 141.798C935.375 141.798 934.957 141.914 934.624 142.145C934.293 142.372 934.128 142.661 934.128 143.013C934.128 143.325 934.242 143.572 934.469 143.753C934.696 143.934 935.052 144.085 935.535 144.206L936.749 144.504C937.481 144.682 938.026 144.953 938.384 145.319C938.743 145.681 938.922 146.148 938.922 146.72C938.922 147.189 938.787 147.608 938.517 147.977C938.251 148.347 937.878 148.638 937.399 148.851C936.919 149.064 936.362 149.17 935.726 149.17C934.892 149.17 934.201 148.989 933.654 148.627C933.107 148.265 932.761 147.736 932.616 147.04L933.809 146.741C933.922 147.182 934.137 147.512 934.453 147.732C934.773 147.952 935.19 148.062 935.705 148.062C936.291 148.062 936.756 147.938 937.101 147.69C937.449 147.437 937.623 147.136 937.623 146.784C937.623 146.5 937.523 146.262 937.324 146.07C937.125 145.875 936.82 145.729 936.408 145.634L935.044 145.314C934.295 145.136 933.745 144.861 933.393 144.488C933.045 144.112 932.871 143.641 932.871 143.077C932.871 142.615 933.001 142.207 933.26 141.852C933.523 141.496 933.88 141.218 934.331 141.015C934.785 140.813 935.3 140.712 935.875 140.712C936.685 140.712 937.321 140.889 937.782 141.244C938.248 141.599 938.578 142.068 938.773 142.651Z" fill="white"/>
<path d="M522.685 341.636V362H519.602V344.719H519.483L514.611 347.901V344.957L519.692 341.636H522.685ZM528.193 362V359.773L535.084 352.634C535.82 351.858 536.426 351.179 536.903 350.595C537.387 350.005 537.749 349.445 537.987 348.915C538.226 348.384 538.345 347.821 538.345 347.224C538.345 346.548 538.186 345.965 537.868 345.474C537.55 344.977 537.116 344.596 536.565 344.331C536.015 344.059 535.395 343.923 534.706 343.923C533.977 343.923 533.34 344.072 532.797 344.371C532.253 344.669 531.836 345.09 531.544 345.634C531.252 346.177 531.107 346.813 531.107 347.543H528.173C528.173 346.303 528.458 345.219 529.028 344.291C529.598 343.363 530.381 342.644 531.375 342.134C532.369 341.616 533.5 341.358 534.766 341.358C536.045 341.358 537.172 341.613 538.146 342.124C539.127 342.627 539.893 343.317 540.443 344.192C540.993 345.06 541.268 346.041 541.268 347.135C541.268 347.891 541.126 348.63 540.841 349.352C540.563 350.075 540.075 350.88 539.379 351.768C538.683 352.65 537.715 353.721 536.476 354.98L532.429 359.216V359.365H541.597V362H528.193ZM560.968 341.636H564.031V356.074C564.031 357.38 563.772 358.497 563.255 359.425C562.745 360.353 562.026 361.062 561.098 361.553C560.17 362.036 559.083 362.278 557.836 362.278C556.69 362.278 555.659 362.07 554.744 361.652C553.836 361.234 553.117 360.628 552.586 359.832C552.063 359.03 551.801 358.056 551.801 356.909H554.853C554.853 357.473 554.983 357.96 555.241 358.371C555.506 358.782 555.868 359.103 556.325 359.335C556.789 359.561 557.319 359.673 557.916 359.673C558.565 359.673 559.116 359.537 559.566 359.266C560.024 358.987 560.372 358.58 560.61 358.043C560.849 357.506 560.968 356.849 560.968 356.074V341.636ZM577.939 355.666V346.727H580.922V362H577.999V359.355H577.839C577.488 360.17 576.925 360.85 576.149 361.393C575.38 361.93 574.422 362.199 573.276 362.199C572.295 362.199 571.426 361.983 570.67 361.553C569.921 361.115 569.331 360.469 568.901 359.614C568.476 358.759 568.264 357.701 568.264 356.442V346.727H571.237V356.084C571.237 357.125 571.526 357.953 572.102 358.57C572.679 359.186 573.428 359.494 574.349 359.494C574.906 359.494 575.46 359.355 576.01 359.077C576.567 358.798 577.027 358.377 577.392 357.814C577.763 357.25 577.946 356.535 577.939 355.666ZM587.89 341.636V362H584.917V341.636H587.89ZM593.768 367.727C593.324 367.727 592.92 367.691 592.555 367.618C592.191 367.552 591.919 367.479 591.74 367.399L592.456 364.963C593 365.109 593.483 365.172 593.908 365.152C594.332 365.132 594.706 364.973 595.031 364.675C595.363 364.376 595.654 363.889 595.906 363.213L596.274 362.199L590.686 346.727H593.868L597.736 358.58H597.895L601.763 346.727H604.955L598.661 364.038C598.369 364.834 597.998 365.507 597.547 366.057C597.096 366.614 596.559 367.031 595.936 367.31C595.313 367.588 594.59 367.727 593.768 367.727Z" fill="#EE4045"/>
<path d="M517.538 389.149C516.913 389.149 516.35 389.025 515.85 388.776C515.349 388.528 514.948 388.187 514.646 387.754C514.344 387.32 514.179 386.827 514.151 386.273H515.429C515.479 386.766 515.702 387.175 516.1 387.498C516.501 387.817 516.981 387.977 517.538 387.977C517.986 387.977 518.384 387.873 518.732 387.663C519.083 387.453 519.358 387.166 519.557 386.8C519.76 386.431 519.861 386.013 519.861 385.548C519.861 385.072 519.756 384.648 519.547 384.275C519.341 383.899 519.056 383.602 518.694 383.386C518.332 383.169 517.918 383.059 517.453 383.055C517.119 383.052 516.777 383.103 516.425 383.21C516.074 383.313 515.784 383.446 515.557 383.609L514.321 383.46L514.982 378.091H520.649V379.263H516.089L515.706 382.48H515.77C515.994 382.303 516.274 382.155 516.612 382.038C516.949 381.921 517.3 381.862 517.666 381.862C518.334 381.862 518.929 382.022 519.451 382.342C519.976 382.658 520.388 383.091 520.686 383.641C520.988 384.192 521.139 384.82 521.139 385.527C521.139 386.223 520.983 386.844 520.67 387.391C520.362 387.935 519.935 388.364 519.392 388.68C518.849 388.993 518.231 389.149 517.538 389.149ZM526.813 389.149C526.011 389.149 525.327 388.931 524.763 388.494C524.198 388.054 523.767 387.416 523.468 386.582C523.17 385.744 523.021 384.732 523.021 383.545C523.021 382.366 523.17 381.36 523.468 380.525C523.77 379.687 524.203 379.048 524.768 378.608C525.336 378.164 526.018 377.942 526.813 377.942C527.609 377.942 528.289 378.164 528.854 378.608C529.422 379.048 529.855 379.687 530.153 380.525C530.455 381.36 530.606 382.366 530.606 383.545C530.606 384.732 530.457 385.744 530.159 386.582C529.86 387.416 529.429 388.054 528.864 388.494C528.3 388.931 527.616 389.149 526.813 389.149ZM526.813 387.977C527.609 387.977 528.227 387.594 528.667 386.827C529.108 386.06 529.328 384.966 529.328 383.545C529.328 382.601 529.226 381.797 529.024 381.132C528.825 380.468 528.538 379.962 528.161 379.614C527.788 379.266 527.339 379.092 526.813 379.092C526.025 379.092 525.409 379.481 524.965 380.259C524.521 381.033 524.299 382.129 524.299 383.545C524.299 384.49 524.399 385.293 524.598 385.953C524.796 386.614 525.082 387.116 525.455 387.461C525.832 387.805 526.284 387.977 526.813 387.977ZM536.188 389.149C535.386 389.149 534.702 388.931 534.138 388.494C533.573 388.054 533.142 387.416 532.843 386.582C532.545 385.744 532.396 384.732 532.396 383.545C532.396 382.366 532.545 381.36 532.843 380.525C533.145 379.687 533.578 379.048 534.143 378.608C534.711 378.164 535.393 377.942 536.188 377.942C536.984 377.942 537.664 378.164 538.229 378.608C538.797 379.048 539.23 379.687 539.528 380.525C539.83 381.36 539.981 382.366 539.981 383.545C539.981 384.732 539.832 385.744 539.534 386.582C539.235 387.416 538.804 388.054 538.239 388.494C537.675 388.931 536.991 389.149 536.188 389.149ZM536.188 387.977C536.984 387.977 537.602 387.594 538.042 386.827C538.483 386.06 538.703 384.966 538.703 383.545C538.703 382.601 538.601 381.797 538.399 381.132C538.2 380.468 537.913 379.962 537.536 379.614C537.163 379.266 536.714 379.092 536.188 379.092C535.4 379.092 534.784 379.481 534.34 380.259C533.896 381.033 533.674 382.129 533.674 383.545C533.674 384.49 533.774 385.293 533.973 385.953C534.171 386.614 534.457 387.116 534.83 387.461C535.207 387.805 535.659 387.977 536.188 387.977ZM551.402 385.655V380.818H552.659V389H551.402V387.615H551.316C551.125 388.031 550.826 388.384 550.421 388.675C550.017 388.963 549.505 389.107 548.887 389.107C548.376 389.107 547.921 388.995 547.524 388.771C547.126 388.544 546.813 388.203 546.586 387.748C546.359 387.29 546.245 386.713 546.245 386.017V380.818H547.502V385.932C547.502 386.528 547.669 387.004 548.003 387.359C548.34 387.714 548.77 387.892 549.292 387.892C549.605 387.892 549.922 387.812 550.246 387.652C550.572 387.493 550.846 387.248 551.066 386.917C551.29 386.587 551.402 386.166 551.402 385.655ZM560.757 382.651L559.627 382.97C559.556 382.782 559.452 382.599 559.313 382.422C559.178 382.24 558.993 382.091 558.759 381.974C558.525 381.857 558.225 381.798 557.859 381.798C557.358 381.798 556.941 381.914 556.607 382.145C556.277 382.372 556.112 382.661 556.112 383.013C556.112 383.325 556.225 383.572 556.453 383.753C556.68 383.934 557.035 384.085 557.518 384.206L558.732 384.504C559.464 384.682 560.009 384.953 560.368 385.319C560.726 385.681 560.906 386.148 560.906 386.72C560.906 387.189 560.771 387.608 560.501 387.977C560.235 388.347 559.862 388.638 559.382 388.851C558.903 389.064 558.345 389.17 557.71 389.17C556.875 389.17 556.184 388.989 555.638 388.627C555.091 388.265 554.744 387.736 554.599 387.04L555.792 386.741C555.906 387.182 556.121 387.512 556.437 387.732C556.756 387.952 557.173 388.062 557.688 388.062C558.274 388.062 558.74 387.938 559.084 387.69C559.432 387.437 559.606 387.136 559.606 386.784C559.606 386.5 559.507 386.262 559.308 386.07C559.109 385.875 558.803 385.729 558.392 385.634L557.028 385.314C556.279 385.136 555.728 384.861 555.377 384.488C555.029 384.112 554.855 383.641 554.855 383.077C554.855 382.615 554.984 382.207 555.243 381.852C555.506 381.496 555.863 381.218 556.314 381.015C556.769 380.813 557.284 380.712 557.859 380.712C558.669 380.712 559.304 380.889 559.766 381.244C560.231 381.599 560.561 382.068 560.757 382.651ZM566.228 389.17C565.44 389.17 564.76 388.996 564.188 388.648C563.62 388.297 563.182 387.807 562.873 387.178C562.567 386.546 562.415 385.811 562.415 384.973C562.415 384.135 562.567 383.396 562.873 382.757C563.182 382.114 563.611 381.614 564.162 381.255C564.716 380.893 565.362 380.712 566.101 380.712C566.527 380.712 566.948 380.783 567.363 380.925C567.778 381.067 568.157 381.298 568.498 381.617C568.839 381.933 569.11 382.352 569.313 382.874C569.515 383.396 569.616 384.039 569.616 384.803V385.335H563.309V384.249H568.338C568.338 383.787 568.245 383.375 568.061 383.013C567.88 382.651 567.62 382.365 567.283 382.155C566.949 381.946 566.555 381.841 566.101 381.841C565.6 381.841 565.167 381.965 564.801 382.214C564.439 382.459 564.16 382.778 563.965 383.173C563.769 383.567 563.672 383.989 563.672 384.44V385.165C563.672 385.783 563.778 386.306 563.991 386.736C564.208 387.162 564.508 387.487 564.891 387.711C565.275 387.931 565.721 388.041 566.228 388.041C566.559 388.041 566.857 387.995 567.123 387.903C567.393 387.807 567.626 387.665 567.821 387.477C568.016 387.285 568.167 387.047 568.274 386.763L569.488 387.104C569.361 387.516 569.146 387.878 568.844 388.19C568.542 388.499 568.169 388.741 567.725 388.915C567.281 389.085 566.782 389.17 566.228 389.17ZM571.528 389V380.818H572.743V382.054H572.828C572.977 381.649 573.247 381.321 573.638 381.069C574.028 380.816 574.469 380.69 574.959 380.69C575.051 380.69 575.167 380.692 575.305 380.696C575.444 380.699 575.548 380.705 575.619 380.712V381.99C575.577 381.979 575.479 381.963 575.326 381.942C575.177 381.917 575.019 381.905 574.852 381.905C574.455 381.905 574.1 381.988 573.787 382.155C573.478 382.319 573.233 382.546 573.052 382.837C572.874 383.125 572.786 383.453 572.786 383.822V389H571.528ZM582.905 382.651L581.776 382.97C581.705 382.782 581.6 382.599 581.461 382.422C581.327 382.24 581.142 382.091 580.907 381.974C580.673 381.857 580.373 381.798 580.007 381.798C579.507 381.798 579.089 381.914 578.756 382.145C578.425 382.372 578.26 382.661 578.26 383.013C578.26 383.325 578.374 383.572 578.601 383.753C578.828 383.934 579.183 384.085 579.666 384.206L580.881 384.504C581.612 384.682 582.157 384.953 582.516 385.319C582.875 385.681 583.054 386.148 583.054 386.72C583.054 387.189 582.919 387.608 582.649 387.977C582.383 388.347 582.01 388.638 581.531 388.851C581.051 389.064 580.494 389.17 579.858 389.17C579.024 389.17 578.333 388.989 577.786 388.627C577.239 388.265 576.893 387.736 576.747 387.04L577.941 386.741C578.054 387.182 578.269 387.512 578.585 387.732C578.905 387.952 579.322 388.062 579.837 388.062C580.423 388.062 580.888 387.938 581.232 387.69C581.58 387.437 581.754 387.136 581.754 386.784C581.754 386.5 581.655 386.262 581.456 386.07C581.257 385.875 580.952 385.729 580.54 385.634L579.176 385.314C578.427 385.136 577.877 384.861 577.525 384.488C577.177 384.112 577.003 383.641 577.003 383.077C577.003 382.615 577.133 382.207 577.392 381.852C577.655 381.496 578.012 381.218 578.463 381.015C578.917 380.813 579.432 380.712 580.007 380.712C580.817 380.712 581.453 380.889 581.914 381.244C582.379 381.599 582.71 382.068 582.905 382.651Z" fill="white"/>
<defs>
<linearGradient id="paint0_linear_637_1689" x1="-754.983" y1="129.044" x2="-754.983" y2="423.406" gradientUnits="userSpaceOnUse">
<stop offset="0.333491" stop-color="#8C6CF3"/>
<stop offset="1" stop-color="#EE4045"/>
</linearGradient>
</defs>
</svg>
