<svg width="1442" height="571" viewBox="0 0 1442 571" fill="none" xmlns="http://www.w3.org/2000/svg">
<g clip-path="url(#clip0_637_744)">
<g opacity="0.6">
<rect opacity="0.3" x="6.23096" y="5" width="34.7" height="34.7" fill="#B574F7" fill-opacity="0.07"/>
<rect opacity="0.3" x="43.9309" y="5" width="34.7" height="34.7" fill="#B574F7" fill-opacity="0.07"/>
<rect opacity="0.3" x="81.6309" y="5" width="34.7" height="34.7" fill="#B574F7" fill-opacity="0.07"/>
<rect opacity="0.3" x="119.331" y="5" width="34.7" height="34.7" fill="#B574F7" fill-opacity="0.07"/>
<rect opacity="0.3" x="157.031" y="5" width="34.7" height="34.7" fill="#B574F7" fill-opacity="0.07"/>
<rect opacity="0.3" x="194.731" y="5" width="34.7" height="34.7" fill="#B574F7" fill-opacity="0.07"/>
<rect opacity="0.3" x="232.431" y="5" width="34.7" height="34.7" fill="#B574F7" fill-opacity="0.07"/>
<rect opacity="0.3" x="270.131" y="5" width="34.7" height="34.7" fill="#B574F7" fill-opacity="0.07"/>
<rect opacity="0.3" x="307.831" y="5" width="34.7" height="34.7" fill="#B574F7" fill-opacity="0.07"/>
<rect opacity="0.3" x="345.531" y="5" width="34.7" height="34.7" fill="#B574F7" fill-opacity="0.07"/>
<rect opacity="0.3" x="383.231" y="5" width="34.7" height="34.7" fill="#B574F7" fill-opacity="0.07"/>
<rect opacity="0.3" x="420.931" y="5" width="34.7" height="34.7" fill="#B574F7" fill-opacity="0.07"/>
<rect opacity="0.3" x="458.631" y="5" width="34.7" height="34.7" fill="#B574F7" fill-opacity="0.07"/>
<rect opacity="0.3" x="496.331" y="5" width="34.7" height="34.7" fill="#B574F7" fill-opacity="0.07"/>
<rect opacity="0.3" x="534.031" y="5" width="34.7" height="34.7" fill="#B574F7" fill-opacity="0.07"/>
<rect opacity="0.3" x="571.731" y="5" width="34.7" height="34.7" fill="#B574F7" fill-opacity="0.07"/>
<rect opacity="0.3" x="609.431" y="5" width="34.7" height="34.7" fill="#B574F7" fill-opacity="0.07"/>
<rect opacity="0.3" x="647.131" y="5" width="34.7" height="34.7" fill="#B574F7" fill-opacity="0.07"/>
<rect opacity="0.3" x="684.831" y="5" width="34.7" height="34.7" fill="#B574F7" fill-opacity="0.07"/>
<rect opacity="0.3" x="722.531" y="5" width="34.7" height="34.7" fill="#B574F7" fill-opacity="0.07"/>
<rect opacity="0.3" x="760.231" y="5" width="34.7" height="34.7" fill="#B574F7" fill-opacity="0.07"/>
<rect opacity="0.3" x="797.931" y="5" width="34.7" height="34.7" fill="#B574F7" fill-opacity="0.07"/>
<rect opacity="0.3" x="835.631" y="5" width="34.7" height="34.7" fill="#B574F7" fill-opacity="0.07"/>
<rect opacity="0.3" x="873.331" y="5" width="34.7" height="34.7" fill="#B574F7" fill-opacity="0.07"/>
<rect opacity="0.3" x="911.031" y="5" width="34.7" height="34.7" fill="#B574F7" fill-opacity="0.07"/>
<rect opacity="0.3" x="948.731" y="5" width="34.7" height="34.7" fill="#B574F7" fill-opacity="0.07"/>
<rect opacity="0.3" x="986.431" y="5" width="34.7" height="34.7" fill="#B574F7" fill-opacity="0.07"/>
<rect opacity="0.3" x="1024.13" y="5" width="34.7" height="34.7" fill="#B574F7" fill-opacity="0.07"/>
<rect opacity="0.3" x="1061.83" y="5" width="34.7" height="34.7" fill="#B574F7" fill-opacity="0.07"/>
<rect opacity="0.3" x="1099.53" y="5" width="34.7" height="34.7" fill="#B574F7" fill-opacity="0.07"/>
<rect opacity="0.3" x="1137.23" y="5" width="34.7" height="34.7" fill="#B574F7" fill-opacity="0.07"/>
<rect opacity="0.3" x="1174.93" y="5" width="34.7" height="34.7" fill="#B574F7" fill-opacity="0.07"/>
<rect opacity="0.3" x="1212.63" y="5" width="34.7" height="34.7" fill="#B574F7" fill-opacity="0.07"/>
<rect opacity="0.3" x="1250.33" y="5" width="34.7" height="34.7" fill="#B574F7" fill-opacity="0.07"/>
<rect opacity="0.3" x="1288.03" y="5" width="34.7" height="34.7" fill="#B574F7" fill-opacity="0.07"/>
<rect opacity="0.3" x="1325.73" y="5" width="34.7" height="34.7" fill="#B574F7" fill-opacity="0.07"/>
<rect opacity="0.3" x="1363.43" y="5" width="34.7" height="34.7" fill="#B574F7" fill-opacity="0.07"/>
<rect opacity="0.3" x="1401.13" y="5" width="34.7" height="34.7" fill="#B574F7" fill-opacity="0.07"/>
<rect opacity="0.3" x="6.23096" y="42.7002" width="34.7" height="34.7" fill="#B574F7" fill-opacity="0.07"/>
<rect opacity="0.3" x="43.9309" y="42.7002" width="34.7" height="34.7" fill="#B574F7" fill-opacity="0.07"/>
<rect opacity="0.6" x="81.6309" y="42.7002" width="34.7" height="34.7" fill="#B574F7" fill-opacity="0.07"/>
<rect opacity="0.3" x="119.331" y="42.7002" width="34.7" height="34.7" fill="#B574F7" fill-opacity="0.07"/>
<rect opacity="0.3" x="157.031" y="42.7002" width="34.7" height="34.7" fill="#B574F7" fill-opacity="0.07"/>
<rect opacity="0.3" x="194.731" y="42.7002" width="34.7" height="34.7" fill="#B574F7" fill-opacity="0.07"/>
<rect opacity="0.3" x="232.431" y="42.7002" width="34.7" height="34.7" fill="#B574F7" fill-opacity="0.07"/>
<rect opacity="0.3" x="270.131" y="42.7002" width="34.7" height="34.7" fill="#B574F7" fill-opacity="0.07"/>
<rect opacity="0.3" x="307.831" y="42.7002" width="34.7" height="34.7" fill="#B574F7" fill-opacity="0.07"/>
<rect opacity="0.3" x="345.531" y="42.7002" width="34.7" height="34.7" fill="#B574F7" fill-opacity="0.07"/>
<rect opacity="0.3" x="383.231" y="42.7002" width="34.7" height="34.7" fill="#B574F7" fill-opacity="0.07"/>
<rect opacity="0.3" x="420.931" y="42.7002" width="34.7" height="34.7" fill="#B574F7" fill-opacity="0.07"/>
<rect opacity="0.3" x="458.631" y="42.7002" width="34.7" height="34.7" fill="#B574F7" fill-opacity="0.07"/>
<rect opacity="0.3" x="496.331" y="42.7002" width="34.7" height="34.7" fill="#B574F7" fill-opacity="0.07"/>
<rect opacity="0.3" x="534.031" y="42.7002" width="34.7" height="34.7" fill="#B574F7" fill-opacity="0.07"/>
<rect opacity="0.3" x="571.731" y="42.7002" width="34.7" height="34.7" fill="#B574F7" fill-opacity="0.07"/>
<rect opacity="0.3" x="609.431" y="42.7002" width="34.7" height="34.7" fill="#B574F7" fill-opacity="0.07"/>
<rect opacity="0.3" x="647.131" y="42.7002" width="34.7" height="34.7" fill="#B574F7" fill-opacity="0.07"/>
<rect opacity="0.3" x="684.831" y="42.7002" width="34.7" height="34.7" fill="#B574F7" fill-opacity="0.07"/>
<rect opacity="0.3" x="722.531" y="42.7002" width="34.7" height="34.7" fill="#B574F7" fill-opacity="0.07"/>
<rect opacity="0.3" x="760.231" y="42.7002" width="34.7" height="34.7" fill="#B574F7" fill-opacity="0.07"/>
<rect opacity="0.3" x="797.931" y="42.7002" width="34.7" height="34.7" fill="#B574F7" fill-opacity="0.07"/>
<rect opacity="0.3" x="835.631" y="42.7002" width="34.7" height="34.7" fill="#B574F7" fill-opacity="0.07"/>
<rect opacity="0.3" x="873.331" y="42.7002" width="34.7" height="34.7" fill="#B574F7" fill-opacity="0.07"/>
<rect opacity="0.3" x="911.031" y="42.7002" width="34.7" height="34.7" fill="#B574F7" fill-opacity="0.07"/>
<rect opacity="0.3" x="948.731" y="42.7002" width="34.7" height="34.7" fill="#B574F7" fill-opacity="0.07"/>
<rect opacity="0.3" x="986.431" y="42.7002" width="34.7" height="34.7" fill="#B574F7" fill-opacity="0.07"/>
<rect opacity="0.3" x="1024.13" y="42.7002" width="34.7" height="34.7" fill="#B574F7" fill-opacity="0.07"/>
<rect opacity="0.3" x="1061.83" y="42.7002" width="34.7" height="34.7" fill="#B574F7" fill-opacity="0.07"/>
<rect opacity="0.3" x="1099.53" y="42.7002" width="34.7" height="34.7" fill="#B574F7" fill-opacity="0.07"/>
<rect opacity="0.3" x="1137.23" y="42.7002" width="34.7" height="34.7" fill="#B574F7" fill-opacity="0.07"/>
<rect opacity="0.3" x="1174.93" y="42.7002" width="34.7" height="34.7" fill="#B574F7" fill-opacity="0.07"/>
<rect opacity="0.3" x="1212.63" y="42.7002" width="34.7" height="34.7" fill="#B574F7" fill-opacity="0.07"/>
<rect opacity="0.3" x="1250.33" y="42.7002" width="34.7" height="34.7" fill="#B574F7" fill-opacity="0.07"/>
<rect opacity="0.3" x="1288.03" y="42.7002" width="34.7" height="34.7" fill="#B574F7" fill-opacity="0.07"/>
<rect opacity="0.3" x="1325.73" y="42.7002" width="34.7" height="34.7" fill="#B574F7" fill-opacity="0.07"/>
<rect opacity="0.3" x="1363.43" y="42.7002" width="34.7" height="34.7" fill="#B574F7" fill-opacity="0.07"/>
<rect opacity="0.3" x="1401.13" y="42.7002" width="34.7" height="34.7" fill="#B574F7" fill-opacity="0.07"/>
<rect opacity="0.3" x="6.23096" y="80.3999" width="34.7" height="34.7" fill="#B574F7" fill-opacity="0.07"/>
<rect opacity="0.3" x="43.9309" y="80.3999" width="34.7" height="34.7" fill="#B574F7" fill-opacity="0.07"/>
<rect opacity="0.3" x="81.6309" y="80.3999" width="34.7" height="34.7" fill="#B574F7" fill-opacity="0.07"/>
<rect opacity="0.3" x="119.331" y="80.3999" width="34.7" height="34.7" fill="#B574F7" fill-opacity="0.07"/>
<rect opacity="0.3" x="157.031" y="80.3999" width="34.7" height="34.7" fill="#B574F7" fill-opacity="0.07"/>
<rect opacity="0.3" x="194.731" y="80.3999" width="34.7" height="34.7" fill="#B574F7" fill-opacity="0.07"/>
<rect opacity="0.3" x="232.431" y="80.3999" width="34.7" height="34.7" fill="#B574F7" fill-opacity="0.07"/>
<rect opacity="0.3" x="270.131" y="80.3999" width="34.7" height="34.7" fill="#B574F7" fill-opacity="0.07"/>
<rect opacity="0.3" x="307.831" y="80.3999" width="34.7" height="34.7" fill="#B574F7" fill-opacity="0.07"/>
<rect opacity="0.3" x="345.531" y="80.3999" width="34.7" height="34.7" fill="#B574F7" fill-opacity="0.07"/>
<rect opacity="0.3" x="383.231" y="80.3999" width="34.7" height="34.7" fill="#B574F7" fill-opacity="0.07"/>
<rect opacity="0.3" x="420.931" y="80.3999" width="34.7" height="34.7" fill="#B574F7" fill-opacity="0.07"/>
<rect opacity="0.3" x="458.631" y="80.3999" width="34.7" height="34.7" fill="#B574F7" fill-opacity="0.07"/>
<rect opacity="0.3" x="496.331" y="80.3999" width="34.7" height="34.7" fill="#B574F7" fill-opacity="0.07"/>
<rect opacity="0.3" x="534.031" y="80.3999" width="34.7" height="34.7" fill="#B574F7" fill-opacity="0.07"/>
<rect opacity="0.8" x="571.731" y="80.3999" width="34.7" height="34.7" fill="#B574F7" fill-opacity="0.07"/>
<rect opacity="0.3" x="609.431" y="80.3999" width="34.7" height="34.7" fill="#B574F7" fill-opacity="0.07"/>
<rect opacity="0.3" x="647.131" y="80.3999" width="34.7" height="34.7" fill="#B574F7" fill-opacity="0.07"/>
<rect opacity="0.3" x="684.831" y="80.3999" width="34.7" height="34.7" fill="#B574F7" fill-opacity="0.07"/>
<rect opacity="0.3" x="722.531" y="80.3999" width="34.7" height="34.7" fill="#B574F7" fill-opacity="0.07"/>
<rect opacity="0.3" x="760.231" y="80.3999" width="34.7" height="34.7" fill="#B574F7" fill-opacity="0.07"/>
<rect opacity="0.3" x="797.931" y="80.3999" width="34.7" height="34.7" fill="#B574F7" fill-opacity="0.07"/>
<rect opacity="0.3" x="835.631" y="80.3999" width="34.7" height="34.7" fill="#B574F7" fill-opacity="0.07"/>
<rect opacity="0.3" x="873.331" y="80.3999" width="34.7" height="34.7" fill="#B574F7" fill-opacity="0.07"/>
<rect opacity="0.9" x="911.031" y="80.3999" width="34.7" height="34.7" fill="#B574F7" fill-opacity="0.07"/>
<rect opacity="0.3" x="948.731" y="80.3999" width="34.7" height="34.7" fill="#B574F7" fill-opacity="0.07"/>
<rect opacity="0.8" x="986.431" y="80.3999" width="34.7" height="34.7" fill="#B574F7" fill-opacity="0.07"/>
<rect opacity="0.3" x="1024.13" y="80.3999" width="34.7" height="34.7" fill="#B574F7" fill-opacity="0.07"/>
<rect opacity="0.3" x="1061.83" y="80.3999" width="34.7" height="34.7" fill="#B574F7" fill-opacity="0.07"/>
<rect opacity="0.3" x="1099.53" y="80.3999" width="34.7" height="34.7" fill="#B574F7" fill-opacity="0.07"/>
<rect opacity="0.9" x="1137.23" y="80.3999" width="34.7" height="34.7" fill="#B574F7" fill-opacity="0.07"/>
<rect opacity="0.3" x="1174.93" y="80.3999" width="34.7" height="34.7" fill="#B574F7" fill-opacity="0.07"/>
<rect opacity="0.3" x="1212.63" y="80.3999" width="34.7" height="34.7" fill="#B574F7" fill-opacity="0.07"/>
<rect opacity="0.9" x="1250.33" y="80.3999" width="34.7" height="34.7" fill="#B574F7" fill-opacity="0.07"/>
<rect opacity="0.3" x="1288.03" y="80.3999" width="34.7" height="34.7" fill="#B574F7" fill-opacity="0.07"/>
<rect opacity="0.3" x="1325.73" y="80.3999" width="34.7" height="34.7" fill="#B574F7" fill-opacity="0.07"/>
<rect opacity="0.3" x="1363.43" y="80.3999" width="34.7" height="34.7" fill="#B574F7" fill-opacity="0.07"/>
<rect opacity="0.3" x="1401.13" y="80.3999" width="34.7" height="34.7" fill="#B574F7" fill-opacity="0.07"/>
<rect opacity="0.9" x="6.23096" y="118.1" width="34.7" height="34.7" fill="#B574F7" fill-opacity="0.07"/>
<rect opacity="0.3" x="43.9309" y="118.1" width="34.7" height="34.7" fill="#B574F7" fill-opacity="0.07"/>
<rect opacity="0.3" x="81.6309" y="118.1" width="34.7" height="34.7" fill="#B574F7" fill-opacity="0.07"/>
<rect opacity="0.3" x="119.331" y="118.1" width="34.7" height="34.7" fill="#B574F7" fill-opacity="0.07"/>
<rect opacity="0.6" x="157.031" y="118.1" width="34.7" height="34.7" fill="#B574F7" fill-opacity="0.07"/>
<rect opacity="0.6" x="194.731" y="118.1" width="34.7" height="34.7" fill="#B574F7" fill-opacity="0.07"/>
<rect opacity="0.3" x="232.431" y="118.1" width="34.7" height="34.7" fill="#B574F7" fill-opacity="0.07"/>
<rect opacity="0.3" x="270.131" y="118.1" width="34.7" height="34.7" fill="#B574F7" fill-opacity="0.07"/>
<rect opacity="0.9" x="307.831" y="118.1" width="34.7" height="34.7" fill="#B574F7" fill-opacity="0.07"/>
<rect opacity="0.3" x="345.531" y="118.1" width="34.7" height="34.7" fill="#B574F7" fill-opacity="0.07"/>
<rect opacity="0.3" x="383.231" y="118.1" width="34.7" height="34.7" fill="#B574F7" fill-opacity="0.07"/>
<rect opacity="0.3" x="420.931" y="118.1" width="34.7" height="34.7" fill="#B574F7" fill-opacity="0.07"/>
<rect opacity="0.6" x="458.631" y="118.1" width="34.7" height="34.7" fill="#B574F7" fill-opacity="0.07"/>
<rect opacity="0.3" x="496.331" y="118.1" width="34.7" height="34.7" fill="#B574F7" fill-opacity="0.07"/>
<rect opacity="0.3" x="534.031" y="118.1" width="34.7" height="34.7" fill="#B574F7" fill-opacity="0.07"/>
<rect opacity="0.3" x="571.731" y="118.1" width="34.7" height="34.7" fill="#B574F7" fill-opacity="0.07"/>
<rect opacity="0.3" x="609.431" y="118.1" width="34.7" height="34.7" fill="#B574F7" fill-opacity="0.07"/>
<rect opacity="0.9" x="647.131" y="118.1" width="34.7" height="34.7" fill="#B574F7" fill-opacity="0.07"/>
<rect opacity="0.3" x="684.831" y="118.1" width="34.7" height="34.7" fill="#B574F7" fill-opacity="0.07"/>
<rect opacity="0.3" x="722.531" y="118.1" width="34.7" height="34.7" fill="#B574F7" fill-opacity="0.07"/>
<rect opacity="0.9" x="760.231" y="118.1" width="34.7" height="34.7" fill="#B574F7" fill-opacity="0.07"/>
<rect opacity="0.3" x="797.931" y="118.1" width="34.7" height="34.7" fill="#B574F7" fill-opacity="0.07"/>
<rect opacity="0.3" x="835.631" y="118.1" width="34.7" height="34.7" fill="#B574F7" fill-opacity="0.07"/>
<rect opacity="0.9" x="873.331" y="118.1" width="34.7" height="34.7" fill="#B574F7" fill-opacity="0.07"/>
<rect opacity="0.3" x="911.031" y="118.1" width="34.7" height="34.7" fill="#B574F7" fill-opacity="0.07"/>
<rect opacity="0.9" x="948.731" y="118.1" width="34.7" height="34.7" fill="#B574F7" fill-opacity="0.07"/>
<rect opacity="0.9" x="986.431" y="118.1" width="34.7" height="34.7" fill="#B574F7" fill-opacity="0.07"/>
<rect opacity="0.3" x="1024.13" y="118.1" width="34.7" height="34.7" fill="#B574F7" fill-opacity="0.07"/>
<rect opacity="0.3" x="1061.83" y="118.1" width="34.7" height="34.7" fill="#B574F7" fill-opacity="0.07"/>
<rect opacity="0.3" x="1099.53" y="118.1" width="34.7" height="34.7" fill="#B574F7" fill-opacity="0.07"/>
<rect opacity="0.3" x="1137.23" y="118.1" width="34.7" height="34.7" fill="#B574F7" fill-opacity="0.07"/>
<rect opacity="0.3" x="1174.93" y="118.1" width="34.7" height="34.7" fill="#B574F7" fill-opacity="0.07"/>
<rect opacity="0.3" x="1212.63" y="118.1" width="34.7" height="34.7" fill="#B574F7" fill-opacity="0.07"/>
<rect opacity="0.3" x="1250.33" y="118.1" width="34.7" height="34.7" fill="#B574F7" fill-opacity="0.07"/>
<rect opacity="0.3" x="1288.03" y="118.1" width="34.7" height="34.7" fill="#B574F7" fill-opacity="0.07"/>
<rect opacity="0.3" x="1325.73" y="118.1" width="34.7" height="34.7" fill="#B574F7" fill-opacity="0.07"/>
<rect opacity="0.3" x="1363.43" y="118.1" width="34.7" height="34.7" fill="#B574F7" fill-opacity="0.07"/>
<rect opacity="0.6" x="1401.13" y="118.1" width="34.7" height="34.7" fill="#B574F7" fill-opacity="0.07"/>
<rect opacity="0.3" x="6.23096" y="155.8" width="34.7" height="34.7" fill="#B574F7" fill-opacity="0.07"/>
<rect opacity="0.3" x="43.9309" y="155.8" width="34.7" height="34.7" fill="#B574F7" fill-opacity="0.07"/>
<rect opacity="0.3" x="81.6309" y="155.8" width="34.7" height="34.7" fill="#B574F7" fill-opacity="0.07"/>
<rect opacity="0.3" x="119.331" y="155.8" width="34.7" height="34.7" fill="#B574F7" fill-opacity="0.07"/>
<rect opacity="0.3" x="157.031" y="155.8" width="34.7" height="34.7" fill="#B574F7" fill-opacity="0.07"/>
<rect opacity="0.3" x="194.731" y="155.8" width="34.7" height="34.7" fill="#B574F7" fill-opacity="0.07"/>
<rect opacity="0.3" x="232.431" y="155.8" width="34.7" height="34.7" fill="#B574F7" fill-opacity="0.07"/>
<rect opacity="0.3" x="270.131" y="155.8" width="34.7" height="34.7" fill="#B574F7" fill-opacity="0.07"/>
<rect opacity="0.3" x="307.831" y="155.8" width="34.7" height="34.7" fill="#B574F7" fill-opacity="0.07"/>
<rect opacity="0.3" x="345.531" y="155.8" width="34.7" height="34.7" fill="#B574F7" fill-opacity="0.07"/>
<rect opacity="0.3" x="383.231" y="155.8" width="34.7" height="34.7" fill="#B574F7" fill-opacity="0.07"/>
<rect opacity="0.3" x="420.931" y="155.8" width="34.7" height="34.7" fill="#B574F7" fill-opacity="0.07"/>
<rect opacity="0.3" x="458.631" y="155.8" width="34.7" height="34.7" fill="#B574F7" fill-opacity="0.07"/>
<rect opacity="0.3" x="496.331" y="155.8" width="34.7" height="34.7" fill="#B574F7" fill-opacity="0.07"/>
<rect opacity="0.3" x="534.031" y="155.8" width="34.7" height="34.7" fill="#B574F7" fill-opacity="0.07"/>
<rect opacity="0.3" x="571.731" y="155.8" width="34.7" height="34.7" fill="#B574F7" fill-opacity="0.07"/>
<rect opacity="0.3" x="609.431" y="155.8" width="34.7" height="34.7" fill="#B574F7" fill-opacity="0.07"/>
<rect opacity="0.3" x="647.131" y="155.8" width="34.7" height="34.7" fill="#B574F7" fill-opacity="0.07"/>
<rect opacity="0.3" x="684.831" y="155.8" width="34.7" height="34.7" fill="#B574F7" fill-opacity="0.07"/>
<rect opacity="0.3" x="722.531" y="155.8" width="34.7" height="34.7" fill="#B574F7" fill-opacity="0.07"/>
<rect opacity="0.3" x="760.231" y="155.8" width="34.7" height="34.7" fill="#B574F7" fill-opacity="0.07"/>
<rect opacity="0.3" x="797.931" y="155.8" width="34.7" height="34.7" fill="#B574F7" fill-opacity="0.07"/>
<rect opacity="0.3" x="835.631" y="155.8" width="34.7" height="34.7" fill="#B574F7" fill-opacity="0.07"/>
<rect opacity="0.3" x="873.331" y="155.8" width="34.7" height="34.7" fill="#B574F7" fill-opacity="0.07"/>
<rect opacity="0.3" x="911.031" y="155.8" width="34.7" height="34.7" fill="#B574F7" fill-opacity="0.07"/>
<rect opacity="0.9" x="948.731" y="155.8" width="34.7" height="34.7" fill="#B574F7" fill-opacity="0.07"/>
<rect opacity="0.3" x="986.431" y="155.8" width="34.7" height="34.7" fill="#B574F7" fill-opacity="0.07"/>
<rect opacity="0.3" x="1024.13" y="155.8" width="34.7" height="34.7" fill="#B574F7" fill-opacity="0.07"/>
<rect opacity="0.3" x="1061.83" y="155.8" width="34.7" height="34.7" fill="#B574F7" fill-opacity="0.07"/>
<rect opacity="0.3" x="1099.53" y="155.8" width="34.7" height="34.7" fill="#B574F7" fill-opacity="0.07"/>
<rect opacity="0.3" x="1137.23" y="155.8" width="34.7" height="34.7" fill="#B574F7" fill-opacity="0.07"/>
<rect opacity="0.3" x="1174.93" y="155.8" width="34.7" height="34.7" fill="#B574F7" fill-opacity="0.07"/>
<rect opacity="0.3" x="1212.63" y="155.8" width="34.7" height="34.7" fill="#B574F7" fill-opacity="0.07"/>
<rect opacity="0.3" x="1250.33" y="155.8" width="34.7" height="34.7" fill="#B574F7" fill-opacity="0.07"/>
<rect opacity="0.8" x="1288.03" y="155.8" width="34.7" height="34.7" fill="#B574F7" fill-opacity="0.07"/>
<rect opacity="0.3" x="1325.73" y="155.8" width="34.7" height="34.7" fill="#B574F7" fill-opacity="0.07"/>
<rect opacity="0.3" x="1363.43" y="155.8" width="34.7" height="34.7" fill="#B574F7" fill-opacity="0.07"/>
<rect opacity="0.3" x="1401.13" y="155.8" width="34.7" height="34.7" fill="#B574F7" fill-opacity="0.07"/>
<rect opacity="0.6" x="6.23096" y="193.5" width="34.7" height="34.7" fill="#B574F7" fill-opacity="0.07"/>
<rect opacity="0.3" x="43.9309" y="193.5" width="34.7" height="34.7" fill="#B574F7" fill-opacity="0.07"/>
<rect opacity="0.3" x="81.6309" y="193.5" width="34.7" height="34.7" fill="#B574F7" fill-opacity="0.07"/>
<rect opacity="0.3" x="119.331" y="193.5" width="34.7" height="34.7" fill="#B574F7" fill-opacity="0.07"/>
<rect opacity="0.3" x="157.031" y="193.5" width="34.7" height="34.7" fill="#B574F7" fill-opacity="0.07"/>
<rect opacity="0.3" x="194.731" y="193.5" width="34.7" height="34.7" fill="#B574F7" fill-opacity="0.07"/>
<rect opacity="0.3" x="232.431" y="193.5" width="34.7" height="34.7" fill="#B574F7" fill-opacity="0.07"/>
<rect opacity="0.3" x="270.131" y="193.5" width="34.7" height="34.7" fill="#B574F7" fill-opacity="0.07"/>
<rect opacity="0.3" x="307.831" y="193.5" width="34.7" height="34.7" fill="#B574F7" fill-opacity="0.07"/>
<rect opacity="0.3" x="345.531" y="193.5" width="34.7" height="34.7" fill="#B574F7" fill-opacity="0.07"/>
<rect opacity="0.3" x="383.231" y="193.5" width="34.7" height="34.7" fill="#B574F7" fill-opacity="0.07"/>
<rect opacity="0.3" x="420.931" y="193.5" width="34.7" height="34.7" fill="#B574F7" fill-opacity="0.07"/>
<rect opacity="0.3" x="458.631" y="193.5" width="34.7" height="34.7" fill="#B574F7" fill-opacity="0.07"/>
<rect opacity="0.3" x="496.331" y="193.5" width="34.7" height="34.7" fill="#B574F7" fill-opacity="0.07"/>
<rect opacity="0.3" x="534.031" y="193.5" width="34.7" height="34.7" fill="#B574F7" fill-opacity="0.07"/>
<rect opacity="0.3" x="571.731" y="193.5" width="34.7" height="34.7" fill="#B574F7" fill-opacity="0.07"/>
<rect opacity="0.3" x="609.431" y="193.5" width="34.7" height="34.7" fill="#B574F7" fill-opacity="0.07"/>
<rect opacity="0.3" x="647.131" y="193.5" width="34.7" height="34.7" fill="#B574F7" fill-opacity="0.07"/>
<rect opacity="0.3" x="684.831" y="193.5" width="34.7" height="34.7" fill="#B574F7" fill-opacity="0.07"/>
<rect opacity="0.3" x="722.531" y="193.5" width="34.7" height="34.7" fill="#B574F7" fill-opacity="0.07"/>
<rect opacity="0.3" x="760.231" y="193.5" width="34.7" height="34.7" fill="#B574F7" fill-opacity="0.07"/>
<rect opacity="0.3" x="797.931" y="193.5" width="34.7" height="34.7" fill="#B574F7" fill-opacity="0.07"/>
<rect opacity="0.3" x="835.631" y="193.5" width="34.7" height="34.7" fill="#B574F7" fill-opacity="0.07"/>
<rect opacity="0.3" x="873.331" y="193.5" width="34.7" height="34.7" fill="#B574F7" fill-opacity="0.07"/>
<rect opacity="0.3" x="911.031" y="193.5" width="34.7" height="34.7" fill="#B574F7" fill-opacity="0.07"/>
<rect opacity="0.3" x="948.731" y="193.5" width="34.7" height="34.7" fill="#B574F7" fill-opacity="0.07"/>
<rect opacity="0.3" x="986.431" y="193.5" width="34.7" height="34.7" fill="#B574F7" fill-opacity="0.07"/>
<rect opacity="0.3" x="1024.13" y="193.5" width="34.7" height="34.7" fill="#B574F7" fill-opacity="0.07"/>
<rect opacity="0.3" x="1061.83" y="193.5" width="34.7" height="34.7" fill="#B574F7" fill-opacity="0.07"/>
<rect opacity="0.3" x="1099.53" y="193.5" width="34.7" height="34.7" fill="#B574F7" fill-opacity="0.07"/>
<rect opacity="0.3" x="1137.23" y="193.5" width="34.7" height="34.7" fill="#B574F7" fill-opacity="0.07"/>
<rect opacity="0.3" x="1174.93" y="193.5" width="34.7" height="34.7" fill="#B574F7" fill-opacity="0.07"/>
<rect opacity="0.3" x="1212.63" y="193.5" width="34.7" height="34.7" fill="#B574F7" fill-opacity="0.07"/>
<rect opacity="0.3" x="1250.33" y="193.5" width="34.7" height="34.7" fill="#B574F7" fill-opacity="0.07"/>
<rect opacity="0.3" x="1288.03" y="193.5" width="34.7" height="34.7" fill="#B574F7" fill-opacity="0.07"/>
<rect opacity="0.3" x="1325.73" y="193.5" width="34.7" height="34.7" fill="#B574F7" fill-opacity="0.07"/>
<rect opacity="0.3" x="1363.43" y="193.5" width="34.7" height="34.7" fill="#B574F7" fill-opacity="0.07"/>
<rect opacity="0.6" x="1401.13" y="193.5" width="34.7" height="34.7" fill="#B574F7" fill-opacity="0.07"/>
<rect opacity="0.3" x="6.23096" y="231.2" width="34.7" height="34.7" fill="#B574F7" fill-opacity="0.07"/>
<rect opacity="0.3" x="43.9309" y="231.2" width="34.7" height="34.7" fill="#B574F7" fill-opacity="0.07"/>
<rect opacity="0.3" x="81.6309" y="231.2" width="34.7" height="34.7" fill="#B574F7" fill-opacity="0.07"/>
<rect opacity="0.3" x="119.331" y="231.2" width="34.7" height="34.7" fill="#B574F7" fill-opacity="0.07"/>
<rect opacity="0.3" x="157.031" y="231.2" width="34.7" height="34.7" fill="#B574F7" fill-opacity="0.07"/>
<rect opacity="0.3" x="194.731" y="231.2" width="34.7" height="34.7" fill="#B574F7" fill-opacity="0.07"/>
<rect opacity="0.3" x="232.431" y="231.2" width="34.7" height="34.7" fill="#B574F7" fill-opacity="0.07"/>
<rect opacity="0.3" x="270.131" y="231.2" width="34.7" height="34.7" fill="#B574F7" fill-opacity="0.07"/>
<rect opacity="0.3" x="307.831" y="231.2" width="34.7" height="34.7" fill="#B574F7" fill-opacity="0.07"/>
<rect opacity="0.3" x="345.531" y="231.2" width="34.7" height="34.7" fill="#B574F7" fill-opacity="0.07"/>
<rect opacity="0.3" x="383.231" y="231.2" width="34.7" height="34.7" fill="#B574F7" fill-opacity="0.07"/>
<rect opacity="0.3" x="420.931" y="231.2" width="34.7" height="34.7" fill="#B574F7" fill-opacity="0.07"/>
<rect opacity="0.3" x="458.631" y="231.2" width="34.7" height="34.7" fill="#B574F7" fill-opacity="0.07"/>
<rect opacity="0.3" x="496.331" y="231.2" width="34.7" height="34.7" fill="#B574F7" fill-opacity="0.07"/>
<rect opacity="0.3" x="534.031" y="231.2" width="34.7" height="34.7" fill="#B574F7" fill-opacity="0.07"/>
<rect opacity="0.6" x="571.731" y="231.2" width="34.7" height="34.7" fill="#B574F7" fill-opacity="0.07"/>
<rect opacity="0.3" x="609.431" y="231.2" width="34.7" height="34.7" fill="#B574F7" fill-opacity="0.07"/>
<rect opacity="0.3" x="647.131" y="231.2" width="34.7" height="34.7" fill="#B574F7" fill-opacity="0.07"/>
<rect opacity="0.3" x="684.831" y="231.2" width="34.7" height="34.7" fill="#B574F7" fill-opacity="0.07"/>
<rect opacity="0.3" x="722.531" y="231.2" width="34.7" height="34.7" fill="#B574F7" fill-opacity="0.07"/>
<rect opacity="0.3" x="760.231" y="231.2" width="34.7" height="34.7" fill="#B574F7" fill-opacity="0.07"/>
<rect opacity="0.3" x="797.931" y="231.2" width="34.7" height="34.7" fill="#B574F7" fill-opacity="0.07"/>
<rect opacity="0.3" x="835.631" y="231.2" width="34.7" height="34.7" fill="#B574F7" fill-opacity="0.07"/>
<rect opacity="0.3" x="873.331" y="231.2" width="34.7" height="34.7" fill="#B574F7" fill-opacity="0.07"/>
<rect opacity="0.6" x="911.031" y="231.2" width="34.7" height="34.7" fill="#B574F7" fill-opacity="0.07"/>
<rect opacity="0.3" x="948.731" y="231.2" width="34.7" height="34.7" fill="#B574F7" fill-opacity="0.07"/>
<rect opacity="0.3" x="986.431" y="231.2" width="34.7" height="34.7" fill="#B574F7" fill-opacity="0.07"/>
<rect opacity="0.3" x="1024.13" y="231.2" width="34.7" height="34.7" fill="#B574F7" fill-opacity="0.07"/>
<rect opacity="0.3" x="1061.83" y="231.2" width="34.7" height="34.7" fill="#B574F7" fill-opacity="0.07"/>
<rect opacity="0.3" x="1099.53" y="231.2" width="34.7" height="34.7" fill="#B574F7" fill-opacity="0.07"/>
<rect opacity="0.3" x="1137.23" y="231.2" width="34.7" height="34.7" fill="#B574F7" fill-opacity="0.07"/>
<rect opacity="0.3" x="1174.93" y="231.2" width="34.7" height="34.7" fill="#B574F7" fill-opacity="0.07"/>
<rect opacity="0.3" x="1212.63" y="231.2" width="34.7" height="34.7" fill="#B574F7" fill-opacity="0.07"/>
<rect opacity="0.3" x="1250.33" y="231.2" width="34.7" height="34.7" fill="#B574F7" fill-opacity="0.07"/>
<rect opacity="0.3" x="1288.03" y="231.2" width="34.7" height="34.7" fill="#B574F7" fill-opacity="0.07"/>
<rect opacity="0.3" x="1325.73" y="231.2" width="34.7" height="34.7" fill="#B574F7" fill-opacity="0.07"/>
<rect opacity="0.3" x="1363.43" y="231.2" width="34.7" height="34.7" fill="#B574F7" fill-opacity="0.07"/>
<rect opacity="0.3" x="1401.13" y="231.2" width="34.7" height="34.7" fill="#B574F7" fill-opacity="0.07"/>
<rect opacity="0.3" x="6.23096" y="268.9" width="34.7" height="34.7" fill="#B574F7" fill-opacity="0.07"/>
<rect opacity="0.6" x="43.9309" y="268.9" width="34.7" height="34.7" fill="#B574F7" fill-opacity="0.07"/>
<rect opacity="0.3" x="81.6309" y="268.9" width="34.7" height="34.7" fill="#B574F7" fill-opacity="0.07"/>
<rect opacity="0.3" x="119.331" y="268.9" width="34.7" height="34.7" fill="#B574F7" fill-opacity="0.07"/>
<rect opacity="0.3" x="157.031" y="268.9" width="34.7" height="34.7" fill="#B574F7" fill-opacity="0.07"/>
<rect opacity="0.3" x="194.731" y="268.9" width="34.7" height="34.7" fill="#B574F7" fill-opacity="0.07"/>
<rect opacity="0.3" x="232.431" y="268.9" width="34.7" height="34.7" fill="#B574F7" fill-opacity="0.07"/>
<rect opacity="0.3" x="270.131" y="268.9" width="34.7" height="34.7" fill="#B574F7" fill-opacity="0.07"/>
<rect opacity="0.3" x="307.831" y="268.9" width="34.7" height="34.7" fill="#B574F7" fill-opacity="0.07"/>
<rect opacity="0.3" x="345.531" y="268.9" width="34.7" height="34.7" fill="#B574F7" fill-opacity="0.07"/>
<rect opacity="0.3" x="383.231" y="268.9" width="34.7" height="34.7" fill="#B574F7" fill-opacity="0.07"/>
<rect opacity="0.3" x="420.931" y="268.9" width="34.7" height="34.7" fill="#B574F7" fill-opacity="0.07"/>
<rect opacity="0.3" x="458.631" y="268.9" width="34.7" height="34.7" fill="#B574F7" fill-opacity="0.07"/>
<rect opacity="0.3" x="496.331" y="268.9" width="34.7" height="34.7" fill="#B574F7" fill-opacity="0.07"/>
<rect opacity="0.3" x="534.031" y="268.9" width="34.7" height="34.7" fill="#B574F7" fill-opacity="0.07"/>
<rect opacity="0.3" x="571.731" y="268.9" width="34.7" height="34.7" fill="#B574F7" fill-opacity="0.07"/>
<rect opacity="0.3" x="609.431" y="268.9" width="34.7" height="34.7" fill="#B574F7" fill-opacity="0.07"/>
<rect opacity="0.3" x="647.131" y="268.9" width="34.7" height="34.7" fill="#B574F7" fill-opacity="0.07"/>
<rect opacity="0.3" x="684.831" y="268.9" width="34.7" height="34.7" fill="#B574F7" fill-opacity="0.07"/>
<rect opacity="0.3" x="722.531" y="268.9" width="34.7" height="34.7" fill="#B574F7" fill-opacity="0.07"/>
<rect opacity="0.3" x="760.231" y="268.9" width="34.7" height="34.7" fill="#B574F7" fill-opacity="0.07"/>
<rect opacity="0.3" x="797.931" y="268.9" width="34.7" height="34.7" fill="#B574F7" fill-opacity="0.07"/>
<rect opacity="0.3" x="835.631" y="268.9" width="34.7" height="34.7" fill="#B574F7" fill-opacity="0.07"/>
<rect opacity="0.3" x="873.331" y="268.9" width="34.7" height="34.7" fill="#B574F7" fill-opacity="0.07"/>
<rect opacity="0.3" x="911.031" y="268.9" width="34.7" height="34.7" fill="#B574F7" fill-opacity="0.07"/>
<rect opacity="0.3" x="948.731" y="268.9" width="34.7" height="34.7" fill="#B574F7" fill-opacity="0.07"/>
<rect opacity="0.3" x="986.431" y="268.9" width="34.7" height="34.7" fill="#B574F7" fill-opacity="0.07"/>
<rect opacity="0.3" x="1024.13" y="268.9" width="34.7" height="34.7" fill="#B574F7" fill-opacity="0.07"/>
<rect opacity="0.3" x="1061.83" y="268.9" width="34.7" height="34.7" fill="#B574F7" fill-opacity="0.07"/>
<rect opacity="0.3" x="1099.53" y="268.9" width="34.7" height="34.7" fill="#B574F7" fill-opacity="0.07"/>
<rect opacity="0.3" x="1137.23" y="268.9" width="34.7" height="34.7" fill="#B574F7" fill-opacity="0.07"/>
<rect opacity="0.3" x="1174.93" y="268.9" width="34.7" height="34.7" fill="#B574F7" fill-opacity="0.07"/>
<rect opacity="0.3" x="1212.63" y="268.9" width="34.7" height="34.7" fill="#B574F7" fill-opacity="0.07"/>
<rect opacity="0.3" x="1250.33" y="268.9" width="34.7" height="34.7" fill="#B574F7" fill-opacity="0.07"/>
<rect opacity="0.3" x="1288.03" y="268.9" width="34.7" height="34.7" fill="#B574F7" fill-opacity="0.07"/>
<rect opacity="0.3" x="1325.73" y="268.9" width="34.7" height="34.7" fill="#B574F7" fill-opacity="0.07"/>
<rect opacity="0.3" x="1363.43" y="268.9" width="34.7" height="34.7" fill="#B574F7" fill-opacity="0.07"/>
<rect opacity="0.3" x="1401.13" y="268.9" width="34.7" height="34.7" fill="#B574F7" fill-opacity="0.07"/>
<rect opacity="0.3" x="6.23096" y="306.6" width="34.7" height="34.7" fill="#B574F7" fill-opacity="0.07"/>
<rect opacity="0.3" x="43.9309" y="306.6" width="34.7" height="34.7" fill="#B574F7" fill-opacity="0.07"/>
<rect opacity="0.3" x="81.6309" y="306.6" width="34.7" height="34.7" fill="#B574F7" fill-opacity="0.07"/>
<rect opacity="0.3" x="119.331" y="306.6" width="34.7" height="34.7" fill="#B574F7" fill-opacity="0.07"/>
<rect opacity="0.3" x="157.031" y="306.6" width="34.7" height="34.7" fill="#B574F7" fill-opacity="0.07"/>
<rect opacity="0.6" x="194.731" y="306.6" width="34.7" height="34.7" fill="#B574F7" fill-opacity="0.07"/>
<rect opacity="0.3" x="232.431" y="306.6" width="34.7" height="34.7" fill="#B574F7" fill-opacity="0.07"/>
<rect opacity="0.3" x="270.131" y="306.6" width="34.7" height="34.7" fill="#B574F7" fill-opacity="0.07"/>
<rect opacity="0.3" x="307.831" y="306.6" width="34.7" height="34.7" fill="#B574F7" fill-opacity="0.07"/>
<rect opacity="0.3" x="345.531" y="306.6" width="34.7" height="34.7" fill="#B574F7" fill-opacity="0.07"/>
<rect opacity="0.3" x="383.231" y="306.6" width="34.7" height="34.7" fill="#B574F7" fill-opacity="0.07"/>
<rect opacity="0.3" x="420.931" y="306.6" width="34.7" height="34.7" fill="#B574F7" fill-opacity="0.07"/>
<rect opacity="0.3" x="458.631" y="306.6" width="34.7" height="34.7" fill="#B574F7" fill-opacity="0.07"/>
<rect opacity="0.3" x="496.331" y="306.6" width="34.7" height="34.7" fill="#B574F7" fill-opacity="0.07"/>
<rect opacity="0.3" x="534.031" y="306.6" width="34.7" height="34.7" fill="#B574F7" fill-opacity="0.07"/>
<rect opacity="0.3" x="571.731" y="306.6" width="34.7" height="34.7" fill="#B574F7" fill-opacity="0.07"/>
<rect opacity="0.3" x="609.431" y="306.6" width="34.7" height="34.7" fill="#B574F7" fill-opacity="0.07"/>
<rect opacity="0.3" x="647.131" y="306.6" width="34.7" height="34.7" fill="#B574F7" fill-opacity="0.07"/>
<rect opacity="0.3" x="684.831" y="306.6" width="34.7" height="34.7" fill="#B574F7" fill-opacity="0.07"/>
<rect opacity="0.3" x="722.531" y="306.6" width="34.7" height="34.7" fill="#B574F7" fill-opacity="0.07"/>
<rect opacity="0.3" x="760.231" y="306.6" width="34.7" height="34.7" fill="#B574F7" fill-opacity="0.07"/>
<rect opacity="0.3" x="797.931" y="306.6" width="34.7" height="34.7" fill="#B574F7" fill-opacity="0.07"/>
<rect opacity="0.3" x="835.631" y="306.6" width="34.7" height="34.7" fill="#B574F7" fill-opacity="0.07"/>
<rect opacity="0.3" x="873.331" y="306.6" width="34.7" height="34.7" fill="#B574F7" fill-opacity="0.07"/>
<rect opacity="0.3" x="911.031" y="306.6" width="34.7" height="34.7" fill="#B574F7" fill-opacity="0.07"/>
<rect opacity="0.3" x="948.731" y="306.6" width="34.7" height="34.7" fill="#B574F7" fill-opacity="0.07"/>
<rect opacity="0.3" x="986.431" y="306.6" width="34.7" height="34.7" fill="#B574F7" fill-opacity="0.07"/>
<rect opacity="0.3" x="1024.13" y="306.6" width="34.7" height="34.7" fill="#B574F7" fill-opacity="0.07"/>
<rect opacity="0.3" x="1061.83" y="306.6" width="34.7" height="34.7" fill="#B574F7" fill-opacity="0.07"/>
<rect opacity="0.3" x="1099.53" y="306.6" width="34.7" height="34.7" fill="#B574F7" fill-opacity="0.07"/>
<rect opacity="0.3" x="1137.23" y="306.6" width="34.7" height="34.7" fill="#B574F7" fill-opacity="0.07"/>
<rect opacity="0.3" x="1174.93" y="306.6" width="34.7" height="34.7" fill="#B574F7" fill-opacity="0.07"/>
<rect opacity="0.3" x="1212.63" y="306.6" width="34.7" height="34.7" fill="#B574F7" fill-opacity="0.07"/>
<rect opacity="0.3" x="1250.33" y="306.6" width="34.7" height="34.7" fill="#B574F7" fill-opacity="0.07"/>
<rect opacity="0.3" x="1288.03" y="306.6" width="34.7" height="34.7" fill="#B574F7" fill-opacity="0.07"/>
<rect opacity="0.6" x="1325.73" y="306.6" width="34.7" height="34.7" fill="#B574F7" fill-opacity="0.07"/>
<rect opacity="0.3" x="1363.43" y="306.6" width="34.7" height="34.7" fill="#B574F7" fill-opacity="0.07"/>
<rect opacity="0.3" x="1401.13" y="306.6" width="34.7" height="34.7" fill="#B574F7" fill-opacity="0.07"/>
<rect opacity="0.3" x="6.23096" y="344.3" width="34.7" height="34.7" fill="#B574F7" fill-opacity="0.07"/>
<rect opacity="0.3" x="43.9309" y="344.3" width="34.7" height="34.7" fill="#B574F7" fill-opacity="0.07"/>
<rect opacity="0.3" x="81.6309" y="344.3" width="34.7" height="34.7" fill="#B574F7" fill-opacity="0.07"/>
<rect opacity="0.3" x="119.331" y="344.3" width="34.7" height="34.7" fill="#B574F7" fill-opacity="0.07"/>
<rect opacity="0.3" x="157.031" y="344.3" width="34.7" height="34.7" fill="#B574F7" fill-opacity="0.07"/>
<rect opacity="0.3" x="194.731" y="344.3" width="34.7" height="34.7" fill="#B574F7" fill-opacity="0.07"/>
<rect opacity="0.3" x="232.431" y="344.3" width="34.7" height="34.7" fill="#B574F7" fill-opacity="0.07"/>
<rect opacity="0.3" x="270.131" y="344.3" width="34.7" height="34.7" fill="#B574F7" fill-opacity="0.07"/>
<rect opacity="0.3" x="307.831" y="344.3" width="34.7" height="34.7" fill="#B574F7" fill-opacity="0.07"/>
<rect opacity="0.3" x="345.531" y="344.3" width="34.7" height="34.7" fill="#B574F7" fill-opacity="0.07"/>
<rect opacity="0.3" x="383.231" y="344.3" width="34.7" height="34.7" fill="#B574F7" fill-opacity="0.07"/>
<rect opacity="0.6" x="420.931" y="344.3" width="34.7" height="34.7" fill="#B574F7" fill-opacity="0.07"/>
<rect opacity="0.3" x="458.631" y="344.3" width="34.7" height="34.7" fill="#B574F7" fill-opacity="0.07"/>
<rect opacity="0.3" x="496.331" y="344.3" width="34.7" height="34.7" fill="#B574F7" fill-opacity="0.07"/>
<rect opacity="0.3" x="534.031" y="344.3" width="34.7" height="34.7" fill="#B574F7" fill-opacity="0.07"/>
<rect opacity="0.3" x="571.731" y="344.3" width="34.7" height="34.7" fill="#B574F7" fill-opacity="0.07"/>
<rect opacity="0.3" x="609.431" y="344.3" width="34.7" height="34.7" fill="#B574F7" fill-opacity="0.07"/>
<rect opacity="0.3" x="647.131" y="344.3" width="34.7" height="34.7" fill="#B574F7" fill-opacity="0.07"/>
<rect opacity="0.3" x="684.831" y="344.3" width="34.7" height="34.7" fill="#B574F7" fill-opacity="0.07"/>
<rect opacity="0.3" x="722.531" y="344.3" width="34.7" height="34.7" fill="#B574F7" fill-opacity="0.07"/>
<rect opacity="0.3" x="760.231" y="344.3" width="34.7" height="34.7" fill="#B574F7" fill-opacity="0.07"/>
<rect opacity="0.3" x="797.931" y="344.3" width="34.7" height="34.7" fill="#B574F7" fill-opacity="0.07"/>
<rect opacity="0.3" x="835.631" y="344.3" width="34.7" height="34.7" fill="#B574F7" fill-opacity="0.07"/>
<rect opacity="0.3" x="873.331" y="344.3" width="34.7" height="34.7" fill="#B574F7" fill-opacity="0.07"/>
<rect opacity="0.3" x="911.031" y="344.3" width="34.7" height="34.7" fill="#B574F7" fill-opacity="0.07"/>
<rect opacity="0.3" x="948.731" y="344.3" width="34.7" height="34.7" fill="#B574F7" fill-opacity="0.07"/>
<rect opacity="0.3" x="986.431" y="344.3" width="34.7" height="34.7" fill="#B574F7" fill-opacity="0.07"/>
<rect opacity="0.3" x="1024.13" y="344.3" width="34.7" height="34.7" fill="#B574F7" fill-opacity="0.07"/>
<rect opacity="0.3" x="1061.83" y="344.3" width="34.7" height="34.7" fill="#B574F7" fill-opacity="0.07"/>
<rect opacity="0.3" x="1099.53" y="344.3" width="34.7" height="34.7" fill="#B574F7" fill-opacity="0.07"/>
<rect opacity="0.3" x="1137.23" y="344.3" width="34.7" height="34.7" fill="#B574F7" fill-opacity="0.07"/>
<rect opacity="0.3" x="1174.93" y="344.3" width="34.7" height="34.7" fill="#B574F7" fill-opacity="0.07"/>
<rect opacity="0.3" x="1212.63" y="344.3" width="34.7" height="34.7" fill="#B574F7" fill-opacity="0.07"/>
<rect opacity="0.3" x="1250.33" y="344.3" width="34.7" height="34.7" fill="#B574F7" fill-opacity="0.07"/>
<rect opacity="0.9" x="1288.03" y="344.3" width="34.7" height="34.7" fill="#B574F7" fill-opacity="0.07"/>
<rect opacity="0.6" x="1325.73" y="344.3" width="34.7" height="34.7" fill="#B574F7" fill-opacity="0.07"/>
<rect opacity="0.3" x="1363.43" y="344.3" width="34.7" height="34.7" fill="#B574F7" fill-opacity="0.07"/>
<rect opacity="0.3" x="1401.13" y="344.3" width="34.7" height="34.7" fill="#B574F7" fill-opacity="0.07"/>
<rect opacity="0.3" x="6.23096" y="382" width="34.7" height="34.7" fill="#B574F7" fill-opacity="0.07"/>
<rect opacity="0.3" x="43.9309" y="382" width="34.7" height="34.7" fill="#B574F7" fill-opacity="0.07"/>
<rect opacity="0.6" x="81.6309" y="382" width="34.7" height="34.7" fill="#B574F7" fill-opacity="0.07"/>
<rect opacity="0.3" x="119.331" y="382" width="34.7" height="34.7" fill="#B574F7" fill-opacity="0.07"/>
<rect opacity="0.3" x="157.031" y="382" width="34.7" height="34.7" fill="#B574F7" fill-opacity="0.07"/>
<rect opacity="0.3" x="194.731" y="382" width="34.7" height="34.7" fill="#B574F7" fill-opacity="0.07"/>
<rect opacity="0.6" x="232.431" y="382" width="34.7" height="34.7" fill="#B574F7" fill-opacity="0.07"/>
<rect opacity="0.3" x="270.131" y="382" width="34.7" height="34.7" fill="#B574F7" fill-opacity="0.07"/>
<rect opacity="0.3" x="307.831" y="382" width="34.7" height="34.7" fill="#B574F7" fill-opacity="0.07"/>
<rect opacity="0.3" x="345.531" y="382" width="34.7" height="34.7" fill="#B574F7" fill-opacity="0.07"/>
<rect opacity="0.3" x="383.231" y="382" width="34.7" height="34.7" fill="#B574F7" fill-opacity="0.07"/>
<rect opacity="0.3" x="420.931" y="382" width="34.7" height="34.7" fill="#B574F7" fill-opacity="0.07"/>
<rect opacity="0.3" x="458.631" y="382" width="34.7" height="34.7" fill="#B574F7" fill-opacity="0.07"/>
<rect opacity="0.3" x="496.331" y="382" width="34.7" height="34.7" fill="#B574F7" fill-opacity="0.07"/>
<rect opacity="0.3" x="534.031" y="382" width="34.7" height="34.7" fill="#B574F7" fill-opacity="0.07"/>
<rect opacity="0.3" x="571.731" y="382" width="34.7" height="34.7" fill="#B574F7" fill-opacity="0.07"/>
<rect opacity="0.3" x="609.431" y="382" width="34.7" height="34.7" fill="#B574F7" fill-opacity="0.07"/>
<rect opacity="0.3" x="647.131" y="382" width="34.7" height="34.7" fill="#B574F7" fill-opacity="0.07"/>
<rect opacity="0.3" x="684.831" y="382" width="34.7" height="34.7" fill="#B574F7" fill-opacity="0.07"/>
<rect opacity="0.3" x="722.531" y="382" width="34.7" height="34.7" fill="#B574F7" fill-opacity="0.07"/>
<rect opacity="0.3" x="760.231" y="382" width="34.7" height="34.7" fill="#B574F7" fill-opacity="0.07"/>
<rect opacity="0.3" x="797.931" y="382" width="34.7" height="34.7" fill="#B574F7" fill-opacity="0.07"/>
<rect opacity="0.3" x="835.631" y="382" width="34.7" height="34.7" fill="#B574F7" fill-opacity="0.07"/>
<rect opacity="0.3" x="873.331" y="382" width="34.7" height="34.7" fill="#B574F7" fill-opacity="0.07"/>
<rect opacity="0.3" x="911.031" y="382" width="34.7" height="34.7" fill="#B574F7" fill-opacity="0.07"/>
<rect opacity="0.3" x="948.731" y="382" width="34.7" height="34.7" fill="#B574F7" fill-opacity="0.07"/>
<rect opacity="0.3" x="986.431" y="382" width="34.7" height="34.7" fill="#B574F7" fill-opacity="0.07"/>
<rect opacity="0.3" x="1024.13" y="382" width="34.7" height="34.7" fill="#B574F7" fill-opacity="0.07"/>
<rect opacity="0.3" x="1061.83" y="382" width="34.7" height="34.7" fill="#B574F7" fill-opacity="0.07"/>
<rect opacity="0.3" x="1099.53" y="382" width="34.7" height="34.7" fill="#B574F7" fill-opacity="0.07"/>
<rect opacity="0.3" x="1137.23" y="382" width="34.7" height="34.7" fill="#B574F7" fill-opacity="0.07"/>
<rect opacity="0.9" x="1174.93" y="382" width="34.7" height="34.7" fill="#B574F7" fill-opacity="0.07"/>
<rect opacity="0.3" x="1212.63" y="382" width="34.7" height="34.7" fill="#B574F7" fill-opacity="0.07"/>
<rect opacity="0.3" x="1250.33" y="382" width="34.7" height="34.7" fill="#B574F7" fill-opacity="0.07"/>
<rect opacity="0.3" x="1288.03" y="382" width="34.7" height="34.7" fill="#B574F7" fill-opacity="0.07"/>
<rect opacity="0.3" x="1325.73" y="382" width="34.7" height="34.7" fill="#B574F7" fill-opacity="0.07"/>
<rect opacity="0.3" x="1363.43" y="382" width="34.7" height="34.7" fill="#B574F7" fill-opacity="0.07"/>
<rect opacity="0.3" x="1401.13" y="382" width="34.7" height="34.7" fill="#B574F7" fill-opacity="0.07"/>
<rect opacity="0.3" x="6.23096" y="419.7" width="34.7" height="34.7" fill="#B574F7" fill-opacity="0.07"/>
<rect opacity="0.3" x="43.9309" y="419.7" width="34.7" height="34.7" fill="#B574F7" fill-opacity="0.07"/>
<rect opacity="0.3" x="81.6309" y="419.7" width="34.7" height="34.7" fill="#B574F7" fill-opacity="0.07"/>
<rect opacity="0.3" x="119.331" y="419.7" width="34.7" height="34.7" fill="#B574F7" fill-opacity="0.07"/>
<rect opacity="0.3" x="157.031" y="419.7" width="34.7" height="34.7" fill="#B574F7" fill-opacity="0.07"/>
<rect opacity="0.3" x="194.731" y="419.7" width="34.7" height="34.7" fill="#B574F7" fill-opacity="0.07"/>
<rect opacity="0.3" x="232.431" y="419.7" width="34.7" height="34.7" fill="#B574F7" fill-opacity="0.07"/>
<rect opacity="0.3" x="270.131" y="419.7" width="34.7" height="34.7" fill="#B574F7" fill-opacity="0.07"/>
<rect opacity="0.6" x="307.831" y="419.7" width="34.7" height="34.7" fill="#B574F7" fill-opacity="0.07"/>
<rect opacity="0.3" x="345.531" y="419.7" width="34.7" height="34.7" fill="#B574F7" fill-opacity="0.07"/>
<rect opacity="0.3" x="383.231" y="419.7" width="34.7" height="34.7" fill="#B574F7" fill-opacity="0.07"/>
<rect opacity="0.3" x="420.931" y="419.7" width="34.7" height="34.7" fill="#B574F7" fill-opacity="0.07"/>
<rect opacity="0.3" x="458.631" y="419.7" width="34.7" height="34.7" fill="#B574F7" fill-opacity="0.07"/>
<rect opacity="0.3" x="496.331" y="419.7" width="34.7" height="34.7" fill="#B574F7" fill-opacity="0.07"/>
<rect opacity="0.3" x="534.031" y="419.7" width="34.7" height="34.7" fill="#B574F7" fill-opacity="0.07"/>
<rect opacity="0.3" x="571.731" y="419.7" width="34.7" height="34.7" fill="#B574F7" fill-opacity="0.07"/>
<rect opacity="0.3" x="609.431" y="419.7" width="34.7" height="34.7" fill="#B574F7" fill-opacity="0.07"/>
<rect opacity="0.3" x="647.131" y="419.7" width="34.7" height="34.7" fill="#B574F7" fill-opacity="0.07"/>
<rect opacity="0.3" x="684.831" y="419.7" width="34.7" height="34.7" fill="#B574F7" fill-opacity="0.07"/>
<rect opacity="0.3" x="722.531" y="419.7" width="34.7" height="34.7" fill="#B574F7" fill-opacity="0.07"/>
<rect opacity="0.3" x="760.231" y="419.7" width="34.7" height="34.7" fill="#B574F7" fill-opacity="0.07"/>
<rect opacity="0.3" x="797.931" y="419.7" width="34.7" height="34.7" fill="#B574F7" fill-opacity="0.07"/>
<rect opacity="0.6" x="835.631" y="419.7" width="34.7" height="34.7" fill="#B574F7" fill-opacity="0.07"/>
<rect opacity="0.3" x="873.331" y="419.7" width="34.7" height="34.7" fill="#B574F7" fill-opacity="0.07"/>
<rect opacity="0.3" x="911.031" y="419.7" width="34.7" height="34.7" fill="#B574F7" fill-opacity="0.07"/>
<rect opacity="0.3" x="948.731" y="419.7" width="34.7" height="34.7" fill="#B574F7" fill-opacity="0.07"/>
<rect opacity="0.3" x="986.431" y="419.7" width="34.7" height="34.7" fill="#B574F7" fill-opacity="0.07"/>
<rect opacity="0.3" x="1024.13" y="419.7" width="34.7" height="34.7" fill="#B574F7" fill-opacity="0.07"/>
<rect opacity="0.3" x="1061.83" y="419.7" width="34.7" height="34.7" fill="#B574F7" fill-opacity="0.07"/>
<rect opacity="0.3" x="1099.53" y="419.7" width="34.7" height="34.7" fill="#B574F7" fill-opacity="0.07"/>
<rect opacity="0.3" x="1137.23" y="419.7" width="34.7" height="34.7" fill="#B574F7" fill-opacity="0.07"/>
<rect opacity="0.3" x="1174.93" y="419.7" width="34.7" height="34.7" fill="#B574F7" fill-opacity="0.07"/>
<rect opacity="0.3" x="1212.63" y="419.7" width="34.7" height="34.7" fill="#B574F7" fill-opacity="0.07"/>
<rect opacity="0.3" x="1250.33" y="419.7" width="34.7" height="34.7" fill="#B574F7" fill-opacity="0.07"/>
<rect opacity="0.3" x="1288.03" y="419.7" width="34.7" height="34.7" fill="#B574F7" fill-opacity="0.07"/>
<rect opacity="0.3" x="1325.73" y="419.7" width="34.7" height="34.7" fill="#B574F7" fill-opacity="0.07"/>
<rect opacity="0.3" x="1363.43" y="419.7" width="34.7" height="34.7" fill="#B574F7" fill-opacity="0.07"/>
<rect opacity="0.6" x="1401.13" y="419.7" width="34.7" height="34.7" fill="#B574F7" fill-opacity="0.07"/>
<rect opacity="0.3" x="6.23096" y="457.4" width="34.7" height="34.7" fill="#B574F7" fill-opacity="0.07"/>
<rect opacity="0.3" x="43.9309" y="457.4" width="34.7" height="34.7" fill="#B574F7" fill-opacity="0.07"/>
<rect opacity="0.3" x="81.6309" y="457.4" width="34.7" height="34.7" fill="#B574F7" fill-opacity="0.07"/>
<rect opacity="0.3" x="119.331" y="457.4" width="34.7" height="34.7" fill="#B574F7" fill-opacity="0.07"/>
<rect opacity="0.6" x="157.031" y="457.4" width="34.7" height="34.7" fill="#B574F7" fill-opacity="0.07"/>
<rect opacity="0.3" x="194.731" y="457.4" width="34.7" height="34.7" fill="#B574F7" fill-opacity="0.07"/>
<rect opacity="0.3" x="232.431" y="457.4" width="34.7" height="34.7" fill="#B574F7" fill-opacity="0.07"/>
<rect opacity="0.3" x="270.131" y="457.4" width="34.7" height="34.7" fill="#B574F7" fill-opacity="0.07"/>
<rect opacity="0.3" x="307.831" y="457.4" width="34.7" height="34.7" fill="#B574F7" fill-opacity="0.07"/>
<rect opacity="0.3" x="345.531" y="457.4" width="34.7" height="34.7" fill="#B574F7" fill-opacity="0.07"/>
<rect opacity="0.3" x="383.231" y="457.4" width="34.7" height="34.7" fill="#B574F7" fill-opacity="0.07"/>
<rect opacity="0.3" x="420.931" y="457.4" width="34.7" height="34.7" fill="#B574F7" fill-opacity="0.07"/>
<rect opacity="0.3" x="458.631" y="457.4" width="34.7" height="34.7" fill="#B574F7" fill-opacity="0.07"/>
<rect opacity="0.6" x="496.331" y="457.4" width="34.7" height="34.7" fill="#B574F7" fill-opacity="0.07"/>
<rect opacity="0.3" x="534.031" y="457.4" width="34.7" height="34.7" fill="#B574F7" fill-opacity="0.07"/>
<rect opacity="0.3" x="571.731" y="457.4" width="34.7" height="34.7" fill="#B574F7" fill-opacity="0.07"/>
<rect opacity="0.3" x="609.431" y="457.4" width="34.7" height="34.7" fill="#B574F7" fill-opacity="0.07"/>
<rect opacity="0.3" x="647.131" y="457.4" width="34.7" height="34.7" fill="#B574F7" fill-opacity="0.07"/>
<rect opacity="0.3" x="684.831" y="457.4" width="34.7" height="34.7" fill="#B574F7" fill-opacity="0.07"/>
<rect opacity="0.3" x="722.531" y="457.4" width="34.7" height="34.7" fill="#B574F7" fill-opacity="0.07"/>
<rect opacity="0.3" x="760.231" y="457.4" width="34.7" height="34.7" fill="#B574F7" fill-opacity="0.07"/>
<rect opacity="0.3" x="797.931" y="457.4" width="34.7" height="34.7" fill="#B574F7" fill-opacity="0.07"/>
<rect opacity="0.3" x="835.631" y="457.4" width="34.7" height="34.7" fill="#B574F7" fill-opacity="0.07"/>
<rect opacity="0.3" x="873.331" y="457.4" width="34.7" height="34.7" fill="#B574F7" fill-opacity="0.07"/>
<rect opacity="0.3" x="911.031" y="457.4" width="34.7" height="34.7" fill="#B574F7" fill-opacity="0.07"/>
<rect opacity="0.3" x="948.731" y="457.4" width="34.7" height="34.7" fill="#B574F7" fill-opacity="0.07"/>
<rect opacity="0.3" x="986.431" y="457.4" width="34.7" height="34.7" fill="#B574F7" fill-opacity="0.07"/>
<rect opacity="0.3" x="1024.13" y="457.4" width="34.7" height="34.7" fill="#B574F7" fill-opacity="0.07"/>
<rect opacity="0.3" x="1061.83" y="457.4" width="34.7" height="34.7" fill="#B574F7" fill-opacity="0.07"/>
<rect opacity="0.3" x="1099.53" y="457.4" width="34.7" height="34.7" fill="#B574F7" fill-opacity="0.07"/>
<rect opacity="0.3" x="1137.23" y="457.4" width="34.7" height="34.7" fill="#B574F7" fill-opacity="0.07"/>
<rect opacity="0.3" x="1174.93" y="457.4" width="34.7" height="34.7" fill="#B574F7" fill-opacity="0.07"/>
<rect opacity="0.3" x="1212.63" y="457.4" width="34.7" height="34.7" fill="#B574F7" fill-opacity="0.07"/>
<rect opacity="0.3" x="1250.33" y="457.4" width="34.7" height="34.7" fill="#B574F7" fill-opacity="0.07"/>
<rect opacity="0.3" x="1288.03" y="457.4" width="34.7" height="34.7" fill="#B574F7" fill-opacity="0.07"/>
<rect opacity="0.3" x="1325.73" y="457.4" width="34.7" height="34.7" fill="#B574F7" fill-opacity="0.07"/>
<rect opacity="0.3" x="1363.43" y="457.4" width="34.7" height="34.7" fill="#B574F7" fill-opacity="0.07"/>
<rect opacity="0.3" x="1401.13" y="457.4" width="34.7" height="34.7" fill="#B574F7" fill-opacity="0.07"/>
<rect opacity="0.3" x="6.23096" y="495.1" width="34.7" height="34.7" fill="#B574F7" fill-opacity="0.07"/>
<rect opacity="0.3" x="43.9309" y="495.1" width="34.7" height="34.7" fill="#B574F7" fill-opacity="0.07"/>
<rect opacity="0.3" x="81.6309" y="495.1" width="34.7" height="34.7" fill="#B574F7" fill-opacity="0.07"/>
<rect opacity="0.3" x="119.331" y="495.1" width="34.7" height="34.7" fill="#B574F7" fill-opacity="0.07"/>
<rect opacity="0.3" x="157.031" y="495.1" width="34.7" height="34.7" fill="#B574F7" fill-opacity="0.07"/>
<rect opacity="0.3" x="194.731" y="495.1" width="34.7" height="34.7" fill="#B574F7" fill-opacity="0.07"/>
<rect opacity="0.3" x="232.431" y="495.1" width="34.7" height="34.7" fill="#B574F7" fill-opacity="0.07"/>
<rect opacity="0.3" x="270.131" y="495.1" width="34.7" height="34.7" fill="#B574F7" fill-opacity="0.07"/>
<rect opacity="0.3" x="307.831" y="495.1" width="34.7" height="34.7" fill="#B574F7" fill-opacity="0.07"/>
<rect opacity="0.3" x="345.531" y="495.1" width="34.7" height="34.7" fill="#B574F7" fill-opacity="0.07"/>
<rect opacity="0.3" x="383.231" y="495.1" width="34.7" height="34.7" fill="#B574F7" fill-opacity="0.07"/>
<rect opacity="0.9" x="420.931" y="495.1" width="34.7" height="34.7" fill="#B574F7" fill-opacity="0.07"/>
<rect opacity="0.3" x="458.631" y="495.1" width="34.7" height="34.7" fill="#B574F7" fill-opacity="0.07"/>
<rect opacity="0.3" x="496.331" y="495.1" width="34.7" height="34.7" fill="#B574F7" fill-opacity="0.07"/>
<rect opacity="0.3" x="534.031" y="495.1" width="34.7" height="34.7" fill="#B574F7" fill-opacity="0.07"/>
<rect opacity="0.3" x="571.731" y="495.1" width="34.7" height="34.7" fill="#B574F7" fill-opacity="0.07"/>
<rect opacity="0.3" x="609.431" y="495.1" width="34.7" height="34.7" fill="#B574F7" fill-opacity="0.07"/>
<rect opacity="0.3" x="647.131" y="495.1" width="34.7" height="34.7" fill="#B574F7" fill-opacity="0.07"/>
<rect opacity="0.3" x="684.831" y="495.1" width="34.7" height="34.7" fill="#B574F7" fill-opacity="0.07"/>
<rect opacity="0.3" x="722.531" y="495.1" width="34.7" height="34.7" fill="#B574F7" fill-opacity="0.07"/>
<rect opacity="0.3" x="760.231" y="495.1" width="34.7" height="34.7" fill="#B574F7" fill-opacity="0.07"/>
<rect opacity="0.3" x="797.931" y="495.1" width="34.7" height="34.7" fill="#B574F7" fill-opacity="0.07"/>
<rect opacity="0.3" x="835.631" y="495.1" width="34.7" height="34.7" fill="#B574F7" fill-opacity="0.07"/>
<rect opacity="0.3" x="873.331" y="495.1" width="34.7" height="34.7" fill="#B574F7" fill-opacity="0.07"/>
<rect opacity="0.9" x="911.031" y="495.1" width="34.7" height="34.7" fill="#B574F7" fill-opacity="0.07"/>
<rect opacity="0.3" x="948.731" y="495.1" width="34.7" height="34.7" fill="#B574F7" fill-opacity="0.07"/>
<rect opacity="0.3" x="986.431" y="495.1" width="34.7" height="34.7" fill="#B574F7" fill-opacity="0.07"/>
<rect opacity="0.3" x="1024.13" y="495.1" width="34.7" height="34.7" fill="#B574F7" fill-opacity="0.07"/>
<rect opacity="0.3" x="1061.83" y="495.1" width="34.7" height="34.7" fill="#B574F7" fill-opacity="0.07"/>
<rect opacity="0.3" x="1099.53" y="495.1" width="34.7" height="34.7" fill="#B574F7" fill-opacity="0.07"/>
<rect opacity="0.3" x="1137.23" y="495.1" width="34.7" height="34.7" fill="#B574F7" fill-opacity="0.07"/>
<rect opacity="0.3" x="1174.93" y="495.1" width="34.7" height="34.7" fill="#B574F7" fill-opacity="0.07"/>
<rect opacity="0.3" x="1212.63" y="495.1" width="34.7" height="34.7" fill="#B574F7" fill-opacity="0.07"/>
<rect opacity="0.3" x="1250.33" y="495.1" width="34.7" height="34.7" fill="#B574F7" fill-opacity="0.07"/>
<rect opacity="0.6" x="1288.03" y="495.1" width="34.7" height="34.7" fill="#B574F7" fill-opacity="0.07"/>
<rect opacity="0.3" x="1325.73" y="495.1" width="34.7" height="34.7" fill="#B574F7" fill-opacity="0.07"/>
<rect opacity="0.3" x="1363.43" y="495.1" width="34.7" height="34.7" fill="#B574F7" fill-opacity="0.07"/>
<rect opacity="0.3" x="1401.13" y="495.1" width="34.7" height="34.7" fill="#B574F7" fill-opacity="0.07"/>
<rect opacity="0.3" x="6.23096" y="532.8" width="34.7" height="34.7" fill="#B574F7" fill-opacity="0.07"/>
<rect opacity="0.3" x="43.9309" y="532.8" width="34.7" height="34.7" fill="#B574F7" fill-opacity="0.07"/>
<rect opacity="0.6" x="81.6309" y="532.8" width="34.7" height="34.7" fill="#B574F7" fill-opacity="0.07"/>
<rect opacity="0.3" x="119.331" y="532.8" width="34.7" height="34.7" fill="#B574F7" fill-opacity="0.07"/>
<rect opacity="0.3" x="157.031" y="532.8" width="34.7" height="34.7" fill="#B574F7" fill-opacity="0.07"/>
<rect opacity="0.3" x="194.731" y="532.8" width="34.7" height="34.7" fill="#B574F7" fill-opacity="0.07"/>
<rect opacity="0.3" x="232.431" y="532.8" width="34.7" height="34.7" fill="#B574F7" fill-opacity="0.07"/>
<rect opacity="0.3" x="270.131" y="532.8" width="34.7" height="34.7" fill="#B574F7" fill-opacity="0.07"/>
<rect opacity="0.3" x="307.831" y="532.8" width="34.7" height="34.7" fill="#B574F7" fill-opacity="0.07"/>
<rect opacity="0.3" x="345.531" y="532.8" width="34.7" height="34.7" fill="#B574F7" fill-opacity="0.07"/>
<rect opacity="0.3" x="383.231" y="532.8" width="34.7" height="34.7" fill="#B574F7" fill-opacity="0.07"/>
<rect opacity="0.3" x="420.931" y="532.8" width="34.7" height="34.7" fill="#B574F7" fill-opacity="0.07"/>
<rect opacity="0.3" x="458.631" y="532.8" width="34.7" height="34.7" fill="#B574F7" fill-opacity="0.07"/>
<rect opacity="0.3" x="496.331" y="532.8" width="34.7" height="34.7" fill="#B574F7" fill-opacity="0.07"/>
<rect opacity="0.3" x="534.031" y="532.8" width="34.7" height="34.7" fill="#B574F7" fill-opacity="0.07"/>
<rect opacity="0.3" x="571.731" y="532.8" width="34.7" height="34.7" fill="#B574F7" fill-opacity="0.07"/>
<rect opacity="0.3" x="609.431" y="532.8" width="34.7" height="34.7" fill="#B574F7" fill-opacity="0.07"/>
<rect opacity="0.3" x="647.131" y="532.8" width="34.7" height="34.7" fill="#B574F7" fill-opacity="0.07"/>
<rect opacity="0.3" x="684.831" y="532.8" width="34.7" height="34.7" fill="#B574F7" fill-opacity="0.07"/>
<rect opacity="0.3" x="722.531" y="532.8" width="34.7" height="34.7" fill="#B574F7" fill-opacity="0.07"/>
<rect opacity="0.3" x="760.231" y="532.8" width="34.7" height="34.7" fill="#B574F7" fill-opacity="0.07"/>
<rect opacity="0.3" x="797.931" y="532.8" width="34.7" height="34.7" fill="#B574F7" fill-opacity="0.07"/>
<rect opacity="0.3" x="835.631" y="532.8" width="34.7" height="34.7" fill="#B574F7" fill-opacity="0.07"/>
<rect opacity="0.3" x="873.331" y="532.8" width="34.7" height="34.7" fill="#B574F7" fill-opacity="0.07"/>
<rect opacity="0.3" x="911.031" y="532.8" width="34.7" height="34.7" fill="#B574F7" fill-opacity="0.07"/>
<rect opacity="0.3" x="948.731" y="532.8" width="34.7" height="34.7" fill="#B574F7" fill-opacity="0.07"/>
<rect opacity="0.3" x="986.431" y="532.8" width="34.7" height="34.7" fill="#B574F7" fill-opacity="0.07"/>
<rect opacity="0.3" x="1024.13" y="532.8" width="34.7" height="34.7" fill="#B574F7" fill-opacity="0.07"/>
<rect opacity="0.3" x="1061.83" y="532.8" width="34.7" height="34.7" fill="#B574F7" fill-opacity="0.07"/>
<rect opacity="0.3" x="1099.53" y="532.8" width="34.7" height="34.7" fill="#B574F7" fill-opacity="0.07"/>
<rect opacity="0.3" x="1137.23" y="532.8" width="34.7" height="34.7" fill="#B574F7" fill-opacity="0.07"/>
<rect opacity="0.3" x="1174.93" y="532.8" width="34.7" height="34.7" fill="#B574F7" fill-opacity="0.07"/>
<rect opacity="0.3" x="1212.63" y="532.8" width="34.7" height="34.7" fill="#B574F7" fill-opacity="0.07"/>
<rect opacity="0.3" x="1250.33" y="532.8" width="34.7" height="34.7" fill="#B574F7" fill-opacity="0.07"/>
<rect opacity="0.3" x="1288.03" y="532.8" width="34.7" height="34.7" fill="#B574F7" fill-opacity="0.07"/>
<rect opacity="0.3" x="1325.73" y="532.8" width="34.7" height="34.7" fill="#B574F7" fill-opacity="0.07"/>
<rect opacity="0.3" x="1363.43" y="532.8" width="34.7" height="34.7" fill="#B574F7" fill-opacity="0.07"/>
<rect opacity="0.3" x="1401.13" y="532.8" width="34.7" height="34.7" fill="#B574F7" fill-opacity="0.07"/>
<rect opacity="0.3" x="6.23096" y="570.5" width="34.7" height="34.7" fill="#B574F7" fill-opacity="0.07"/>
<rect opacity="0.3" x="43.9309" y="570.5" width="34.7" height="34.7" fill="#B574F7" fill-opacity="0.07"/>
<rect opacity="0.3" x="81.6309" y="570.5" width="34.7" height="34.7" fill="#B574F7" fill-opacity="0.07"/>
<rect opacity="0.3" x="119.331" y="570.5" width="34.7" height="34.7" fill="#B574F7" fill-opacity="0.07"/>
<rect opacity="0.3" x="157.031" y="570.5" width="34.7" height="34.7" fill="#B574F7" fill-opacity="0.07"/>
<rect opacity="0.3" x="194.731" y="570.5" width="34.7" height="34.7" fill="#B574F7" fill-opacity="0.07"/>
<rect opacity="0.3" x="232.431" y="570.5" width="34.7" height="34.7" fill="#B574F7" fill-opacity="0.07"/>
<rect opacity="0.9" x="270.131" y="570.5" width="34.7" height="34.7" fill="#B574F7" fill-opacity="0.07"/>
<rect opacity="0.3" x="307.831" y="570.5" width="34.7" height="34.7" fill="#B574F7" fill-opacity="0.07"/>
<rect opacity="0.3" x="345.531" y="570.5" width="34.7" height="34.7" fill="#B574F7" fill-opacity="0.07"/>
<rect opacity="0.3" x="383.231" y="570.5" width="34.7" height="34.7" fill="#B574F7" fill-opacity="0.07"/>
<rect opacity="0.3" x="420.931" y="570.5" width="34.7" height="34.7" fill="#B574F7" fill-opacity="0.07"/>
<rect opacity="0.3" x="458.631" y="570.5" width="34.7" height="34.7" fill="#B574F7" fill-opacity="0.07"/>
<rect opacity="0.3" x="496.331" y="570.5" width="34.7" height="34.7" fill="#B574F7" fill-opacity="0.07"/>
<rect opacity="0.3" x="534.031" y="570.5" width="34.7" height="34.7" fill="#B574F7" fill-opacity="0.07"/>
<rect opacity="0.3" x="571.731" y="570.5" width="34.7" height="34.7" fill="#B574F7" fill-opacity="0.07"/>
<rect opacity="0.3" x="609.431" y="570.5" width="34.7" height="34.7" fill="#B574F7" fill-opacity="0.07"/>
<rect opacity="0.3" x="647.131" y="570.5" width="34.7" height="34.7" fill="#B574F7" fill-opacity="0.07"/>
<rect opacity="0.3" x="684.831" y="570.5" width="34.7" height="34.7" fill="#B574F7" fill-opacity="0.07"/>
<rect opacity="0.3" x="722.531" y="570.5" width="34.7" height="34.7" fill="#B574F7" fill-opacity="0.07"/>
<rect opacity="0.3" x="760.231" y="570.5" width="34.7" height="34.7" fill="#B574F7" fill-opacity="0.07"/>
<rect opacity="0.3" x="797.931" y="570.5" width="34.7" height="34.7" fill="#B574F7" fill-opacity="0.07"/>
<rect opacity="0.3" x="835.631" y="570.5" width="34.7" height="34.7" fill="#B574F7" fill-opacity="0.07"/>
<rect opacity="0.3" x="873.331" y="570.5" width="34.7" height="34.7" fill="#B574F7" fill-opacity="0.07"/>
<rect opacity="0.3" x="911.031" y="570.5" width="34.7" height="34.7" fill="#B574F7" fill-opacity="0.07"/>
<rect opacity="0.3" x="948.731" y="570.5" width="34.7" height="34.7" fill="#B574F7" fill-opacity="0.07"/>
<rect opacity="0.3" x="986.431" y="570.5" width="34.7" height="34.7" fill="#B574F7" fill-opacity="0.07"/>
<rect opacity="0.3" x="1024.13" y="570.5" width="34.7" height="34.7" fill="#B574F7" fill-opacity="0.07"/>
<rect opacity="0.3" x="1061.83" y="570.5" width="34.7" height="34.7" fill="#B574F7" fill-opacity="0.07"/>
<rect opacity="0.3" x="1099.53" y="570.5" width="34.7" height="34.7" fill="#B574F7" fill-opacity="0.07"/>
<rect opacity="0.3" x="1137.23" y="570.5" width="34.7" height="34.7" fill="#B574F7" fill-opacity="0.07"/>
<rect opacity="0.3" x="1174.93" y="570.5" width="34.7" height="34.7" fill="#B574F7" fill-opacity="0.07"/>
<rect opacity="0.3" x="1212.63" y="570.5" width="34.7" height="34.7" fill="#B574F7" fill-opacity="0.07"/>
<rect opacity="0.3" x="1250.33" y="570.5" width="34.7" height="34.7" fill="#B574F7" fill-opacity="0.07"/>
<rect opacity="0.3" x="1288.03" y="570.5" width="34.7" height="34.7" fill="#B574F7" fill-opacity="0.07"/>
<rect opacity="0.6" x="1325.73" y="570.5" width="34.7" height="34.7" fill="#B574F7" fill-opacity="0.07"/>
<rect opacity="0.3" x="1363.43" y="570.5" width="34.7" height="34.7" fill="#B574F7" fill-opacity="0.07"/>
<rect opacity="0.3" x="1401.13" y="570.5" width="34.7" height="34.7" fill="#B574F7" fill-opacity="0.07"/>
</g>
</g>
<path d="M1441.03 386.663C1397.95 384.078 1375.11 475.851 1319.96 386.663C1273.43 324.62 1245.85 374.599 1188.55 386.663C1162.7 392.106 1139.43 381.493 1114.01 395.28C1091.63 406.352 1075.33 406.291 1042.06 399.158C1009.74 389.679 997.246 407.775 958.9 388.387C896.425 356.798 888.67 460.771 797.758 388.387C727.098 334.96 743.901 285.411 708.571 200.532C693.865 165.201 638.341 139.781 621.106 200.532C610.594 237.586 570.696 259.129 563.802 200.532C555.616 99.7121 536.658 113.931 527.179 115.654C517.33 119.695 511.014 131.111 497.881 172.958C490.29 193.055 468.582 200.532 447.901 165.201C434.825 142.477 409.554 120.393 389.304 180.902C382.994 199.658 365.607 225.092 342.771 193.371C325.444 166.631 266.078 170.373 213.514 193.371C185.006 205.892 157.933 211.735 133.805 193.371C69.6067 133.319 65.729 193.371 1.53099 117.003" stroke="url(#paint0_linear_637_744)" stroke-width="4"/>
<rect x="1105.03" y="405" width="32" height="32" rx="16" fill="#140F22"/>
<rect x="1105.53" y="405.5" width="31" height="31" rx="15.5" stroke="#B574F7" stroke-opacity="0.07"/>
<path d="M1125.7 427V425.667C1125.7 424.959 1125.42 424.281 1124.92 423.781C1124.42 423.281 1123.74 423 1123.03 423H1119.03C1118.32 423 1117.65 423.281 1117.15 423.781C1116.65 424.281 1116.36 424.959 1116.36 425.667V427" stroke="white" stroke-width="1.4" stroke-linecap="round" stroke-linejoin="round"/>
<path d="M1121.03 420.333C1122.5 420.333 1123.7 419.139 1123.7 417.667C1123.7 416.194 1122.5 415 1121.03 415C1119.56 415 1118.36 416.194 1118.36 417.667C1118.36 419.139 1119.56 420.333 1121.03 420.333Z" stroke="white" stroke-width="1.4" stroke-linecap="round" stroke-linejoin="round"/>
<rect x="976.031" y="354" width="32" height="32" rx="16" fill="#140F22"/>
<rect x="976.531" y="354.5" width="31" height="31" rx="15.5" stroke="#B574F7" stroke-opacity="0.07"/>
<path d="M996.698 376V374.667C996.698 373.959 996.417 373.281 995.917 372.781C995.416 372.281 994.738 372 994.031 372H990.031C989.324 372 988.645 372.281 988.145 372.781C987.645 373.281 987.364 373.959 987.364 374.667V376" stroke="white" stroke-width="1.4" stroke-linecap="round" stroke-linejoin="round"/>
<path d="M992.031 369.333C993.504 369.333 994.698 368.139 994.698 366.667C994.698 365.194 993.504 364 992.031 364C990.558 364 989.364 365.194 989.364 366.667C989.364 368.139 990.558 369.333 992.031 369.333Z" stroke="white" stroke-width="1.4" stroke-linecap="round" stroke-linejoin="round"/>
<circle cx="13.7875" cy="13.7875" r="13.7875" transform="matrix(-1 0 0 1 808.53 369.861)" fill="#EE4045"/>
<circle cx="7" cy="7" r="6.5" transform="matrix(-1 0 0 1 801.565 376.876)" fill="black" stroke="#FBB3B5"/>
<circle cx="13.7875" cy="13.7875" r="13.7875" transform="matrix(-1 0 0 1 680.996 150.984)" fill="#8C6CF3"/>
<circle cx="7" cy="7" r="6.5" transform="matrix(-1 0 0 1 674.031 158)" fill="black" stroke="#CAB9FF"/>
<rect x="581.031" y="162" width="32" height="32" rx="16" fill="#140F22"/>
<rect x="581.531" y="162.5" width="31" height="31" rx="15.5" stroke="#B574F7" stroke-opacity="0.07"/>
<path d="M601.698 184V182.667C601.698 181.959 601.417 181.281 600.917 180.781C600.416 180.281 599.738 180 599.031 180H595.031C594.324 180 593.645 180.281 593.145 180.781C592.645 181.281 592.364 181.959 592.364 182.667V184" stroke="white" stroke-width="1.4" stroke-linecap="round" stroke-linejoin="round"/>
<path d="M597.031 177.333C598.504 177.333 599.698 176.139 599.698 174.667C599.698 173.194 598.504 172 597.031 172C595.558 172 594.364 173.194 594.364 174.667C594.364 176.139 595.558 177.333 597.031 177.333Z" stroke="white" stroke-width="1.4" stroke-linecap="round" stroke-linejoin="round"/>
<rect x="460.031" y="114" width="32" height="32" rx="16" fill="#140F22"/>
<rect x="460.531" y="114.5" width="31" height="31" rx="15.5" stroke="#B574F7" stroke-opacity="0.07"/>
<path d="M480.698 136V134.667C480.698 133.959 480.417 133.281 479.917 132.781C479.416 132.281 478.738 132 478.031 132H474.031C473.324 132 472.645 132.281 472.145 132.781C471.645 133.281 471.364 133.959 471.364 134.667V136" stroke="white" stroke-width="1.4" stroke-linecap="round" stroke-linejoin="round"/>
<path d="M476.031 129.333C477.504 129.333 478.698 128.139 478.698 126.667C478.698 125.194 477.504 124 476.031 124C474.558 124 473.364 125.194 473.364 126.667C473.364 128.139 474.558 129.333 476.031 129.333Z" stroke="white" stroke-width="1.4" stroke-linecap="round" stroke-linejoin="round"/>
<rect x="323.031" y="211" width="32" height="32" rx="16" fill="#140F22"/>
<rect x="323.531" y="211.5" width="31" height="31" rx="15.5" stroke="#B574F7" stroke-opacity="0.07"/>
<path d="M343.698 233V231.667C343.698 230.959 343.417 230.281 342.917 229.781C342.416 229.281 341.738 229 341.031 229H337.031C336.324 229 335.645 229.281 335.145 229.781C334.645 230.281 334.364 230.959 334.364 231.667V233" stroke="white" stroke-width="1.4" stroke-linecap="round" stroke-linejoin="round"/>
<path d="M339.031 226.333C340.504 226.333 341.698 225.139 341.698 223.667C341.698 222.194 340.504 221 339.031 221C337.558 221 336.364 222.194 336.364 223.667C336.364 225.139 337.558 226.333 339.031 226.333Z" stroke="white" stroke-width="1.4" stroke-linecap="round" stroke-linejoin="round"/>
<rect x="221.031" y="130" width="32" height="32" rx="16" fill="#140F22"/>
<rect x="221.531" y="130.5" width="31" height="31" rx="15.5" stroke="#B574F7" stroke-opacity="0.07"/>
<path d="M241.698 152V150.667C241.698 149.959 241.417 149.281 240.917 148.781C240.416 148.281 239.738 148 239.031 148H235.031C234.324 148 233.645 148.281 233.145 148.781C232.645 149.281 232.364 149.959 232.364 150.667V152" stroke="white" stroke-width="1.4" stroke-linecap="round" stroke-linejoin="round"/>
<path d="M237.031 145.333C238.504 145.333 239.698 144.139 239.698 142.667C239.698 141.194 238.504 140 237.031 140C235.558 140 234.364 141.194 234.364 142.667C234.364 144.139 235.558 145.333 237.031 145.333Z" stroke="white" stroke-width="1.4" stroke-linecap="round" stroke-linejoin="round"/>
<rect x="1245.03" width="196" height="539" fill="url(#paint1_linear_637_744)"/>
<rect width="196" height="539" transform="matrix(-1 0 0 1 197.031 0)" fill="url(#paint2_linear_637_744)"/>
<path d="M707.99 134V131.773L714.88 124.634C715.616 123.858 716.223 123.179 716.7 122.595C717.184 122.005 717.545 121.445 717.784 120.915C718.022 120.384 718.142 119.821 718.142 119.224C718.142 118.548 717.983 117.965 717.665 117.474C717.346 116.977 716.912 116.596 716.362 116.331C715.812 116.059 715.192 115.923 714.503 115.923C713.773 115.923 713.137 116.072 712.594 116.371C712.05 116.669 711.632 117.09 711.341 117.634C711.049 118.177 710.903 118.813 710.903 119.543H707.97C707.97 118.303 708.255 117.219 708.825 116.291C709.395 115.363 710.177 114.644 711.172 114.134C712.166 113.616 713.296 113.358 714.562 113.358C715.842 113.358 716.969 113.613 717.943 114.124C718.924 114.627 719.69 115.317 720.24 116.192C720.79 117.06 721.065 118.041 721.065 119.135C721.065 119.891 720.923 120.63 720.638 121.352C720.359 122.075 719.872 122.88 719.176 123.768C718.48 124.65 717.512 125.721 716.272 126.98L712.226 131.216V131.365H721.393V134H707.99ZM732.251 134.338C730.68 134.331 729.338 133.917 728.224 133.095C727.111 132.273 726.259 131.077 725.669 129.506C725.079 127.935 724.784 126.042 724.784 123.828C724.784 121.621 725.079 119.735 725.669 118.17C726.265 116.606 727.12 115.413 728.234 114.591C729.354 113.769 730.693 113.358 732.251 113.358C733.809 113.358 735.145 113.772 736.258 114.601C737.372 115.423 738.224 116.616 738.814 118.18C739.41 119.738 739.709 121.621 739.709 123.828C739.709 126.049 739.414 127.945 738.824 129.516C738.234 131.08 737.382 132.277 736.268 133.105C735.155 133.927 733.816 134.338 732.251 134.338ZM732.251 131.683C733.63 131.683 734.707 131.01 735.483 129.665C736.265 128.319 736.656 126.374 736.656 123.828C736.656 122.138 736.477 120.709 736.119 119.543C735.768 118.369 735.261 117.481 734.598 116.878C733.942 116.268 733.159 115.963 732.251 115.963C730.879 115.963 729.802 116.639 729.02 117.991C728.237 119.344 727.843 121.289 727.836 123.828C727.836 125.525 728.012 126.96 728.363 128.134C728.721 129.3 729.228 130.185 729.885 130.788C730.541 131.385 731.33 131.683 732.251 131.683ZM758.839 113.636H761.902V128.074C761.902 129.38 761.643 130.497 761.126 131.425C760.616 132.353 759.897 133.062 758.969 133.553C758.04 134.036 756.953 134.278 755.707 134.278C754.56 134.278 753.53 134.07 752.615 133.652C751.707 133.234 750.987 132.628 750.457 131.832C749.933 131.03 749.672 130.056 749.672 128.909H752.724C752.724 129.473 752.853 129.96 753.112 130.371C753.377 130.782 753.738 131.103 754.196 131.335C754.66 131.561 755.19 131.673 755.787 131.673C756.436 131.673 756.986 131.537 757.437 131.266C757.895 130.987 758.243 130.58 758.481 130.043C758.72 129.506 758.839 128.849 758.839 128.074V113.636ZM775.81 127.666V118.727H778.793V134H775.869V131.355H775.71C775.359 132.17 774.796 132.85 774.02 133.393C773.251 133.93 772.293 134.199 771.146 134.199C770.165 134.199 769.297 133.983 768.541 133.553C767.792 133.115 767.202 132.469 766.771 131.614C766.347 130.759 766.135 129.701 766.135 128.442V118.727H769.108V128.084C769.108 129.125 769.396 129.953 769.973 130.57C770.55 131.186 771.299 131.494 772.22 131.494C772.777 131.494 773.331 131.355 773.881 131.077C774.438 130.798 774.898 130.377 775.263 129.814C775.634 129.25 775.816 128.535 775.81 127.666ZM785.76 124.932V134H782.787V118.727H785.641V121.213H785.83C786.181 120.404 786.732 119.755 787.481 119.264C788.236 118.774 789.187 118.528 790.334 118.528C791.375 118.528 792.286 118.747 793.069 119.185C793.851 119.616 794.457 120.259 794.888 121.114C795.319 121.969 795.535 123.026 795.535 124.286V134H792.562V124.643C792.562 123.536 792.273 122.671 791.696 122.048C791.12 121.419 790.328 121.104 789.32 121.104C788.631 121.104 788.018 121.253 787.481 121.551C786.95 121.849 786.529 122.287 786.218 122.864C785.913 123.434 785.76 124.123 785.76 124.932ZM806.104 134.308C804.599 134.308 803.303 133.987 802.216 133.344C801.136 132.694 800.301 131.783 799.711 130.609C799.127 129.429 798.836 128.047 798.836 126.463C798.836 124.899 799.127 123.52 799.711 122.327C800.301 121.134 801.123 120.202 802.177 119.533C803.237 118.863 804.477 118.528 805.895 118.528C806.757 118.528 807.592 118.671 808.401 118.956C809.21 119.241 809.936 119.688 810.579 120.298C811.222 120.908 811.729 121.7 812.1 122.675C812.471 123.643 812.657 124.819 812.657 126.205V127.259H800.516V125.031H809.743C809.743 124.249 809.584 123.556 809.266 122.953C808.948 122.343 808.5 121.863 807.924 121.511C807.354 121.16 806.684 120.984 805.915 120.984C805.08 120.984 804.351 121.19 803.728 121.601C803.111 122.005 802.634 122.536 802.296 123.192C801.964 123.841 801.799 124.547 801.799 125.31V127.05C801.799 128.071 801.978 128.939 802.336 129.655C802.7 130.371 803.207 130.918 803.857 131.295C804.507 131.667 805.266 131.852 806.134 131.852C806.697 131.852 807.211 131.773 807.675 131.614C808.139 131.448 808.54 131.203 808.878 130.878C809.216 130.553 809.475 130.152 809.654 129.675L812.468 130.182C812.242 131.01 811.838 131.736 811.255 132.359C810.678 132.976 809.952 133.456 809.077 133.801C808.209 134.139 807.218 134.308 806.104 134.308Z" fill="#8C6CF3"/>
<path d="M710.995 150.091V161H709.674V151.476H709.611L706.947 153.244V151.902L709.674 150.091H710.995ZM714.133 161V160.041L717.734 156.099C718.156 155.638 718.504 155.237 718.778 154.896C719.051 154.551 719.254 154.228 719.385 153.926C719.52 153.621 719.587 153.301 719.587 152.967C719.587 152.584 719.495 152.252 719.31 151.971C719.129 151.691 718.881 151.474 718.565 151.321C718.249 151.169 717.894 151.092 717.499 151.092C717.08 151.092 716.715 151.179 716.402 151.353C716.093 151.524 715.853 151.763 715.683 152.072C715.516 152.381 715.433 152.744 715.433 153.159H714.176C714.176 152.52 714.323 151.959 714.618 151.476C714.912 150.993 715.314 150.616 715.821 150.347C716.333 150.077 716.906 149.942 717.542 149.942C718.181 149.942 718.748 150.077 719.241 150.347C719.735 150.616 720.122 150.98 720.402 151.439C720.683 151.897 720.823 152.406 720.823 152.967C720.823 153.369 720.75 153.761 720.605 154.145C720.463 154.525 720.214 154.949 719.859 155.418C719.508 155.883 719.019 156.451 718.394 157.122L715.944 159.743V159.828H721.015V161H714.133ZM726.773 161.149C725.971 161.149 725.287 160.931 724.722 160.494C724.158 160.054 723.726 159.416 723.428 158.582C723.13 157.744 722.981 156.732 722.981 155.545C722.981 154.366 723.13 153.36 723.428 152.525C723.73 151.687 724.163 151.048 724.728 150.608C725.296 150.164 725.978 149.942 726.773 149.942C727.569 149.942 728.249 150.164 728.813 150.608C729.382 151.048 729.815 151.687 730.113 152.525C730.415 153.36 730.566 154.366 730.566 155.545C730.566 156.732 730.417 157.744 730.118 158.582C729.82 159.416 729.389 160.054 728.824 160.494C728.259 160.931 727.576 161.149 726.773 161.149ZM726.773 159.977C727.569 159.977 728.187 159.594 728.627 158.827C729.067 158.06 729.287 156.966 729.287 155.545C729.287 154.601 729.186 153.797 728.984 153.132C728.785 152.468 728.497 151.962 728.121 151.614C727.748 151.266 727.299 151.092 726.773 151.092C725.985 151.092 725.369 151.481 724.925 152.259C724.481 153.033 724.259 154.129 724.259 155.545C724.259 156.49 724.358 157.293 724.557 157.953C724.756 158.614 725.042 159.116 725.415 159.461C725.791 159.805 726.244 159.977 726.773 159.977ZM736.148 161.149C735.346 161.149 734.662 160.931 734.097 160.494C733.533 160.054 733.101 159.416 732.803 158.582C732.505 157.744 732.356 156.732 732.356 155.545C732.356 154.366 732.505 153.36 732.803 152.525C733.105 151.687 733.538 151.048 734.103 150.608C734.671 150.164 735.353 149.942 736.148 149.942C736.944 149.942 737.624 150.164 738.188 150.608C738.757 151.048 739.19 151.687 739.488 152.525C739.79 153.36 739.941 154.366 739.941 155.545C739.941 156.732 739.792 157.744 739.493 158.582C739.195 159.416 738.764 160.054 738.199 160.494C737.634 160.931 736.951 161.149 736.148 161.149ZM736.148 159.977C736.944 159.977 737.562 159.594 738.002 158.827C738.442 158.06 738.662 156.966 738.662 155.545C738.662 154.601 738.561 153.797 738.359 153.132C738.16 152.468 737.872 151.962 737.496 151.614C737.123 151.266 736.674 151.092 736.148 151.092C735.36 151.092 734.744 151.481 734.3 152.259C733.856 153.033 733.634 154.129 733.634 155.545C733.634 156.49 733.733 157.293 733.932 157.953C734.131 158.614 734.417 159.116 734.79 159.461C735.166 159.805 735.619 159.977 736.148 159.977ZM751.361 157.655V152.818H752.618V161H751.361V159.615H751.276C751.084 160.031 750.786 160.384 750.381 160.675C749.976 160.963 749.465 161.107 748.847 161.107C748.336 161.107 747.881 160.995 747.483 160.771C747.086 160.544 746.773 160.203 746.546 159.748C746.319 159.29 746.205 158.713 746.205 158.017V152.818H747.462V157.932C747.462 158.528 747.629 159.004 747.963 159.359C748.3 159.714 748.73 159.892 749.252 159.892C749.564 159.892 749.882 159.812 750.205 159.652C750.532 159.493 750.806 159.248 751.026 158.917C751.249 158.587 751.361 158.166 751.361 157.655ZM760.716 154.651L759.587 154.97C759.516 154.782 759.411 154.599 759.273 154.422C759.138 154.24 758.953 154.091 758.719 153.974C758.484 153.857 758.184 153.798 757.819 153.798C757.318 153.798 756.901 153.914 756.567 154.145C756.237 154.372 756.071 154.661 756.071 155.013C756.071 155.325 756.185 155.572 756.412 155.753C756.64 155.934 756.995 156.085 757.478 156.206L758.692 156.504C759.424 156.682 759.969 156.953 760.327 157.319C760.686 157.681 760.865 158.148 760.865 158.72C760.865 159.189 760.73 159.608 760.461 159.977C760.194 160.347 759.821 160.638 759.342 160.851C758.863 161.064 758.305 161.17 757.669 161.17C756.835 161.17 756.144 160.989 755.597 160.627C755.05 160.265 754.704 159.736 754.559 159.04L755.752 158.741C755.865 159.182 756.08 159.512 756.396 159.732C756.716 159.952 757.133 160.062 757.648 160.062C758.234 160.062 758.699 159.938 759.044 159.69C759.392 159.437 759.566 159.136 759.566 158.784C759.566 158.5 759.466 158.262 759.267 158.07C759.069 157.875 758.763 157.729 758.351 157.634L756.988 157.314C756.238 157.136 755.688 156.861 755.336 156.488C754.988 156.112 754.814 155.641 754.814 155.077C754.814 154.615 754.944 154.207 755.203 153.852C755.466 153.496 755.823 153.218 756.274 153.015C756.728 152.813 757.243 152.712 757.819 152.712C758.628 152.712 759.264 152.889 759.726 153.244C760.191 153.599 760.521 154.068 760.716 154.651ZM766.188 161.17C765.4 161.17 764.72 160.996 764.148 160.648C763.58 160.297 763.141 159.807 762.832 159.178C762.527 158.546 762.374 157.811 762.374 156.973C762.374 156.135 762.527 155.396 762.832 154.757C763.141 154.114 763.571 153.614 764.121 153.255C764.675 152.893 765.322 152.712 766.06 152.712C766.486 152.712 766.907 152.783 767.323 152.925C767.738 153.067 768.116 153.298 768.457 153.617C768.798 153.933 769.07 154.352 769.272 154.874C769.475 155.396 769.576 156.039 769.576 156.803V157.335H763.269V156.249H768.298C768.298 155.787 768.205 155.375 768.021 155.013C767.839 154.651 767.58 154.365 767.243 154.155C766.909 153.946 766.515 153.841 766.06 153.841C765.56 153.841 765.126 153.965 764.761 154.214C764.398 154.459 764.12 154.778 763.924 155.173C763.729 155.567 763.631 155.989 763.631 156.44V157.165C763.631 157.783 763.738 158.306 763.951 158.736C764.168 159.162 764.468 159.487 764.851 159.711C765.235 159.931 765.68 160.041 766.188 160.041C766.518 160.041 766.817 159.995 767.083 159.903C767.353 159.807 767.586 159.665 767.781 159.477C767.976 159.285 768.127 159.047 768.234 158.763L769.448 159.104C769.32 159.516 769.105 159.878 768.804 160.19C768.502 160.499 768.129 160.741 767.685 160.915C767.241 161.085 766.742 161.17 766.188 161.17ZM771.488 161V152.818H772.703V154.054H772.788C772.937 153.649 773.207 153.321 773.598 153.069C773.988 152.816 774.429 152.69 774.919 152.69C775.011 152.69 775.126 152.692 775.265 152.696C775.403 152.699 775.508 152.705 775.579 152.712V153.99C775.537 153.979 775.439 153.963 775.286 153.942C775.137 153.917 774.979 153.905 774.812 153.905C774.414 153.905 774.059 153.988 773.747 154.155C773.438 154.319 773.193 154.546 773.012 154.837C772.834 155.125 772.745 155.453 772.745 155.822V161H771.488ZM782.865 154.651L781.735 154.97C781.664 154.782 781.56 154.599 781.421 154.422C781.286 154.24 781.102 154.091 780.867 153.974C780.633 153.857 780.333 153.798 779.967 153.798C779.466 153.798 779.049 153.914 778.715 154.145C778.385 154.372 778.22 154.661 778.22 155.013C778.22 155.325 778.333 155.572 778.561 155.753C778.788 155.934 779.143 156.085 779.626 156.206L780.841 156.504C781.572 156.682 782.117 156.953 782.476 157.319C782.835 157.681 783.014 158.148 783.014 158.72C783.014 159.189 782.879 159.608 782.609 159.977C782.343 160.347 781.97 160.638 781.49 160.851C781.011 161.064 780.454 161.17 779.818 161.17C778.983 161.17 778.293 160.989 777.746 160.627C777.199 160.265 776.853 159.736 776.707 159.04L777.9 158.741C778.014 159.182 778.229 159.512 778.545 159.732C778.864 159.952 779.282 160.062 779.797 160.062C780.382 160.062 780.848 159.938 781.192 159.69C781.54 159.437 781.714 159.136 781.714 158.784C781.714 158.5 781.615 158.262 781.416 158.07C781.217 157.875 780.912 157.729 780.5 157.634L779.136 157.314C778.387 157.136 777.836 156.861 777.485 156.488C777.137 156.112 776.963 155.641 776.963 155.077C776.963 154.615 777.092 154.207 777.352 153.852C777.614 153.496 777.971 153.218 778.422 153.015C778.877 152.813 779.392 152.712 779.967 152.712C780.777 152.712 781.412 152.889 781.874 153.244C782.339 153.599 782.669 154.068 782.865 154.651Z" fill="white"/>
<path d="M831.99 334V331.773L838.88 324.634C839.616 323.858 840.223 323.179 840.7 322.595C841.184 322.005 841.545 321.445 841.784 320.915C842.022 320.384 842.142 319.821 842.142 319.224C842.142 318.548 841.983 317.965 841.665 317.474C841.346 316.977 840.912 316.596 840.362 316.331C839.812 316.059 839.192 315.923 838.503 315.923C837.773 315.923 837.137 316.072 836.594 316.371C836.05 316.669 835.632 317.09 835.341 317.634C835.049 318.177 834.903 318.813 834.903 319.543H831.97C831.97 318.303 832.255 317.219 832.825 316.291C833.395 315.363 834.177 314.644 835.172 314.134C836.166 313.616 837.296 313.358 838.562 313.358C839.842 313.358 840.969 313.613 841.943 314.124C842.924 314.627 843.69 315.317 844.24 316.192C844.79 317.06 845.065 318.041 845.065 319.135C845.065 319.891 844.923 320.63 844.638 321.352C844.359 322.075 843.872 322.88 843.176 323.768C842.48 324.65 841.512 325.721 840.272 326.98L836.226 331.216V331.365H845.393V334H831.99ZM849.848 334L858.737 316.42V316.271H848.456V313.636H861.919V316.361L853.059 334H849.848ZM880.98 313.636H884.042V328.074C884.042 329.38 883.784 330.497 883.267 331.425C882.756 332.353 882.037 333.062 881.109 333.553C880.181 334.036 879.094 334.278 877.848 334.278C876.701 334.278 875.67 334.07 874.755 333.652C873.847 333.234 873.128 332.628 872.598 331.832C872.074 331.03 871.812 330.056 871.812 328.909H874.865C874.865 329.473 874.994 329.96 875.253 330.371C875.518 330.782 875.879 331.103 876.336 331.335C876.8 331.561 877.331 331.673 877.927 331.673C878.577 331.673 879.127 331.537 879.578 331.266C880.035 330.987 880.383 330.58 880.622 330.043C880.861 329.506 880.98 328.849 880.98 328.074V313.636ZM897.95 327.666V318.727H900.933V334H898.01V331.355H897.851C897.5 332.17 896.936 332.85 896.161 333.393C895.392 333.93 894.434 334.199 893.287 334.199C892.306 334.199 891.438 333.983 890.682 333.553C889.933 333.115 889.343 332.469 888.912 331.614C888.488 330.759 888.276 329.701 888.276 328.442V318.727H891.249V328.084C891.249 329.125 891.537 329.953 892.114 330.57C892.69 331.186 893.44 331.494 894.361 331.494C894.918 331.494 895.471 331.355 896.021 331.077C896.578 330.798 897.039 330.377 897.404 329.814C897.775 329.25 897.957 328.535 897.95 327.666ZM907.901 324.932V334H904.928V318.727H907.782V321.213H907.971C908.322 320.404 908.872 319.755 909.621 319.264C910.377 318.774 911.328 318.528 912.475 318.528C913.516 318.528 914.427 318.747 915.209 319.185C915.991 319.616 916.598 320.259 917.029 321.114C917.46 321.969 917.675 323.026 917.675 324.286V334H914.702V324.643C914.702 323.536 914.414 322.671 913.837 322.048C913.26 321.419 912.468 321.104 911.461 321.104C910.771 321.104 910.158 321.253 909.621 321.551C909.091 321.849 908.67 322.287 908.358 322.864C908.053 323.434 907.901 324.123 907.901 324.932ZM928.245 334.308C926.74 334.308 925.444 333.987 924.357 333.344C923.277 332.694 922.441 331.783 921.851 330.609C921.268 329.429 920.976 328.047 920.976 326.463C920.976 324.899 921.268 323.52 921.851 322.327C922.441 321.134 923.263 320.202 924.317 319.533C925.378 318.863 926.617 318.528 928.036 318.528C928.898 318.528 929.733 318.671 930.542 318.956C931.35 319.241 932.076 319.688 932.719 320.298C933.362 320.908 933.869 321.7 934.241 322.675C934.612 323.643 934.797 324.819 934.797 326.205V327.259H922.657V325.031H931.884C931.884 324.249 931.725 323.556 931.407 322.953C931.089 322.343 930.641 321.863 930.064 321.511C929.494 321.16 928.825 320.984 928.056 320.984C927.221 320.984 926.491 321.19 925.868 321.601C925.252 322.005 924.775 322.536 924.437 323.192C924.105 323.841 923.939 324.547 923.939 325.31V327.05C923.939 328.071 924.118 328.939 924.476 329.655C924.841 330.371 925.348 330.918 925.998 331.295C926.647 331.667 927.406 331.852 928.275 331.852C928.838 331.852 929.352 331.773 929.816 331.614C930.28 331.448 930.681 331.203 931.019 330.878C931.357 330.553 931.616 330.152 931.795 329.675L934.608 330.182C934.383 331.01 933.979 331.736 933.395 332.359C932.819 332.976 932.093 333.456 931.218 333.801C930.349 334.139 929.358 334.308 928.245 334.308Z" fill="#EE4045"/>
<path d="M834.995 350.091V361H833.674V351.476H833.611L830.947 353.244V351.902L833.674 350.091H834.995ZM841.968 350.091V361H840.647V351.476H840.583L837.92 353.244V351.902L840.647 350.091H841.968ZM845.106 361V360.041L848.706 356.099C849.129 355.638 849.477 355.237 849.75 354.896C850.024 354.551 850.226 354.228 850.358 353.926C850.493 353.621 850.56 353.301 850.56 352.967C850.56 352.584 850.468 352.252 850.283 351.971C850.102 351.691 849.853 351.474 849.537 351.321C849.221 351.169 848.866 351.092 848.472 351.092C848.053 351.092 847.687 351.179 847.375 351.353C847.066 351.524 846.826 351.763 846.656 352.072C846.489 352.381 846.405 352.744 846.405 353.159H845.148C845.148 352.52 845.296 351.959 845.59 351.476C845.885 350.993 846.286 350.616 846.794 350.347C847.306 350.077 847.879 349.942 848.515 349.942C849.154 349.942 849.72 350.077 850.214 350.347C850.707 350.616 851.095 350.98 851.375 351.439C851.656 351.897 851.796 352.406 851.796 352.967C851.796 353.369 851.723 353.761 851.578 354.145C851.435 354.525 851.187 354.949 850.832 355.418C850.48 355.883 849.992 356.451 849.367 357.122L846.917 359.743V359.828H851.988V361H845.106ZM854.188 361V360.041L857.788 356.099C858.211 355.638 858.559 355.237 858.832 354.896C859.106 354.551 859.308 354.228 859.44 353.926C859.575 353.621 859.642 353.301 859.642 352.967C859.642 352.584 859.55 352.252 859.365 351.971C859.184 351.691 858.935 351.474 858.619 351.321C858.303 351.169 857.948 351.092 857.554 351.092C857.135 351.092 856.769 351.179 856.457 351.353C856.148 351.524 855.908 351.763 855.738 352.072C855.571 352.381 855.487 352.744 855.487 353.159H854.23C854.23 352.52 854.378 351.959 854.672 351.476C854.967 350.993 855.368 350.616 855.876 350.347C856.388 350.077 856.961 349.942 857.597 349.942C858.236 349.942 858.802 350.077 859.296 350.347C859.79 350.616 860.177 350.98 860.457 351.439C860.738 351.897 860.878 352.406 860.878 352.967C860.878 353.369 860.805 353.761 860.66 354.145C860.518 354.525 860.269 354.949 859.914 355.418C859.562 355.883 859.074 356.451 858.449 357.122L855.999 359.743V359.828H861.07V361H854.188ZM872.666 357.655V352.818H873.923V361H872.666V359.615H872.581C872.389 360.031 872.091 360.384 871.686 360.675C871.281 360.963 870.77 361.107 870.152 361.107C869.64 361.107 869.186 360.995 868.788 360.771C868.39 360.544 868.078 360.203 867.851 359.748C867.623 359.29 867.51 358.713 867.51 358.017V352.818H868.767V357.932C868.767 358.528 868.934 359.004 869.268 359.359C869.605 359.714 870.035 359.892 870.557 359.892C870.869 359.892 871.187 359.812 871.51 359.652C871.837 359.493 872.11 359.248 872.33 358.917C872.554 358.587 872.666 358.166 872.666 357.655ZM882.021 354.651L880.892 354.97C880.821 354.782 880.716 354.599 880.577 354.422C880.442 354.24 880.258 354.091 880.023 353.974C879.789 353.857 879.489 353.798 879.123 353.798C878.623 353.798 878.205 353.914 877.871 354.145C877.541 354.372 877.376 354.661 877.376 355.013C877.376 355.325 877.49 355.572 877.717 355.753C877.944 355.934 878.299 356.085 878.782 356.206L879.997 356.504C880.728 356.682 881.273 356.953 881.632 357.319C881.991 357.681 882.17 358.148 882.17 358.72C882.17 359.189 882.035 359.608 881.765 359.977C881.499 360.347 881.126 360.638 880.647 360.851C880.167 361.064 879.61 361.17 878.974 361.17C878.14 361.17 877.449 360.989 876.902 360.627C876.355 360.265 876.009 359.736 875.863 359.04L877.056 358.741C877.17 359.182 877.385 359.512 877.701 359.732C878.021 359.952 878.438 360.062 878.953 360.062C879.539 360.062 880.004 359.938 880.348 359.69C880.696 359.437 880.87 359.136 880.87 358.784C880.87 358.5 880.771 358.262 880.572 358.07C880.373 357.875 880.068 357.729 879.656 357.634L878.292 357.314C877.543 357.136 876.993 356.861 876.641 356.488C876.293 356.112 876.119 355.641 876.119 355.077C876.119 354.615 876.249 354.207 876.508 353.852C876.771 353.496 877.128 353.218 877.579 353.015C878.033 352.813 878.548 352.712 879.123 352.712C879.933 352.712 880.569 352.889 881.03 353.244C881.495 353.599 881.826 354.068 882.021 354.651ZM887.493 361.17C886.704 361.17 886.024 360.996 885.453 360.648C884.885 360.297 884.446 359.807 884.137 359.178C883.832 358.546 883.679 357.811 883.679 356.973C883.679 356.135 883.832 355.396 884.137 354.757C884.446 354.114 884.876 353.614 885.426 353.255C885.98 352.893 886.626 352.712 887.365 352.712C887.791 352.712 888.212 352.783 888.627 352.925C889.043 353.067 889.421 353.298 889.762 353.617C890.103 353.933 890.375 354.352 890.577 354.874C890.779 355.396 890.881 356.039 890.881 356.803V357.335H884.574V356.249H889.602C889.602 355.787 889.51 355.375 889.325 355.013C889.144 354.651 888.885 354.365 888.548 354.155C888.214 353.946 887.82 353.841 887.365 353.841C886.864 353.841 886.431 353.965 886.065 354.214C885.703 354.459 885.424 354.778 885.229 355.173C885.034 355.567 884.936 355.989 884.936 356.44V357.165C884.936 357.783 885.043 358.306 885.256 358.736C885.472 359.162 885.772 359.487 886.156 359.711C886.539 359.931 886.985 360.041 887.493 360.041C887.823 360.041 888.121 359.995 888.388 359.903C888.658 359.807 888.89 359.665 889.086 359.477C889.281 359.285 889.432 359.047 889.538 358.763L890.753 359.104C890.625 359.516 890.41 359.878 890.108 360.19C889.806 360.499 889.434 360.741 888.99 360.915C888.546 361.085 888.047 361.17 887.493 361.17ZM892.793 361V352.818H894.007V354.054H894.093C894.242 353.649 894.512 353.321 894.902 353.069C895.293 352.816 895.733 352.69 896.223 352.69C896.316 352.69 896.431 352.692 896.57 352.696C896.708 352.699 896.813 352.705 896.884 352.712V353.99C896.841 353.979 896.744 353.963 896.591 353.942C896.442 353.917 896.284 353.905 896.117 353.905C895.719 353.905 895.364 353.988 895.051 354.155C894.742 354.319 894.497 354.546 894.316 354.837C894.139 355.125 894.05 355.453 894.05 355.822V361H892.793ZM904.169 354.651L903.04 354.97C902.969 354.782 902.864 354.599 902.726 354.422C902.591 354.24 902.406 354.091 902.172 353.974C901.938 353.857 901.637 353.798 901.272 353.798C900.771 353.798 900.354 353.914 900.02 354.145C899.69 354.372 899.525 354.661 899.525 355.013C899.525 355.325 899.638 355.572 899.865 355.753C900.093 355.934 900.448 356.085 900.931 356.206L902.145 356.504C902.877 356.682 903.422 356.953 903.781 357.319C904.139 357.681 904.319 358.148 904.319 358.72C904.319 359.189 904.184 359.608 903.914 359.977C903.647 360.347 903.275 360.638 902.795 360.851C902.316 361.064 901.758 361.17 901.123 361.17C900.288 361.17 899.597 360.989 899.05 360.627C898.504 360.265 898.157 359.736 898.012 359.04L899.205 358.741C899.319 359.182 899.533 359.512 899.849 359.732C900.169 359.952 900.586 360.062 901.101 360.062C901.687 360.062 902.152 359.938 902.497 359.69C902.845 359.437 903.019 359.136 903.019 358.784C903.019 358.5 902.919 358.262 902.721 358.07C902.522 357.875 902.216 357.729 901.804 357.634L900.441 357.314C899.691 357.136 899.141 356.861 898.789 356.488C898.441 356.112 898.267 355.641 898.267 355.077C898.267 354.615 898.397 354.207 898.656 353.852C898.919 353.496 899.276 353.218 899.727 353.015C900.181 352.813 900.696 352.712 901.272 352.712C902.081 352.712 902.717 352.889 903.179 353.244C903.644 353.599 903.974 354.068 904.169 354.651Z" fill="white"/>
<defs>
<linearGradient id="paint0_linear_637_744" x1="721.281" y1="114.011" x2="721.281" y2="425.734" gradientUnits="userSpaceOnUse">
<stop offset="0.333491" stop-color="#8C6CF3"/>
<stop offset="1" stop-color="#EE4045"/>
</linearGradient>
<linearGradient id="paint1_linear_637_744" x1="1441.03" y1="269.5" x2="1245.03" y2="269.5" gradientUnits="userSpaceOnUse">
<stop/>
<stop offset="1" stop-opacity="0"/>
</linearGradient>
<linearGradient id="paint2_linear_637_744" x1="196" y1="269.5" x2="0" y2="269.5" gradientUnits="userSpaceOnUse">
<stop/>
<stop offset="1" stop-opacity="0"/>
</linearGradient>
<clipPath id="clip0_637_744">
<rect width="1440" height="566" fill="white" transform="translate(1.03101 5)"/>
</clipPath>
</defs>
</svg>
