<svg width="36" height="36" viewBox="0 0 36 36" fill="none" xmlns="http://www.w3.org/2000/svg">
<g clip-path="url(#clip0_635_697)">
<path d="M35.7832 25.8444H34.1433C34.0241 25.8444 33.9266 25.9419 33.9266 26.0612V26.5013C33.9266 26.6205 33.8291 26.718 33.71 26.718H33.2733C33.1541 26.718 33.0565 26.6206 33.0565 26.5013V26.0612C33.0565 25.9419 32.959 25.8444 32.8398 25.8444H31.1999C31.0808 25.8444 30.9832 25.9419 30.9832 26.0612V26.5013C30.9832 26.6205 30.8857 26.718 30.7665 26.718H30.3299C30.2611 26.718 30.2002 26.685 30.1604 26.6346V21.4895C30.1604 21.2513 30.3554 21.0561 30.5938 21.0561H30.9645C31.2029 21.0561 31.3979 20.8612 31.3979 20.6228V17.8059C31.3979 17.5676 31.2029 17.3726 30.9645 17.3726H27.7866C27.5482 17.3726 27.3532 17.5676 27.3532 17.8059V18.6432C27.3532 18.8815 27.1582 19.0766 26.9198 19.0766H26.0892C25.8508 19.0766 25.6558 18.8815 25.6558 18.6432V17.8059C25.6558 17.5676 25.4608 17.3726 25.2224 17.3726H22.0445C21.8061 17.3726 21.6112 17.5676 21.6112 17.8059V18.6432C21.6112 18.8815 21.4162 19.0766 21.1778 19.0766H20.347C20.1086 19.0766 19.9137 18.8815 19.9137 18.6432V17.8059C19.9137 17.5676 19.7188 17.3726 19.4804 17.3726H16.3025C16.0641 17.3726 15.869 17.5676 15.869 17.8059V18.6432C15.869 18.8815 15.674 19.0766 15.4357 19.0766H14.6051C14.3667 19.0766 14.1718 18.8815 14.1718 18.6432V17.8059C14.1718 17.5676 13.9768 17.3726 13.7383 17.3726H10.5603C10.3219 17.3726 10.1269 17.5676 10.1269 17.8059V18.6432C10.1269 18.8815 9.93195 19.0766 9.69356 19.0766H8.86322C8.62483 19.0766 8.4299 18.8815 8.4299 18.6432V17.8059C8.4299 17.5676 8.23486 17.3726 7.99647 17.3726H4.81836C4.58007 17.3726 4.38503 17.5676 4.38503 17.8059V20.6228C4.38503 20.8612 4.58007 21.0561 4.81836 21.0561H5.18909C5.42747 21.0561 5.62241 21.2512 5.62241 21.4895V26.7181H5.23333C5.11419 26.7181 5.01667 26.6207 5.01667 26.5014V26.0613C5.01667 25.942 4.91925 25.8445 4.79991 25.8445H3.15996C3.04081 25.8445 2.9432 25.942 2.9432 26.0613V26.5014C2.9432 26.6206 2.84578 26.7181 2.72653 26.7181H2.28994C2.17079 26.7181 2.07327 26.6207 2.07327 26.5014V26.0613C2.07327 25.942 1.97576 25.8445 1.85651 25.8445H0.216662C0.097518 25.8445 0 25.942 0 26.0613V27.5161C0 27.6354 0.097518 27.7328 0.216662 27.7328H0.417651C0.536894 27.7328 0.634412 27.8303 0.634412 27.9495V35.5097C0.634412 35.629 0.73193 35.7265 0.851075 35.7265H6.05603H12.9959H14.2203C14.4421 35.7265 14.4249 35.5394 14.4249 35.4443V30.8971C14.4249 28.9226 16.0255 27.3219 18 27.3219C19.9746 27.3219 21.5752 28.9225 21.5752 30.8971V35.4443C21.5752 35.5394 21.5925 35.7265 21.7798 35.7265H23.0044H29.7274H35.1491C35.2683 35.7265 35.3658 35.6291 35.3658 35.5097V27.9494C35.3658 27.8302 35.4633 27.7327 35.5825 27.7327H35.7833C35.9025 27.7327 36 27.6353 36 27.516V26.0612C35.9999 25.942 35.9024 25.8444 35.7832 25.8444Z" fill="url(#paint0_linear_635_697)"/>
<mask id="mask0_635_697" style="mask-type:alpha" maskUnits="userSpaceOnUse" x="0" y="17" width="36" height="19">
<path d="M35.7832 25.8444H34.1433C34.0241 25.8444 33.9266 25.9419 33.9266 26.0612V26.5013C33.9266 26.6205 33.8291 26.718 33.71 26.718H33.2733C33.1541 26.718 33.0565 26.6206 33.0565 26.5013V26.0612C33.0565 25.9419 32.959 25.8444 32.8398 25.8444H31.1999C31.0808 25.8444 30.9832 25.9419 30.9832 26.0612V26.5013C30.9832 26.6205 30.8857 26.718 30.7665 26.718H30.3299C30.2611 26.718 30.2002 26.685 30.1604 26.6346V21.4895C30.1604 21.2513 30.3554 21.0561 30.5938 21.0561H30.9645C31.2029 21.0561 31.3979 20.8612 31.3979 20.6228V17.8059C31.3979 17.5676 31.2029 17.3726 30.9645 17.3726H27.7866C27.5482 17.3726 27.3532 17.5676 27.3532 17.8059V18.6432C27.3532 18.8815 27.1582 19.0766 26.9198 19.0766H26.0892C25.8508 19.0766 25.6558 18.8815 25.6558 18.6432V17.8059C25.6558 17.5676 25.4608 17.3726 25.2224 17.3726H22.0445C21.8061 17.3726 21.6112 17.5676 21.6112 17.8059V18.6432C21.6112 18.8815 21.4162 19.0766 21.1778 19.0766H20.347C20.1086 19.0766 19.9137 18.8815 19.9137 18.6432V17.8059C19.9137 17.5676 19.7188 17.3726 19.4804 17.3726H16.3025C16.0641 17.3726 15.869 17.5676 15.869 17.8059V18.6432C15.869 18.8815 15.674 19.0766 15.4357 19.0766H14.6051C14.3667 19.0766 14.1718 18.8815 14.1718 18.6432V17.8059C14.1718 17.5676 13.9768 17.3726 13.7383 17.3726H10.5603C10.3219 17.3726 10.1269 17.5676 10.1269 17.8059V18.6432C10.1269 18.8815 9.93195 19.0766 9.69356 19.0766H8.86322C8.62483 19.0766 8.4299 18.8815 8.4299 18.6432V17.8059C8.4299 17.5676 8.23486 17.3726 7.99647 17.3726H4.81836C4.58007 17.3726 4.38503 17.5676 4.38503 17.8059V20.6228C4.38503 20.8612 4.58007 21.0561 4.81836 21.0561H5.18909C5.42747 21.0561 5.62241 21.2512 5.62241 21.4895V26.7181H5.23333C5.11419 26.7181 5.01667 26.6207 5.01667 26.5014V26.0613C5.01667 25.942 4.91925 25.8445 4.79991 25.8445H3.15996C3.04081 25.8445 2.9432 25.942 2.9432 26.0613V26.5014C2.9432 26.6206 2.84578 26.7181 2.72653 26.7181H2.28994C2.17079 26.7181 2.07327 26.6207 2.07327 26.5014V26.0613C2.07327 25.942 1.97576 25.8445 1.85651 25.8445H0.216662C0.097518 25.8445 0 25.942 0 26.0613V27.5161C0 27.6354 0.097518 27.7328 0.216662 27.7328H0.417651C0.536894 27.7328 0.634412 27.8303 0.634412 27.9495V35.5097C0.634412 35.629 0.73193 35.7265 0.851075 35.7265H6.05603H12.9959H14.2203C14.4421 35.7265 14.4249 35.5394 14.4249 35.4443V30.8971C14.4249 28.9226 16.0255 27.3219 18 27.3219C19.9746 27.3219 21.5752 28.9225 21.5752 30.8971V35.4443C21.5752 35.5394 21.5925 35.7265 21.7798 35.7265H23.0044H29.7274H35.1491C35.2683 35.7265 35.3658 35.6291 35.3658 35.5097V27.9494C35.3658 27.8302 35.4633 27.7327 35.5825 27.7327H35.7833C35.9025 27.7327 36 27.6353 36 27.516V26.0612C35.9999 25.942 35.9024 25.8444 35.7832 25.8444Z" fill="url(#paint1_linear_635_697)"/>
</mask>
<g mask="url(#mask0_635_697)">
<rect opacity="0.2" x="12.1185" y="4.1416" width="41.1145" height="20.063" transform="rotate(29.4223 12.1185 4.1416)" fill="white"/>
</g>
<path d="M21.4742 -0.226318C21.8696 -0.226098 22.19 0.0956275 22.19 0.490479V2.15161C22.19 2.54667 21.8694 2.86819 21.4742 2.86841H18.8248V4.37036L26.8892 14.2053C27.0275 14.374 27.1991 14.6916 27.0386 15.0315C26.8779 15.3715 26.5235 15.4405 26.3052 15.4407H9.58746C9.36917 15.4407 9.01404 15.3716 8.85309 15.0315C8.6925 14.6915 8.86408 14.374 9.0025 14.2053L17.067 4.37134V0.490479C17.067 0.0952413 17.3883 -0.226318 17.7838 -0.226318H21.4742Z" fill="url(#paint2_linear_635_697)" stroke="url(#paint3_linear_635_697)"/>
</g>
<defs>
<linearGradient id="paint0_linear_635_697" x1="18" y1="17.3726" x2="18" y2="35.7265" gradientUnits="userSpaceOnUse">
<stop stop-color="#B574F7"/>
<stop offset="1" stop-color="#D4AAFF"/>
</linearGradient>
<linearGradient id="paint1_linear_635_697" x1="18" y1="17.3726" x2="18" y2="35.7265" gradientUnits="userSpaceOnUse">
<stop stop-color="#B574F7"/>
<stop offset="1" stop-color="#D4AAFF"/>
</linearGradient>
<linearGradient id="paint2_linear_635_697" x1="17.9457" y1="0.273682" x2="17.9457" y2="14.9412" gradientUnits="userSpaceOnUse">
<stop offset="0.576268" stop-color="#625353"/>
<stop offset="1" stop-color="#666666"/>
</linearGradient>
<linearGradient id="paint3_linear_635_697" x1="17.9457" y1="0.273682" x2="17.9457" y2="14.9412" gradientUnits="userSpaceOnUse">
<stop stop-color="#897072"/>
<stop offset="1" stop-color="#666666"/>
</linearGradient>
<clipPath id="clip0_635_697">
<rect width="36" height="36" fill="white"/>
</clipPath>
</defs>
</svg>
