<svg width="120" height="24" viewBox="0 0 120 24" fill="none" xmlns="http://www.w3.org/2000/svg">
<g clip-path="url(#clip0_15_12)">
<path d="M17.8184 0H8.79865L0 5.86935V14.8878L5.86353 23.6784H14.8833L23.6284 17.8492L23.682 17.8157V8.79732L17.8184 0ZM14.8163 17.4673L6.2187 23.196V14.8208L0.482485 6.21775H8.86566L17.47 0.482412V8.86432L23.1995 17.4606H14.8163V17.4673Z" fill="white"/>
<path d="M32.883 19.6784V5.86021H38.3347C39.3782 5.86021 40.2689 6.04688 41.0066 6.42022C41.7487 6.78907 42.3133 7.3131 42.7001 7.99231C43.0914 8.66703 43.2871 9.46094 43.2871 10.3741C43.2871 11.2917 43.0892 12.0811 42.6933 12.7423C42.2975 13.399 41.724 13.9028 40.9728 14.2537C40.2261 14.6045 39.322 14.78 38.2605 14.78H34.6102V12.4319H37.7882C38.3459 12.4319 38.8092 12.3555 39.1781 12.2025C39.5469 12.0496 39.8213 11.8202 40.0012 11.5143C40.1856 11.2085 40.2779 10.8284 40.2779 10.3741C40.2779 9.91525 40.1856 9.52841 40.0012 9.21355C39.8213 8.89868 39.5447 8.66028 39.1713 8.49835C38.8025 8.33192 38.3369 8.2487 37.7747 8.2487H35.8045V19.6784H32.883ZM40.3453 13.39L43.7796 19.6784H40.5545L37.1944 13.39H40.3453ZM49.8538 19.8808C48.7877 19.8808 47.8701 19.6649 47.1009 19.2331C46.3362 18.7968 45.747 18.1805 45.3332 17.3844C44.9193 16.5837 44.7124 15.6368 44.7124 14.5438C44.7124 13.4778 44.9193 12.5421 45.3332 11.737C45.747 10.9318 46.3295 10.3043 47.0807 9.85453C47.8364 9.40472 48.7225 9.17981 49.7391 9.17981C50.4228 9.17981 51.0593 9.29001 51.6485 9.51042C52.2423 9.72633 52.7595 10.0524 53.2004 10.4888C53.6457 10.9251 53.992 11.4738 54.2394 12.1351C54.4868 12.7918 54.6105 13.561 54.6105 14.4426V15.232H45.8594V13.4508H51.9049C51.9049 13.0369 51.8149 12.6703 51.635 12.351C51.4551 12.0316 51.2054 11.782 50.8861 11.602C50.5712 11.4176 50.2046 11.3254 49.7863 11.3254C49.35 11.3254 48.9631 11.4266 48.6258 11.629C48.2929 11.8269 48.032 12.0946 47.8431 12.4319C47.6542 12.7648 47.5575 13.1359 47.553 13.5452V15.2388C47.553 15.7515 47.6474 16.1946 47.8364 16.568C48.0298 16.9413 48.3019 17.2292 48.6528 17.4316C49.0036 17.634 49.4197 17.7352 49.901 17.7352C50.2204 17.7352 50.5127 17.6902 50.7781 17.6003C51.0435 17.5103 51.2707 17.3754 51.4596 17.1954C51.6485 17.0155 51.7924 16.7951 51.8914 16.5342L54.5498 16.7096C54.4148 17.3484 54.1382 17.9061 53.7199 18.3829C53.3061 18.8552 52.7708 19.2241 52.1141 19.4895C51.4618 19.7504 50.7084 19.8808 49.8538 19.8808ZM61.9986 9.31475V11.4738H55.7575V9.31475H61.9986ZM57.1744 6.8318H60.0487V16.4937C60.0487 16.7591 60.0892 16.966 60.1702 17.1145C60.2511 17.2584 60.3636 17.3596 60.5075 17.4181C60.656 17.4766 60.8269 17.5058 61.0203 17.5058C61.1553 17.5058 61.2902 17.4946 61.4251 17.4721C61.5601 17.4451 61.6635 17.4248 61.7355 17.4113L62.1876 19.5502C62.0436 19.5952 61.8412 19.6469 61.5803 19.7054C61.3194 19.7684 61.0023 19.8066 60.629 19.8201C59.9363 19.8471 59.329 19.7549 58.8072 19.5434C58.29 19.332 57.8874 19.0037 57.5995 18.5584C57.3116 18.113 57.1699 17.5508 57.1744 16.8716V6.8318ZM68.4827 19.8808C67.4166 19.8808 66.499 19.6649 65.7298 19.2331C64.9651 18.7968 64.3759 18.1805 63.9621 17.3844C63.5482 16.5837 63.3413 15.6368 63.3413 14.5438C63.3413 13.4778 63.5482 12.5421 63.9621 11.737C64.3759 10.9318 64.9584 10.3043 65.7096 9.85453C66.4653 9.40472 67.3514 9.17981 68.368 9.17981C69.0517 9.17981 69.6882 9.29001 70.2774 9.51042C70.8712 9.72633 71.3884 10.0524 71.8293 10.4888C72.2746 10.9251 72.6209 11.4738 72.8683 12.1351C73.1157 12.7918 73.2394 13.561 73.2394 14.4426V15.232H64.4884V13.4508H70.5338C70.5338 13.0369 70.4438 12.6703 70.2639 12.351C70.084 12.0316 69.8343 11.782 69.515 11.602C69.2001 11.4176 68.8335 11.3254 68.4152 11.3254C67.9789 11.3254 67.592 11.4266 67.2547 11.629C66.9218 11.8269 66.6609 12.0946 66.472 12.4319C66.2831 12.7648 66.1864 13.1359 66.1819 13.5452V15.2388C66.1819 15.7515 66.2763 16.1946 66.4653 16.568C66.6587 16.9413 66.9308 17.2292 67.2817 17.4316C67.6325 17.634 68.0486 17.7352 68.5299 17.7352C68.8493 17.7352 69.1416 17.6902 69.407 17.6003C69.6724 17.5103 69.8996 17.3754 70.0885 17.1954C70.2774 17.0155 70.4214 16.7951 70.5203 16.5342L73.1787 16.7096C73.0437 17.3484 72.7671 17.9061 72.3488 18.3829C71.935 18.8552 71.3997 19.2241 70.743 19.4895C70.0907 19.7504 69.3373 19.8808 68.4827 19.8808ZM77.9894 13.6869V19.6784H75.1151V9.31475H77.8545V11.1432H77.9759C78.2053 10.5405 78.5899 10.0637 79.1297 9.71284C79.6695 9.35749 80.3239 9.17981 81.0931 9.17981C81.8128 9.17981 82.4403 9.33724 82.9756 9.65211C83.5108 9.96698 83.9269 10.4168 84.2238 11.0015C84.5207 11.5818 84.6691 12.2745 84.6691 13.0797V19.6784H81.7948V13.5925C81.7993 12.9582 81.6374 12.4634 81.309 12.1081C80.9807 11.7482 80.5286 11.5683 79.9528 11.5683C79.566 11.5683 79.2241 11.6515 78.9273 11.8179C78.6349 11.9844 78.4055 12.2273 78.2391 12.5466C78.0771 12.8615 77.9939 13.2416 77.9894 13.6869ZM92.4469 9.31475V11.4738H86.2058V9.31475H92.4469ZM87.6227 6.8318H90.497V16.4937C90.497 16.7591 90.5374 16.966 90.6184 17.1145C90.6994 17.2584 90.8118 17.3596 90.9558 17.4181C91.1042 17.4766 91.2751 17.5058 91.4686 17.5058C91.6035 17.5058 91.7384 17.4946 91.8734 17.4721C92.0083 17.4451 92.1118 17.4248 92.1838 17.4113L92.6358 19.5502C92.4919 19.5952 92.2895 19.6469 92.0286 19.7054C91.7677 19.7684 91.4506 19.8066 91.0772 19.8201C90.3845 19.8471 89.7773 19.7549 89.2555 19.5434C88.7382 19.332 88.3356 19.0037 88.0477 18.5584C87.7599 18.113 87.6182 17.5508 87.6227 16.8716V6.8318ZM94.3192 19.6784V9.31475H97.1935V19.6784H94.3192ZM95.7631 7.97882C95.3358 7.97882 94.9692 7.83713 94.6633 7.55374C94.362 7.26587 94.2113 6.92176 94.2113 6.52143C94.2113 6.1256 94.362 5.78599 94.6633 5.50261C94.9692 5.21473 95.3358 5.07079 95.7631 5.07079C96.1904 5.07079 96.5548 5.21473 96.8562 5.50261C97.162 5.78599 97.315 6.1256 97.315 6.52143C97.315 6.92176 97.162 7.26587 96.8562 7.55374C96.5548 7.83713 96.1904 7.97882 95.7631 7.97882ZM104.179 19.8808C103.117 19.8808 102.204 19.6559 101.439 19.2061C100.679 18.7518 100.094 18.122 99.6849 17.3169C99.2801 16.5117 99.0777 15.5851 99.0777 14.5371C99.0777 13.4755 99.2823 12.5444 99.6917 11.7437C100.105 10.9386 100.692 10.3111 101.453 9.86127C102.213 9.40697 103.117 9.17981 104.165 9.17981C105.069 9.17981 105.861 9.34399 106.54 9.67235C107.219 10.0007 107.757 10.4618 108.153 11.0555C108.548 11.6493 108.767 12.3465 108.807 13.1471H106.095C106.018 12.6299 105.816 12.2138 105.487 11.8989C105.164 11.5796 104.739 11.4199 104.212 11.4199C103.767 11.4199 103.378 11.5413 103.045 11.7842C102.717 12.0226 102.46 12.3712 102.276 12.83C102.091 13.2888 101.999 13.8443 101.999 14.4966C101.999 15.1578 102.089 15.7201 102.269 16.1834C102.453 16.6467 102.712 16.9998 103.045 17.2427C103.378 17.4856 103.767 17.607 104.212 17.607C104.541 17.607 104.835 17.5395 105.096 17.4046C105.362 17.2697 105.58 17.074 105.751 16.8176C105.926 16.5567 106.041 16.2441 106.095 15.8797H108.807C108.762 16.6714 108.546 17.3686 108.159 17.9714C107.777 18.5696 107.248 19.0374 106.574 19.3748C105.899 19.7121 105.101 19.8808 104.179 19.8808ZM113.603 19.8741C112.941 19.8741 112.352 19.7594 111.835 19.53C111.318 19.2961 110.908 18.9519 110.607 18.4976C110.31 18.0388 110.162 17.4676 110.162 16.7839C110.162 16.2081 110.267 15.7246 110.479 15.3332C110.69 14.9419 110.978 14.627 111.342 14.3886C111.707 14.1502 112.12 13.9703 112.584 13.8488C113.052 13.7274 113.542 13.6419 114.055 13.5925C114.657 13.5295 115.143 13.471 115.512 13.417C115.881 13.3586 116.149 13.2731 116.315 13.1606C116.481 13.0482 116.565 12.8818 116.565 12.6613V12.6209C116.565 12.1935 116.43 11.8629 116.16 11.629C115.894 11.3951 115.517 11.2782 115.026 11.2782C114.509 11.2782 114.097 11.3929 113.792 11.6223C113.486 11.8472 113.283 12.1306 113.184 12.4724L110.526 12.2565C110.661 11.6268 110.926 11.0825 111.322 10.6237C111.718 10.1604 112.228 9.80505 112.854 9.55765C113.483 9.30576 114.212 9.17981 115.04 9.17981C115.616 9.17981 116.167 9.24728 116.693 9.38223C117.224 9.51717 117.694 9.72633 118.103 10.0097C118.517 10.2931 118.843 10.6574 119.081 11.1028C119.32 11.5436 119.439 12.0721 119.439 12.6883V19.6784H116.713V18.2412H116.632C116.466 18.5651 116.243 18.8507 115.964 19.0981C115.685 19.341 115.35 19.5322 114.959 19.6716C114.567 19.8066 114.115 19.8741 113.603 19.8741ZM114.426 17.8904C114.849 17.8904 115.222 17.8072 115.546 17.6407C115.87 17.4698 116.124 17.2404 116.308 16.9525C116.493 16.6647 116.585 16.3385 116.585 15.9742V14.8744C116.495 14.9329 116.371 14.9869 116.214 15.0363C116.061 15.0813 115.888 15.1241 115.694 15.1645C115.501 15.2005 115.307 15.2343 115.114 15.2657C114.921 15.2927 114.745 15.3175 114.588 15.34C114.25 15.3894 113.956 15.4682 113.704 15.5761C113.452 15.6841 113.256 15.8303 113.117 16.0147C112.977 16.1946 112.908 16.4195 112.908 16.6894C112.908 17.0807 113.049 17.3799 113.333 17.5868C113.621 17.7892 113.985 17.8904 114.426 17.8904Z" fill="white"/>
</g>
<defs>
<clipPath id="clip0_15_12">
<rect width="120" height="23.6784" fill="white"/>
</clipPath>
</defs>
</svg>
