<svg width="120" height="21" viewBox="0 0 120 21" fill="none" xmlns="http://www.w3.org/2000/svg">
<path d="M8.97946 1.33306e-05V6.31829L12.1363 9.47743H18.4569L8.97946 1.33306e-05Z" fill="url(#paint0_linear_420_1425)"/>
<path d="M2.67029e-05 0V6.31828L3.15685 9.47742H9.47744L2.67029e-05 0Z" fill="url(#paint1_linear_420_1425)"/>
<path d="M8.97946 21V14.6817L12.1363 11.5203H18.4569L8.97946 21Z" fill="url(#paint2_linear_420_1425)"/>
<path d="M0 21V14.6817L3.15682 11.5203H9.47742L0 21Z" fill="url(#paint3_linear_420_1425)"/>
<path d="M27.5947 17V3.90909H32.7595C33.7481 3.90909 34.5919 4.08594 35.2907 4.43963C35.9938 4.78906 36.5286 5.28551 36.8951 5.92898C37.2659 6.56818 37.4512 7.32031 37.4512 8.18537C37.4512 9.05469 37.2637 9.80256 36.8887 10.429C36.5137 11.0511 35.9704 11.5284 35.2588 11.8608C34.5514 12.1932 33.6948 12.3594 32.6892 12.3594H29.2311V10.1349H32.2417C32.7701 10.1349 33.209 10.0625 33.5585 9.91761C33.9079 9.77273 34.1678 9.5554 34.3383 9.26562C34.513 8.97585 34.6004 8.61577 34.6004 8.18537C34.6004 7.75071 34.513 7.38423 34.3383 7.08594C34.1678 6.78764 33.9058 6.56179 33.5521 6.40838C33.2026 6.25071 32.7616 6.17188 32.2289 6.17188H30.3624V17H27.5947ZM34.6643 11.0426L37.9178 17H34.8624L31.6792 11.0426H34.6643ZM43.6723 17.1918C42.6623 17.1918 41.793 16.9872 41.0643 16.5781C40.3399 16.1648 39.7817 15.581 39.3896 14.8267C38.9976 14.0682 38.8015 13.1712 38.8015 12.1357C38.8015 11.1257 38.9976 10.2393 39.3896 9.47656C39.7817 8.71378 40.3335 8.11932 41.0452 7.69318C41.7611 7.26705 42.6006 7.05398 43.5636 7.05398C44.2113 7.05398 44.8143 7.15838 45.3726 7.36719C45.9351 7.57173 46.4251 7.88068 46.8427 8.29403C47.2646 8.70739 47.5927 9.22727 47.8271 9.85369C48.0615 10.4759 48.1787 11.2045 48.1787 12.0398V12.7876H39.8882V11.1001H45.6155C45.6155 10.7081 45.5302 10.3608 45.3598 10.0582C45.1893 9.75568 44.9528 9.51918 44.6503 9.34872C44.352 9.17401 44.0047 9.08665 43.6084 9.08665C43.195 9.08665 42.8285 9.18253 42.5089 9.37429C42.1936 9.56179 41.9464 9.81534 41.7675 10.1349C41.5885 10.4503 41.4969 10.8018 41.4926 11.1896V12.794C41.4926 13.2798 41.5821 13.6996 41.7611 14.0533C41.9443 14.407 42.2021 14.6797 42.5345 14.8714C42.8669 15.0632 43.2611 15.1591 43.717 15.1591C44.0196 15.1591 44.2966 15.1165 44.548 15.0312C44.7994 14.946 45.0146 14.8182 45.1936 14.6477C45.3726 14.4773 45.5089 14.2685 45.6027 14.0213L48.1212 14.1875C47.9933 14.7926 47.7312 15.321 47.3349 15.7727C46.9429 16.2202 46.4358 16.5696 45.8136 16.821C45.1957 17.0682 44.4819 17.1918 43.6723 17.1918ZM55.178 7.18182V9.22727H49.2653V7.18182H55.178ZM50.6077 4.82955H53.3307V13.983C53.3307 14.2344 53.369 14.4304 53.4457 14.571C53.5224 14.7074 53.629 14.8033 53.7653 14.8587C53.906 14.9141 54.0679 14.9418 54.2511 14.9418C54.379 14.9418 54.5068 14.9311 54.6346 14.9098C54.7625 14.8842 54.8605 14.8651 54.9287 14.8523L55.3569 16.8786C55.2206 16.9212 55.0288 16.9702 54.7817 17.0256C54.5345 17.0852 54.2341 17.1214 53.8804 17.1342C53.2241 17.1598 52.6488 17.0724 52.1545 16.8722C51.6645 16.6719 51.2831 16.3608 51.0104 15.9389C50.7376 15.517 50.6034 14.9844 50.6077 14.3409V4.82955ZM61.3207 17.1918C60.3108 17.1918 59.4415 16.9872 58.7128 16.5781C57.9883 16.1648 57.4301 15.581 57.0381 14.8267C56.646 14.0682 56.45 13.1712 56.45 12.1357C56.45 11.1257 56.646 10.2393 57.0381 9.47656C57.4301 8.71378 57.9819 8.11932 58.6936 7.69318C59.4095 7.26705 60.249 7.05398 61.2121 7.05398C61.8598 7.05398 62.4628 7.15838 63.021 7.36719C63.5835 7.57173 64.0736 7.88068 64.4912 8.29403C64.9131 8.70739 65.2412 9.22727 65.4756 9.85369C65.7099 10.4759 65.8271 11.2045 65.8271 12.0398V12.7876H57.5366V11.1001H63.2639C63.2639 10.7081 63.1787 10.3608 63.0082 10.0582C62.8378 9.75568 62.6013 9.51918 62.2987 9.34872C62.0004 9.17401 61.6531 9.08665 61.2568 9.08665C60.8435 9.08665 60.477 9.18253 60.1574 9.37429C59.842 9.56179 59.5949 9.81534 59.4159 10.1349C59.2369 10.4503 59.1453 10.8018 59.141 11.1896V12.794C59.141 13.2798 59.2305 13.6996 59.4095 14.0533C59.5927 14.407 59.8506 14.6797 60.1829 14.8714C60.5153 15.0632 60.9095 15.1591 61.3655 15.1591C61.668 15.1591 61.945 15.1165 62.1964 15.0312C62.4479 14.946 62.6631 14.8182 62.842 14.6477C63.021 14.4773 63.1574 14.2685 63.2511 14.0213L65.7696 14.1875C65.6417 14.7926 65.3797 15.321 64.9834 15.7727C64.5913 16.2202 64.0842 16.5696 63.4621 16.821C62.8442 17.0682 62.1304 17.1918 61.3207 17.1918ZM70.3271 11.3239V17H67.6041V7.18182H70.1993V8.91406H70.3143C70.5317 8.34304 70.896 7.89133 71.4074 7.55895C71.9187 7.2223 72.5388 7.05398 73.2675 7.05398C73.9493 7.05398 74.5437 7.20312 75.0508 7.50142C75.5579 7.79972 75.9521 8.22585 76.2334 8.77983C76.5146 9.32955 76.6552 9.9858 76.6552 10.7486V17H73.9322V11.2344C73.9365 10.6335 73.7831 10.1648 73.472 9.82812C73.1609 9.48722 72.7327 9.31676 72.1872 9.31676C71.8207 9.31676 71.4969 9.3956 71.2156 9.55327C70.9386 9.71094 70.7213 9.94105 70.5636 10.2436C70.4102 10.5419 70.3314 10.902 70.3271 11.3239ZM84.0237 7.18182V9.22727H78.111V7.18182H84.0237ZM79.4534 4.82955H82.1764V13.983C82.1764 14.2344 82.2147 14.4304 82.2914 14.571C82.3681 14.7074 82.4747 14.8033 82.611 14.8587C82.7517 14.9141 82.9136 14.9418 83.0968 14.9418C83.2247 14.9418 83.3525 14.9311 83.4803 14.9098C83.6082 14.8842 83.7062 14.8651 83.7744 14.8523L84.2026 16.8786C84.0663 16.9212 83.8745 16.9702 83.6274 17.0256C83.3802 17.0852 83.0798 17.1214 82.7261 17.1342C82.0698 17.1598 81.4946 17.0724 81.0002 16.8722C80.5102 16.6719 80.1288 16.3608 79.8561 15.9389C79.5833 15.517 79.4491 14.9844 79.4534 14.3409V4.82955ZM85.7975 17V7.18182H88.5205V17H85.7975ZM87.1654 5.91619C86.7605 5.91619 86.4132 5.78196 86.1235 5.51349C85.8379 5.24077 85.6952 4.91477 85.6952 4.53551C85.6952 4.16051 85.8379 3.83878 86.1235 3.57031C86.4132 3.29758 86.7605 3.16122 87.1654 3.16122C87.5702 3.16122 87.9154 3.29758 88.2009 3.57031C88.4906 3.83878 88.6355 4.16051 88.6355 4.53551C88.6355 4.91477 88.4906 5.24077 88.2009 5.51349C87.9154 5.78196 87.5702 5.91619 87.1654 5.91619ZM95.1378 17.1918C94.1322 17.1918 93.2671 16.9787 92.5427 16.5526C91.8225 16.1222 91.2685 15.5256 90.8807 14.7628C90.4972 14 90.3055 13.1222 90.3055 12.1293C90.3055 11.1236 90.4993 10.2415 90.8871 9.48295C91.2792 8.72017 91.8353 8.12571 92.5555 7.69957C93.2756 7.26918 94.1322 7.05398 95.1251 7.05398C95.9816 7.05398 96.7316 7.20952 97.3751 7.5206C98.0185 7.83168 98.5278 8.26847 98.9028 8.83097C99.2778 9.39347 99.4844 10.054 99.5228 10.8125H96.9532C96.8807 10.3224 96.689 9.92827 96.3779 9.62997C96.0711 9.32741 95.6684 9.17614 95.1698 9.17614C94.7479 9.17614 94.3793 9.29119 94.064 9.52131C93.7529 9.74716 93.51 10.0774 93.3353 10.5121C93.1606 10.9467 93.0732 11.473 93.0732 12.0909C93.0732 12.7173 93.1584 13.25 93.3289 13.6889C93.5036 14.1278 93.7486 14.4624 94.064 14.6925C94.3793 14.9226 94.7479 15.0376 95.1698 15.0376C95.4809 15.0376 95.76 14.9737 96.0072 14.8459C96.2586 14.718 96.4653 14.5327 96.6272 14.2898C96.7934 14.0426 96.902 13.7464 96.9532 13.4013H99.5228C99.4802 14.1513 99.2756 14.8118 98.9091 15.3828C98.5469 15.9496 98.0462 16.3928 97.407 16.7124C96.7678 17.032 96.0114 17.1918 95.1378 17.1918ZM104.066 17.1854C103.44 17.1854 102.881 17.0767 102.391 16.8594C101.901 16.6378 101.513 16.3118 101.228 15.8814C100.947 15.4467 100.806 14.9055 100.806 14.2578C100.806 13.7124 100.906 13.2543 101.106 12.8835C101.307 12.5128 101.579 12.2145 101.925 11.9886C102.27 11.7628 102.662 11.5923 103.101 11.4773C103.544 11.3622 104.008 11.2812 104.494 11.2344C105.065 11.1747 105.525 11.1193 105.875 11.0682C106.224 11.0128 106.478 10.9318 106.636 10.8253C106.793 10.7187 106.872 10.5611 106.872 10.3523V10.3139C106.872 9.90909 106.744 9.59588 106.489 9.37429C106.237 9.1527 105.879 9.0419 105.415 9.0419C104.925 9.0419 104.535 9.15057 104.245 9.3679C103.955 9.58097 103.763 9.84943 103.67 10.1733L101.151 9.96875C101.279 9.37216 101.53 8.85653 101.905 8.42188C102.28 7.98295 102.764 7.64631 103.356 7.41193C103.953 7.1733 104.643 7.05398 105.427 7.05398C105.973 7.05398 106.495 7.1179 106.993 7.24574C107.496 7.37358 107.942 7.57173 108.329 7.8402C108.721 8.10866 109.03 8.45384 109.256 8.87571C109.482 9.29332 109.595 9.79403 109.595 10.3778V17H107.013V15.6385H106.936C106.778 15.9453 106.567 16.2159 106.303 16.4503C106.039 16.6804 105.721 16.8615 105.351 16.9936C104.98 17.1214 104.552 17.1854 104.066 17.1854ZM104.846 15.3061C105.246 15.3061 105.6 15.2273 105.907 15.0696C106.214 14.9077 106.454 14.6903 106.629 14.4176C106.804 14.1449 106.891 13.8359 106.891 13.4908V12.4489C106.806 12.5043 106.689 12.5554 106.54 12.6023C106.395 12.6449 106.231 12.6854 106.047 12.7237C105.864 12.7578 105.681 12.7898 105.498 12.8196C105.315 12.8452 105.148 12.8686 104.999 12.8899C104.68 12.9368 104.4 13.0114 104.162 13.1136C103.923 13.2159 103.738 13.3544 103.606 13.5291C103.474 13.6996 103.408 13.9126 103.408 14.1683C103.408 14.5391 103.542 14.8224 103.81 15.0185C104.083 15.2102 104.428 15.3061 104.846 15.3061Z" fill="white"/>
<defs>
<linearGradient id="paint0_linear_420_1425" x1="18.4569" y1="10.5" x2="0" y2="10.5" gradientUnits="userSpaceOnUse">
<stop stop-color="#B574F7"/>
<stop offset="1" stop-color="#D2AEF6"/>
</linearGradient>
<linearGradient id="paint1_linear_420_1425" x1="18.4569" y1="10.5" x2="0" y2="10.5" gradientUnits="userSpaceOnUse">
<stop stop-color="#B574F7"/>
<stop offset="1" stop-color="#D2AEF6"/>
</linearGradient>
<linearGradient id="paint2_linear_420_1425" x1="18.4569" y1="10.5" x2="0" y2="10.5" gradientUnits="userSpaceOnUse">
<stop stop-color="#B574F7"/>
<stop offset="1" stop-color="#D2AEF6"/>
</linearGradient>
<linearGradient id="paint3_linear_420_1425" x1="18.4569" y1="10.5" x2="0" y2="10.5" gradientUnits="userSpaceOnUse">
<stop stop-color="#B574F7"/>
<stop offset="1" stop-color="#D2AEF6"/>
</linearGradient>
</defs>
</svg>
